SplineFontDB: 3.0
FontName: AdventPro-Regular
FullName: Advent Pro Regular
FamilyName: Advent Pro
Weight: Regular
Copyright: Copyright (c) 2008 Andreas Kalpakidis (hello@inderesting.com), with Reserved Font Name "Advent Pro"
Version: 001.001
ItalicAngle: 0
UnderlinePosition: -50
UnderlineWidth: 50
Ascent: 800
Descent: 200
sfntRevision: 0x00020083
LayerCount: 2
Layer: 0 1 "Back"  1
Layer: 1 1 "Fore"  0
NeedsXUIDChange: 1
XUID: [1021 288 713564382 14720884]
FSType: 0
OS2Version: 2
OS2_WeightWidthSlopeOnly: 0
OS2_UseTypoMetrics: 1
CreationTime: 1322417977
ModificationTime: 1322447152
PfmFamily: 17
TTFWeight: 400
TTFWidth: 5
LineGap: 0
VLineGap: 0
Panose: 2 0 5 6 4 0 0 2 0 4
OS2TypoAscent: 162
OS2TypoAOffset: 1
OS2TypoDescent: -32
OS2TypoDOffset: 1
OS2TypoLinegap: 0
OS2WinAscent: -2
OS2WinAOffset: 1
OS2WinDescent: 13
OS2WinDOffset: 1
HheadAscent: 0
HheadAOffset: 1
HheadDescent: -13
HheadDOffset: 1
OS2SubXSize: 650
OS2SubYSize: 600
OS2SubXOff: 0
OS2SubYOff: 75
OS2SupXSize: 650
OS2SupYSize: 600
OS2SupXOff: 0
OS2SupYOff: 350
OS2StrikeYSize: 50
OS2StrikeYPos: 250
OS2Vendor: 'ADBE'
OS2CodePages: 0000009b.00000000
OS2UnicodeRanges: 800000af.1000204a.00000000.00000000
Lookup: 258 0 0 "'kern' Horizontal Kerning lookup 0"  {"'kern' Horizontal Kerning lookup 0 subtable"  } ['kern' ('DFLT' <'dflt' > 'grek' <'dflt' > 'latn' <'dflt' > ) ]
MarkAttachClasses: 1
DEI: 91125
TtTable: prep
PUSHW_1
 511
SCANCTRL
PUSHB_1
 4
SCANTYPE
EndTTInstrs
LangName: 1033 "" "" "" "AndreasKalpakidis: Advent Pro Regular: 2008" "AdventPro-Regular" "Version 2.002 2008" "" "Advent Pro Thin is a trademark of INDE Andreas Kalpakidis." "Andreas Kalpakidis" "Andreas Kalpakidis" "" "www.inderesting.com" "www.inderesting.com" "This Font Software is licensed under the SIL Open Font License, Version 1.1. This license is available with a FAQ at: http://scripts.sil.org/OFL" "http://scripts.sil.org/OFL" 
GaspTable: 1 65535 15
Encoding: UnicodeBmp
UnicodeInterp: none
NameList: Adobe Glyph List
DisplaySize: -36

StartChar: .notdef
Encoding: 65536 -1 0
Width: 500
Flags: HMW
HStem: 0 650<50 450 50 500 0 450> 50 650<50 450 450 450>
VStem: 0 450<50 650 50 700 50 700> 50 450<50 650 50 50>
LayerCount: 2
Fore
SplineSet
500 0 m 1,0,-1
 0 0 l 1,1,-1
 0 700 l 1,2,-1
 500 700 l 1,3,-1
 500 0 l 1,0,-1
450 50 m 1,4,-1
 450 650 l 1,5,-1
 50 650 l 1,6,-1
 50 50 l 1,7,-1
 450 50 l 1,4,-1
425 133 m 1,8,-1
 386 101 l 1,9,-1
 250 305 l 1,10,-1
 113 100 l 1,11,-1
 73 129 l 1,12,-1
 220 350 l 1,13,-1
 73 571 l 1,14,-1
 113 600 l 1,15,-1
 250 395 l 1,16,-1
 386 599 l 1,17,-1
 425 567 l 1,18,-1
 280 350 l 1,19,-1
 425 133 l 1,8,-1
EndSplineSet
EndChar

StartChar: numbersign
Encoding: 35 35 4
Width: 613
Flags: HMW
HStem: 0 21G<110 165 110 110 284 339 284 284> 189 56<34 154 34 167 222 328 34 209 396 582> 413 56<34 207 34 220 34 262 275 381 449 582>
VStem: 34 548<189 245 189 245 413 469 189 469> 110 55<0 0> 274 55<700 700> 284 55<0 0> 448 55<700 700>
LayerCount: 2
Fore
SplineSet
582 189 m 1,0,-1
 383 189 l 1,1,-1
 339 0 l 1,2,-1
 284 0 l 1,3,-1
 328 189 l 1,4,-1
 209 189 l 1,5,-1
 165 0 l 1,6,-1
 110 0 l 1,7,-1
 154 189 l 1,8,-1
 34 189 l 1,9,-1
 34 245 l 1,10,-1
 167 245 l 1,11,-1
 207 413 l 1,12,-1
 34 413 l 1,13,-1
 34 469 l 1,14,-1
 220 469 l 1,15,-1
 274 700 l 1,16,-1
 329 700 l 1,17,-1
 275 469 l 1,18,-1
 394 469 l 1,19,-1
 448 700 l 1,20,-1
 503 700 l 1,21,-1
 449 469 l 1,22,-1
 582 469 l 1,23,-1
 582 413 l 1,24,-1
 436 413 l 1,25,-1
 396 245 l 1,26,-1
 582 245 l 1,27,-1
 582 189 l 1,0,-1
341 245 m 1,28,-1
 381 413 l 1,29,-1
 262 413 l 1,30,-1
 222 245 l 1,31,-1
 341 245 l 1,28,-1
EndSplineSet
EndChar

StartChar: dollar
Encoding: 36 36 5
Width: 540
Flags: HMW
HStem: -17 80 178 155 710 20G
VStem: 34 57<178 178> 52 58<502.5 569 502.5 576.5> 243 56<-114 -10 44 334 413 654 654 654 709 817> 299 210<-114 253.5 44 253.5 137.5 253.5 137.5 334 137.5 394 137.5 655> 406 17 449 60<139 228>
LayerCount: 2
Fore
SplineSet
299 -114 m 1,0,-1
 243 -114 l 1,1,-1
 243 -10 l 1,2,3
 146 -2 146 -2 91 53.5 c 128,-1,4
 36 109 36 109 34 178 c 1,5,-1
 91 178 l 1,6,7
 95 130 95 130 136 90.5 c 128,-1,8
 177 51 177 51 243 44 c 1,9,-1
 243 354 l 1,10,11
 161.980552712 381.620266121 161.980552712 381.620266121 112.5 416.5 c 0,12,13
 52 459.147540984 52 459.147540984 52 538 c 0,14,15
 52 601 52 601 101 650.5 c 128,-1,16
 150 700 150 700 243 708 c 1,17,-1
 243 817 l 1,18,-1
 299 817 l 1,19,-1
 299 709 l 1,20,21
 367 707 367 707 423 680 c 1,22,23
 423 678 423 678 406 627 c 1,24,25
 358 652 358 652 299 655 c 1,26,-1
 299 394 l 1,27,28
 424.655306719 351.012658228 424.655306719 351.012658228 465.5 305.5 c 0,29,30
 509 257.028571429 509 257.028571429 509 192 c 0,31,32
 509 105 509 105 458 51 c 128,-1,33
 407 -3 407 -3 299 -10 c 1,34,-1
 299 -114 l 1,0,-1
299 334 m 1,35,-1
 299 44 l 1,36,37
 365 51 365 51 407 85.5 c 128,-1,38
 449 120 449 120 449 181.5 c 128,-1,39
 449 243 449 243 410.5 275 c 128,-1,40
 372 307 372 307 299 334 c 1,35,-1
243 413 m 1,41,-1
 243 654 l 1,42,43
 181 646 181 646 145.5 615.5 c 128,-1,44
 110 585 110 585 110 537.5 c 128,-1,45
 110 490 110 490 144.5 463 c 128,-1,46
 179 436 179 436 243 413 c 1,41,-1
EndSplineSet
EndChar

StartChar: percent
Encoding: 37 37 6
Width: 672
Flags: HMW
HStem: 39 94 41 92 308 55 489 94 583 94 654 55 702 20G 711 20G
VStem: 90 94 184 94 338 106 401 94 495 94
LayerCount: 2
Fore
SplineSet
69 1 m 1,0,-1
 34 41 l 1,1,-1
 601 740 l 1,2,-1
 641 699 l 1,3,-1
 69 1 l 1,0,-1
495 -11 m 128,-1,5
 435 -11 435 -11 393 31 c 128,-1,6
 351 73 351 73 351 133 c 128,-1,7
 351 193 351 193 393 235 c 128,-1,8
 435 277 435 277 495 277 c 128,-1,9
 555 277 555 277 597 235 c 128,-1,10
 639 193 639 193 639 133 c 128,-1,11
 639 73 639 73 597 31 c 128,-1,4
 555 -11 555 -11 495 -11 c 128,-1,5
589 133 m 128,-1,13
 589 170 589 170 563 198.5 c 128,-1,14
 537 227 537 227 495 227 c 128,-1,15
 453 227 453 227 427 198.5 c 128,-1,16
 401 170 401 170 401 133 c 128,-1,17
 401 96 401 96 427 67.5 c 128,-1,18
 453 39 453 39 495 39 c 128,-1,19
 537 39 537 39 563 67.5 c 128,-1,12
 589 96 589 96 589 133 c 128,-1,13
184 439 m 128,-1,21
 124 439 124 439 82 481 c 128,-1,22
 40 523 40 523 40 583 c 128,-1,23
 40 643 40 643 82 685 c 128,-1,24
 124 727 124 727 184 727 c 128,-1,25
 244 727 244 727 286 685 c 128,-1,26
 328 643 328 643 328 583 c 128,-1,27
 328 523 328 523 286 481 c 128,-1,20
 244 439 244 439 184 439 c 128,-1,21
278 583 m 128,-1,29
 278 620 278 620 252 648.5 c 128,-1,30
 226 677 226 677 184 677 c 128,-1,31
 142 677 142 677 116 648.5 c 128,-1,32
 90 620 90 620 90 583 c 128,-1,33
 90 546 90 546 116 517.5 c 128,-1,34
 142 489 142 489 184 489 c 128,-1,35
 226 489 226 489 252 517.5 c 128,-1,28
 278 546 278 546 278 583 c 128,-1,29
EndSplineSet
EndChar

StartChar: ampersand
Encoding: 38 38 7
Width: 548
Flags: HMW
HStem: -12 75 383 21G
VStem: 36 183 211 164 432 85<141 447 447 609 447 484>
LayerCount: 2
Fore
SplineSet
498 32 m 1,0,-1
 482 -11 l 1,1,2
 444 0 444 0 417.5 25.5 c 128,-1,3
 391 51 391 51 384 87 c 1,4,5
 326 -11 326 -11 213 -11 c 0,6,7
 123 -11 123 -11 75.5 52.5 c 0,8,9
 34.8468468468 106.846846847 34.8468468468 106.846846847 34.8468468468 179.139680221 c 0,10,11
 34.8468468468 242.001351351 34.8468468468 242.001351351 57.9234234234 287.000675676 c 128,-1,12
 81 332 81 332 115.5 359.5 c 128,-1,13
 150 387 150 387 177.5 402.5 c 128,-1,14
 205 418 205 418 245 435 c 1,15,16
 212 440 212 440 186 471.5 c 0,17,18
 155 509.057692308 155 509.057692308 155 566.462962963 c 0,19,20
 155 642.166666667 155 642.166666667 219 683.5 c 0,21,22
 262.2 711.4 262.2 711.4 303.6 711.4 c 128,-1,23
 345 711.4 345 711.4 381 699 c 1,24,-1
 350 653 l 1,25,26
 327.126213592 660.009708738 327.126213592 660.009708738 299.90776699 660.009708738 c 128,-1,27
 272.689320388 660.009708738 272.689320388 660.009708738 246.5 639.5 c 0,28,29
 210.242105263 611.105263158 210.242105263 611.105263158 210.242105263 567.825706371 c 0,30,31
 210.242105263 506.657213622 210.242105263 506.657213622 259.5 480 c 0,32,33
 289.121212121 463.96969697 289.121212121 463.96969697 311.590909091 463.96969697 c 128,-1,34
 334.060606061 463.96969697 334.060606061 463.96969697 348 467 c 2,35,-1
 375 472 l 1,36,-1
 375 609 l 1,37,-1
 432 609 l 1,38,-1
 432 484 l 1,39,-1
 505 500 l 1,40,-1
 517 447 l 1,41,-1
 432 428 l 1,42,-1
 432 141 l 2,43,44
 432 54 432 54 498 32 c 1,0,-1
375 219 m 2,45,-1
 375 416 l 1,46,47
 228.913043478 383.130434783 228.913043478 383.130434783 162.5 330 c 0,48,49
 135 308 135 308 114.5 273.5 c 0,50,51
 90.358974359 232.872420263 90.358974359 232.872420263 90.358974359 177.711851157 c 128,-1,52
 90.358974359 122.551282051 90.358974359 122.551282051 122.179487179 82.7756410256 c 128,-1,53
 154 43 154 43 221 43 c 128,-1,54
 288 43 288 43 331.5 96.5 c 128,-1,55
 375 150 375 150 375 219 c 2,45,-1
EndSplineSet
EndChar

StartChar: quoteright
Encoding: 8217 8217 8
Width: 101
Flags: HMW
HStem: 456 50 603 111 644 111
VStem: -21 104 33 69<677 680>
LayerCount: 2
Fore
SplineSet
38 560 m 1,0,-1
 -2 588 l 1,1,2
 42.6923076923 613.538461538 42.6923076923 613.538461538 56 633.5 c 2,3,-1
 61 641 l 1,4,-1
 51 644 l 1,5,6
 33 657 33 657 33.5 675 c 128,-1,7
 34 693 34 693 43.5 701.55 c 128,-1,8
 53 710.1 53 710.1 59.8 710.1 c 128,-1,9
 66.6 710.1 66.6 710.1 73.8 709.55 c 128,-1,10
 81 709 81 709 91.5 697.5 c 128,-1,11
 102.015151515 685.983405483 102.015151515 685.983405483 102.015151515 671.213269054 c 0,12,13
 102.015151515 613.181818182 102.015151515 613.181818182 38 560 c 1,0,-1
EndSplineSet
EndChar

StartChar: parenleft
Encoding: 40 40 9
Width: 281
Flags: HMW
HStem: -198 21G 711 20G 794 21
VStem: 78 56<71 627 627 636>
LayerCount: 2
Fore
SplineSet
201 -82 m 1,0,-1
 183 -119 l 1,1,2
 126 -86 126 -86 102 -46.5 c 128,-1,3
 78 -7 78 -7 78 71 c 2,4,-1
 78 627 l 2,5,6
 78 705 78 705 102 744.5 c 128,-1,7
 126 784 126 784 183 817 c 1,8,-1
 201 780 l 1,9,10
 134 730 134 730 134 636 c 2,11,-1
 134 62 l 2,12,13
 134 -32 134 -32 201 -82 c 1,0,-1
EndSplineSet
EndChar

StartChar: parenright
Encoding: 41 41 10
Width: 281
Flags: HMW
HStem: -198 21G 711 20G
VStem: 98 56
LayerCount: 2
Fore
SplineSet
96 -119 m 1,0,-1
 78 -82 l 1,1,2
 145 -32 145 -32 145 62 c 2,3,-1
 145 636 l 2,4,5
 145 730 145 730 78 780 c 1,6,-1
 96 817 l 1,7,8
 153 784 153 784 177 744.5 c 128,-1,9
 201 705 201 705 201 627 c 2,10,-1
 201 71 l 2,11,12
 201 -7 201 -7 177 -46.5 c 128,-1,13
 153 -86 153 -86 96 -119 c 1,0,-1
EndSplineSet
EndChar

StartChar: asterisk
Encoding: 42 42 11
Width: 352
Flags: HMW
HStem: 694 20G
VStem: 148 53<587 700 587 700>
LayerCount: 2
Fore
SplineSet
285 450 m 1,0,-1
 244 419 l 1,1,-1
 175 515 l 1,2,-1
 110 419 l 1,3,-1
 65 450 l 1,4,-1
 130 541 l 1,5,-1
 24 579 l 1,6,-1
 42 627 l 1,7,-1
 148 587 l 1,8,-1
 148 700 l 1,9,-1
 201 700 l 1,10,-1
 201 587 l 1,11,-1
 308 627 l 1,12,-1
 328 579 l 1,13,-1
 219 541 l 1,14,-1
 285 450 l 1,0,-1
EndSplineSet
EndChar

StartChar: plus
Encoding: 43 43 12
Width: 385
Flags: HMW
HStem: 0 21G 112 321
VStem: 34 320<358 413 358 413> 167 55<225 358 413 545>
LayerCount: 2
Fore
SplineSet
222 225 m 1,0,-1
 167 225 l 1,1,-1
 167 358 l 1,2,-1
 34 358 l 1,3,-1
 34 413 l 1,4,-1
 167 413 l 1,5,-1
 167 545 l 1,6,-1
 222 545 l 1,7,-1
 222 413 l 1,8,-1
 354 413 l 1,9,-1
 354 358 l 1,10,-1
 222 358 l 1,11,-1
 222 225 l 1,0,-1
EndSplineSet
EndChar

StartChar: comma
Encoding: 44 44 13
Width: 159
Flags: HMW
HStem: 0 111
VStem: 46 69<33 36>
LayerCount: 2
Fore
SplineSet
51 -84 m 1,0,-1
 11 -56 l 1,1,2
 55.6923076923 -30.4615384615 55.6923076923 -30.4615384615 69 -10.5 c 2,3,-1
 74 -3 l 1,4,-1
 64 0 l 1,5,6
 46 13 46 13 46.5 31 c 128,-1,7
 47 49 47 49 56.5 57.55 c 128,-1,8
 66 66.1 66 66.1 72.8 66.1 c 128,-1,9
 79.6 66.1 79.6 66.1 86.8 65.55 c 128,-1,10
 94 65 94 65 104.5 53.5 c 128,-1,11
 115.015151515 41.9834054834 115.015151515 41.9834054834 115.015151515 27.2132690542 c 0,12,13
 115.015151515 -30.8181818182 115.015151515 -30.8181818182 51 -84 c 1,0,-1
EndSplineSet
EndChar

StartChar: hyphen
Encoding: 45 45 14
Width: 410
Flags: HMW
HStem: 238 80
VStem: 45 320<358 413 358 413>
LayerCount: 2
Fore
SplineSet
365 358 m 1,0,-1
 45 358 l 1,1,-1
 45 413 l 1,2,-1
 365 413 l 1,3,-1
 365 358 l 1,0,-1
EndSplineSet
EndChar

StartChar: period
Encoding: 46 46 15
Width: 120
Flags: HMW
HStem: 0 111
VStem: 11 66<24 42>
LayerCount: 2
Fore
SplineSet
44 0 m 128,-1,1
 30 0 30 0 20.5 10 c 128,-1,2
 11 20 11 20 11 33 c 128,-1,3
 11 46 11 46 20.5 56 c 128,-1,4
 30 66 30 66 44 66 c 128,-1,5
 58 66 58 66 67.5 56 c 128,-1,6
 77 46 77 46 77 33 c 128,-1,7
 77 20 77 20 67.5 10 c 128,-1,0
 58 0 58 0 44 0 c 128,-1,1
EndSplineSet
EndChar

StartChar: slash
Encoding: 47 47 16
Width: 429
Flags: HMW
HStem: 711 20G
VStem: -16 456
LayerCount: 2
Fore
SplineSet
85 -114 m 1,0,-1
 24 -114 l 1,1,-1
 348 817 l 1,2,-1
 405 817 l 1,3,-1
 85 -114 l 1,0,-1
EndSplineSet
EndChar

StartChar: zero
Encoding: 48 48 17
Width: 549
Flags: HMW
HStem: -12 75 0 42 634 75 663 53<229 317.5>
VStem: 62 21 63 56<185 186 186 507 507 516> 66 53 364 53 428 55<187 506>
LayerCount: 2
Fore
SplineSet
483 506 m 2,0,-1
 483 185 l 2,1,2
 483 84 483 84 421.5 36.5 c 128,-1,3
 360 -11 360 -11 274 -11 c 128,-1,4
 188 -11 188 -11 125.5 36.5 c 128,-1,5
 63 84 63 84 63 185 c 2,6,-1
 63 507 l 2,7,8
 63 610 63 610 119.5 663 c 128,-1,9
 176 716 176 716 275 716 c 128,-1,10
 374 716 374 716 428.5 660 c 128,-1,11
 483 604 483 604 483 506 c 2,0,-1
428 187 m 2,12,-1
 428 516 l 2,13,14
 428 589 428 589 385.5 626 c 128,-1,15
 343 663 343 663 273 663 c 128,-1,16
 203 663 203 663 161 626 c 128,-1,17
 119 589 119 589 119 516 c 2,18,-1
 119 186 l 2,19,20
 119 115 119 115 162.5 78.5 c 128,-1,21
 206 42 206 42 273.5 42 c 0,22,23
 341 42 341 42 384.5 77.5 c 128,-1,24
 428 113 428 113 428 187 c 2,12,-1
EndSplineSet
EndChar

StartChar: one
Encoding: 49 49 18
Width: 209
Flags: HMW
HStem: 0 21G<129 185 129 129> 508 68
VStem: 129 56<0 634 634 634>
LayerCount: 2
Fore
SplineSet
185 0 m 1,0,-1
 129 0 l 1,1,-1
 129 634 l 1,2,3
 113 619 113 619 90 607.5 c 128,-1,4
 67 596 67 596 52 592 c 2,5,-1
 37 588 l 1,6,-1
 24 641 l 1,7,8
 45.5333333333 641 45.5333333333 641 77.2666666667 658 c 128,-1,9
 109 675 109 675 129 700 c 1,10,-1
 185 700 l 1,11,-1
 185 0 l 1,0,-1
EndSplineSet
EndChar

StartChar: two
Encoding: 50 50 19
Width: 399
Flags: HMW
HStem: 0 75 634 75
VStem: 24 65<52 52 52 53 52 53> 313 62
LayerCount: 2
Fore
SplineSet
375 0 m 1,0,-1
 24 0 l 1,1,-1
 24 53 l 1,2,-1
 278 438 l 1,3,4
 313.765957447 496.446808511 313.765957447 496.446808511 313.765957447 541.196016297 c 0,5,6
 313.765957447 597.291223404 313.765957447 597.291223404 278.382978723 627.145611702 c 128,-1,7
 243 657 243 657 203 657 c 128,-1,8
 163 657 163 657 133 633 c 128,-1,9
 103 609 103 609 89 570 c 1,10,-1
 37 590 l 1,11,12
 56 643 56 643 97.5 676.5 c 128,-1,13
 139 710 139 710 205.5 710 c 128,-1,14
 272 710 272 710 320 668 c 0,15,16
 372.885714286 621.725 372.885714286 621.725 372.885714286 554.391071429 c 128,-1,17
 372.885714286 487.057142857 372.885714286 487.057142857 329 413 c 1,18,-1
 89 52 l 1,19,-1
 375 52 l 1,20,-1
 375 0 l 1,0,-1
EndSplineSet
EndChar

StartChar: three
Encoding: 51 51 20
Width: 438
Flags: HMW
HStem: -12 75 634 75
VStem: 24 47<83 113> 97 199 358 56<157.5 243.5>
LayerCount: 2
Fore
SplineSet
24 83 m 1,0,-1
 71 113 l 1,1,2
 117 44 117 44 201 44 c 0,3,4
 266 44 266 44 312 90 c 128,-1,5
 358 136 358 136 358 200 c 0,6,7
 358 264 358 264 314 309.5 c 128,-1,8
 270 355 270 355 207 358 c 1,9,-1
 97 358 l 1,10,-1
 290 645 l 1,11,-1
 71 645 l 1,12,-1
 71 700 l 1,13,-1
 358 700 l 1,14,-1
 358 651 l 1,15,-1
 199 413 l 1,16,-1
 201 413 l 2,17,18
 290 413 290 413 352 351 c 128,-1,19
 414 289 414 289 414 200.5 c 0,20,21
 414 112 414 112 352 50 c 128,-1,22
 290 -12 290 -12 201 -12 c 0,23,24
 147 -12 147 -12 100 13.5 c 128,-1,25
 53 39 53 39 24 83 c 1,0,-1
EndSplineSet
EndChar

StartChar: four
Encoding: 52 52 21
Width: 493
Flags: HMW
HStem: 0 21G<340 396 340 340> 166 75
VStem: 340 56<0 358 413 700>
LayerCount: 2
Fore
SplineSet
396 0 m 1,0,-1
 340 0 l 1,1,-1
 340 358 l 1,2,-1
 24 358 l 1,3,-1
 218 700 l 1,4,-1
 276 700 l 1,5,-1
 120 413 l 1,6,-1
 340 413 l 1,7,-1
 340 700 l 1,8,-1
 396 700 l 1,9,-1
 396 413 l 1,10,-1
 469 413 l 1,11,-1
 450 358 l 1,12,-1
 396 358 l 1,13,-1
 396 0 l 1,0,-1
EndSplineSet
EndChar

StartChar: five
Encoding: 53 53 22
Width: 438
Flags: HMW
HStem: -12 75 392 75 622 75
VStem: 24 47<83 113> 358 56<157.5 244.5>
LayerCount: 2
Fore
SplineSet
24 83 m 1,0,-1
 71 113 l 1,1,2
 117 44 117 44 201 44 c 0,3,4
 266 44 266 44 312 90 c 128,-1,5
 358 136 358 136 358 201 c 128,-1,6
 358 266 358 266 312 312 c 128,-1,7
 266 358 266 358 201 358 c 2,8,-1
 57 358 l 1,9,-1
 93 700 l 1,10,-1
 358 700 l 1,11,-1
 358 645 l 1,12,-1
 142 645 l 1,13,-1
 118 413 l 1,14,-1
 201 413 l 2,15,16
 290 413 290 413 352 351 c 128,-1,17
 414 289 414 289 414 200.5 c 0,18,19
 414 112 414 112 352 50 c 128,-1,20
 290 -12 290 -12 201 -12 c 0,21,22
 147 -12 147 -12 100 13.5 c 128,-1,23
 53 39 53 39 24 83 c 1,0,-1
EndSplineSet
EndChar

StartChar: six
Encoding: 54 54 23
Width: 473
Flags: HMW
HStem: -12 213<24 295>
VStem: 24 55<201 207 332 454> 236 67 236 213
LayerCount: 2
Fore
SplineSet
24 201 m 2,0,-1
 24 461 l 2,1,2
 24 544.037735849 24 544.037735849 74.5 615.5 c 0,3,4
 101 653 101 653 151 676.5 c 128,-1,5
 201 700 201 700 268 700 c 2,6,-1
 303 700 l 1,7,-1
 303 645 l 1,8,-1
 264 645 l 2,9,10
 189 645 189 645 134 596.5 c 128,-1,11
 79 548 79 548 79 454 c 2,12,-1
 79 332 l 1,13,14
 100 370 100 370 142.5 391.5 c 128,-1,15
 185 413 185 413 236 413 c 0,16,17
 325 413 325 413 387 351 c 128,-1,18
 449 289 449 289 449 200.5 c 128,-1,19
 449 112 449 112 386.5 50 c 128,-1,20
 324 -12 324 -12 236 -12 c 128,-1,21
 148 -12 148 -12 86 50 c 128,-1,22
 24 112 24 112 24 201 c 2,0,-1
79 207 m 1,23,-1
 79 201 l 2,24,25
 79 135 79 135 124.5 89 c 128,-1,26
 170 43 170 43 236 43 c 128,-1,27
 302 43 302 43 348 89 c 128,-1,28
 394 135 394 135 394 201 c 128,-1,29
 394 267 394 267 348 312.5 c 128,-1,30
 302 358 302 358 237 358 c 128,-1,31
 172 358 172 358 126.5 314.5 c 128,-1,32
 81 271 81 271 79 207 c 1,23,-1
EndSplineSet
EndChar

StartChar: seven
Encoding: 55 55 24
Width: 442
Flags: HMW
HStem: 0 21G<37 99 37 37> 645 55<24 354 24 418 24 418>
VStem: 24 394<645 700 645 700>
LayerCount: 2
Fore
SplineSet
99 0 m 1,0,-1
 37 0 l 1,1,-1
 354 645 l 1,2,-1
 24 645 l 1,3,-1
 24 700 l 1,4,-1
 418 700 l 1,5,-1
 418 645 l 1,6,-1
 99 0 l 1,0,-1
EndSplineSet
EndChar

StartChar: eight
Encoding: 56 56 25
Width: 474
Flags: HMW
HStem: -12 75 358 55 381 21G 634 75
VStem: 24 209 63 175 80 370<157.5 241.5 142 243.5> 394 20
LayerCount: 2
Fore
SplineSet
230 358 m 1,0,1
 167 355 167 355 123.5 310 c 128,-1,2
 80 265 80 265 80 200.5 c 0,3,4
 80 136 80 136 126 90 c 128,-1,5
 172 44 172 44 237 44 c 128,-1,6
 302 44 302 44 348 90 c 128,-1,7
 394 136 394 136 394 200.5 c 0,8,9
 394 265 394 265 348 310 c 128,-1,10
 302 355 302 355 230 358 c 1,0,1
337 388 m 1,11,12
 388 360 388 360 419 310.5 c 128,-1,13
 450 261 450 261 450 201 c 0,14,15
 450 112 450 112 388 50 c 128,-1,16
 326 -12 326 -12 237 -12 c 128,-1,17
 148 -12 148 -12 86 50 c 128,-1,18
 24 112 24 112 24 201 c 0,19,20
 24 262 24 262 55 312 c 128,-1,21
 86 362 86 362 138 389 c 1,22,23
 63 440 63 440 63 533 c 0,24,25
 63 606 63 606 114 657.5 c 128,-1,26
 165 709 165 709 238.5 709 c 0,27,28
 312 709 312 709 363 657.5 c 128,-1,29
 414 606 414 606 414 533 c 0,30,31
 414 439 414 439 337 388 c 1,11,12
233 413 m 1,32,33
 287 413 287 413 323.5 448 c 128,-1,34
 360 483 360 483 360 533.5 c 0,35,36
 360 584 360 584 324 620 c 128,-1,37
 288 656 288 656 237.5 656 c 0,38,39
 187 656 187 656 151 620 c 128,-1,40
 115 584 115 584 115 534 c 0,41,42
 115 484 115 484 149 449.5 c 128,-1,43
 183 415 183 415 233 413 c 1,32,33
EndSplineSet
EndChar

StartChar: nine
Encoding: 57 57 26
Width: 473
Flags: HMW
HStem: -12 75 241 75 634 75
VStem: 24 213 170 67 394 55<246 353 353 353 454 497>
LayerCount: 2
Fore
SplineSet
205 0 m 2,0,-1
 170 0 l 1,1,-1
 170 55 l 1,2,-1
 209 55 l 2,3,4
 284 55 284 55 339 103.5 c 128,-1,5
 394 152 394 152 394 246 c 2,6,-1
 394 353 l 1,7,8
 331 285 331 285 239.5 285 c 128,-1,9
 148 285 148 285 86 347 c 128,-1,10
 24 409 24 409 24 497.5 c 128,-1,11
 24 586 24 586 86 648 c 128,-1,12
 148 710 148 710 236.5 710 c 128,-1,13
 325 710 325 710 387 648 c 128,-1,14
 449 586 449 586 449 497 c 2,15,-1
 449 239 l 2,16,17
 449 155.962264151 449 155.962264151 398.5 84.5 c 0,18,19
 372 47 372 47 322 23.5 c 128,-1,20
 272 0 272 0 205 0 c 2,0,-1
237 340 m 128,-1,22
 303 340 303 340 348.5 385.5 c 128,-1,23
 394 431 394 431 394 498.5 c 128,-1,24
 394 566 394 566 348 610.5 c 128,-1,25
 302 655 302 655 236.5 655 c 128,-1,26
 171 655 171 655 125 609 c 128,-1,27
 79 563 79 563 79 497 c 128,-1,28
 79 431 79 431 125 385.5 c 128,-1,21
 171 340 171 340 237 340 c 128,-1,22
EndSplineSet
EndChar

StartChar: colon
Encoding: 58 58 27
Width: 114
Flags: HMW
HStem: 0 111 406 111
VStem: 8 21 24 66<135 153 376 394>
LayerCount: 2
Fore
SplineSet
57 352 m 128,-1,1
 44 352 44 352 34 362 c 128,-1,2
 24 372 24 372 24 385 c 128,-1,3
 24 398 24 398 34 408 c 128,-1,4
 44 418 44 418 57 418 c 128,-1,5
 70 418 70 418 80 408 c 128,-1,6
 90 398 90 398 90 385 c 128,-1,7
 90 372 90 372 80 362 c 128,-1,0
 70 352 70 352 57 352 c 128,-1,1
57 111 m 128,-1,9
 44 111 44 111 34 120.5 c 128,-1,10
 24 130 24 130 24 144 c 128,-1,11
 24 158 24 158 34 167.5 c 128,-1,12
 44 177 44 177 57 177 c 128,-1,13
 70 177 70 177 80 167.5 c 128,-1,14
 90 158 90 158 90 144 c 128,-1,15
 90 130 90 130 80 120.5 c 128,-1,8
 70 111 70 111 57 111 c 128,-1,9
EndSplineSet
EndChar

StartChar: semicolon
Encoding: 59 59 28
Width: 153
Flags: HMW
HStem: 0 111 406 111
VStem: 61 66<265 283>
LayerCount: 2
Fore
SplineSet
94 241 m 128,-1,1
 80 241 80 241 70.5 250.5 c 128,-1,2
 61 260 61 260 61 274 c 128,-1,3
 61 288 61 288 70.5 297.5 c 128,-1,4
 80 307 80 307 94 307 c 128,-1,5
 108 307 108 307 117.5 297.5 c 128,-1,6
 127 288 127 288 127 274 c 128,-1,7
 127 260 127 260 117.5 250.5 c 128,-1,0
 108 241 108 241 94 241 c 128,-1,1
64 -84 m 1,8,-1
 24 -56 l 1,9,10
 68.6923076923 -30.4615384615 68.6923076923 -30.4615384615 82 -10.5 c 2,11,-1
 87 -3 l 1,12,-1
 77 0 l 1,13,14
 59 13 59 13 59.5 31 c 128,-1,15
 60 49 60 49 69.5 57.55 c 128,-1,16
 79 66.1 79 66.1 85.8 66.1 c 128,-1,17
 92.6 66.1 92.6 66.1 99.8 65.55 c 128,-1,18
 107 65 107 65 117.5 53.5 c 128,-1,19
 128.015151515 41.9834054834 128.015151515 41.9834054834 128.015151515 27.2132690542 c 0,20,21
 128.015151515 -30.8181818182 128.015151515 -30.8181818182 64 -84 c 1,8,-1
EndSplineSet
EndChar

StartChar: less
Encoding: 60 60 29
Width: 365
Flags: HMW
HStem: -8 21G
VStem: 24 317<118 359 118 359>
LayerCount: 2
Fore
SplineSet
341 118 m 1,0,-1
 302 80 l 1,1,-1
 24 358 l 1,2,-1
 24 359 l 1,3,-1
 302 637 l 1,4,-1
 341 599 l 1,5,-1
 100 358 l 1,6,-1
 341 118 l 1,0,-1
EndSplineSet
EndChar

StartChar: equal
Encoding: 61 61 30
Width: 368
Flags: HMW
HStem: 133 80 238 80
VStem: 24 320<253 308 253 308 358 413 253 413>
LayerCount: 2
Fore
SplineSet
344 358 m 1,0,-1
 24 358 l 1,1,-1
 24 413 l 1,2,-1
 344 413 l 1,3,-1
 344 358 l 1,0,-1
344 253 m 1,4,-1
 24 253 l 1,5,-1
 24 308 l 1,6,-1
 344 308 l 1,7,-1
 344 253 l 1,4,-1
EndSplineSet
EndChar

StartChar: greater
Encoding: 62 62 31
Width: 365
Flags: HMW
HStem: -8 21G
VStem: -42 313 24 317<118 359 358 599>
LayerCount: 2
Fore
SplineSet
63 80 m 1,0,-1
 24 118 l 1,1,-1
 265 358 l 1,2,-1
 24 599 l 1,3,-1
 63 637 l 1,4,-1
 341 359 l 1,5,-1
 341 358 l 1,6,-1
 63 80 l 1,0,-1
EndSplineSet
EndChar

StartChar: question
Encoding: 63 63 32
Width: 403
Flags: HMW
HStem: 33 86 656 75
VStem: 24 56<532 575 532 578.5> 164 51<119 144.5 144.5 182 119 212> 320 59
LayerCount: 2
Fore
SplineSet
215 119 m 1,0,-1
 164 119 l 1,1,-1
 164 212 l 2,2,3
 164 258 164 258 177.5 294.5 c 128,-1,4
 191 331 191 331 207 350.5 c 128,-1,5
 223 370 223 370 248.5 396.5 c 128,-1,6
 274 423 274 423 286 440 c 0,7,8
 318.810126582 491.037974684 318.810126582 491.037974684 318.810126582 535.430860439 c 0,9,10
 318.810126582 588.360476101 318.810126582 588.360476101 283.405063291 622.18023805 c 128,-1,11
 248 656 248 656 199.5 656 c 128,-1,12
 151 656 151 656 115.5 624.5 c 128,-1,13
 80 593 80 593 80 532 c 1,14,-1
 24 532 l 1,15,16
 24 607 24 607 70.5 658 c 128,-1,17
 117 709 117 709 202 709 c 0,18,19
 254 709 254 709 296 682.5 c 0,20,21
 377.99 630.768214286 377.99 630.768214286 377.99 536.595 c 0,22,23
 377.99 474.803636364 377.99 474.803636364 341 421 c 0,24,25
 322 394 322 394 295 366.5 c 128,-1,26
 268 339 268 339 253.5 323 c 128,-1,27
 239 307 239 307 227.5 271.5 c 128,-1,28
 216 236 216 236 215 182 c 1,29,-1
 215 119 l 1,0,-1
189 0 m 128,-1,31
 176 0 176 0 166 10 c 128,-1,32
 156 20 156 20 156 33 c 128,-1,33
 156 46 156 46 166 56 c 128,-1,34
 176 66 176 66 189 66 c 128,-1,35
 202 66 202 66 212 56 c 128,-1,36
 222 46 222 46 222 33 c 128,-1,37
 222 20 222 20 212 10 c 128,-1,30
 202 0 202 0 189 0 c 128,-1,31
EndSplineSet
EndChar

StartChar: at
Encoding: 64 64 33
Width: 707
Flags: HMW
HStem: -17 55 131 68 133 55 505 68 676 55
VStem: 31 68 174 75 444 68 674 68
LayerCount: 2
Fore
SplineSet
320.232638889 54.4583333333 m 0,0,1
 157.942073171 54.4583333333 157.942073171 54.4583333333 147 204 c 1,2,-1
 147 305 l 2,3,4
 147 416 147 416 235 449 c 0,5,6
 269.252427184 461.582524272 269.252427184 461.582524272 308.635592422 461.582524272 c 0,7,8
 381.932038835 461.582524272 381.932038835 461.582524272 473 418 c 1,9,10
 467 476 467 476 425.5 502 c 128,-1,11
 384 528 384 528 329 528 c 128,-1,12
 274 528 274 528 234 519.5 c 128,-1,13
 194 511 194 511 157.5 491 c 0,14,15
 80 448.534246575 80 448.534246575 80 342 c 2,16,-1
 80 190 l 2,17,18
 80 119 80 119 115.5 72.5 c 128,-1,19
 151 26 151 26 203.5 7.5 c 128,-1,20
 256 -11 256 -11 323 -11 c 0,21,22
 439 -11 439 -11 517 34 c 128,-1,23
 595 79 595 79 595 162 c 2,24,-1
 595 345 l 2,25,26
 595 417.924053627 595 417.924053627 605.146439991 441.568379955 c 0,27,28
 621.837313816 477.116454697 621.837313816 477.116454697 668 492 c 1,29,-1
 683 454 l 1,30,31
 649 439 649 439 649 384 c 2,32,-1
 650 171 l 2,33,34
 650 108 650 108 619.5 60 c 128,-1,35
 589 12 589 12 539 -14 c 0,36,37
 438.73973395 -66.1353383459 438.73973395 -66.1353383459 316.896182765 -66.1353383459 c 128,-1,38
 195.052631579 -66.1353383459 195.052631579 -66.1353383459 109.526315789 -4.06766917293 c 128,-1,39
 24 58 24 58 24 183 c 2,40,-1
 24 342 l 2,41,42
 24 397 24 397 42 440 c 128,-1,43
 60 483 60 483 90.5 508 c 0,44,45
 145.171861086 552.81300089 145.171861086 552.81300089 203.085930543 565.906500445 c 128,-1,46
 261 579 261 579 313.5 579 c 128,-1,47
 366 579 366 579 417 565 c 128,-1,48
 468 551 468 551 500 508.5 c 128,-1,49
 532 466 532 466 532 399 c 1,50,-1
 569 383 l 1,51,-1
 569 334 l 1,52,-1
 532 350 l 1,53,-1
 532 91 l 1,54,55
 395.799242424 54.4583333333 395.799242424 54.4583333333 320.232638889 54.4583333333 c 0,0,1
476 367 m 1,56,57
 388.744497608 409.509090909 388.744497608 409.509090909 303.36892562 409.509090909 c 0,58,59
 259.472727273 409.509090909 259.472727273 409.509090909 230.736363636 382.754545455 c 128,-1,60
 202 356 202 356 202 302 c 2,61,-1
 202 204 l 1,62,63
 203 129 203 129 276 110 c 0,64,65
 298.737704918 104.081967213 298.737704918 104.081967213 326.714324106 104.081967213 c 0,66,67
 388.557377049 104.081967213 388.557377049 104.081967213 476 133 c 1,68,-1
 476 367 l 1,56,57
EndSplineSet
EndChar

StartChar: A
Encoding: 65 65 34
Width: 527
Flags: HMW
HStem: 0 21G<12 71 12 12 457 517 457 457> 280 20G<165 362 362 362>
VStem: 71 386<0 0>
LayerCount: 2
Fore
SplineSet
517 0 m 1,0,-1
 457 0 l 1,1,-1
 377 245 l 1,2,-1
 149 245 l 1,3,-1
 71 0 l 1,4,-1
 12 0 l 1,5,-1
 236 700 l 1,6,-1
 289 700 l 1,7,-1
 517 0 l 1,0,-1
362 300 m 1,8,-1
 262 613 l 1,9,-1
 165 300 l 1,10,-1
 362 300 l 1,8,-1
EndSplineSet
EndChar

StartChar: B
Encoding: 66 66 35
Width: 544
Flags: HMW
HStem: 53 0<134 134 306 306> 413 0<134 134 297 297> 647 67
VStem: 78 56<53 53 53 358 413 647> 134 341<53 589.5 413 589.5 510.5 589.5 510.5 647> 134 377<53 261 161.5 261 161.5 358 161.5 413 161.5 647>
LayerCount: 2
Fore
SplineSet
308 0 m 2,0,-1
 78 0 l 1,1,-1
 78 700 l 1,2,-1
 299 700 l 2,3,4
 381 700 381 700 428 658 c 128,-1,5
 475 616 475 616 475 527.5 c 128,-1,6
 475 439 475 439 409 394 c 0,7,8
 408 393 408 393 408 392 c 2,9,-1
 408 391 l 1,10,11
 452 371 452 371 481.5 326 c 128,-1,12
 511 281 511 281 511 209 c 0,13,14
 511 128.837209302 511 128.837209302 470.5 69.5 c 0,15,16
 449 38 449 38 407.5 19 c 128,-1,17
 366 0 366 0 308 0 c 2,0,-1
134 413 m 1,18,-1
 297 413 l 2,19,20
 353 413 353 413 385 443 c 128,-1,21
 417 473 417 473 417 530 c 0,22,23
 417 647 417 647 291 647 c 2,24,-1
 134 647 l 1,25,-1
 134 413 l 1,18,-1
134 53 m 1,26,-1
 306 53 l 2,27,28
 451 53 451 53 451 213 c 0,29,30
 451 283 451 283 413 320.5 c 128,-1,31
 375 358 375 358 323 358 c 2,32,-1
 134 358 l 1,33,-1
 134 53 l 1,26,-1
EndSplineSet
EndChar

StartChar: C
Encoding: 67 67 36
Width: 436
Flags: HMW
HStem: -12 52 659 51
VStem: 66 56<183 185 185 504 504 513>
LayerCount: 2
Fore
SplineSet
427 23 m 1,0,1
 341.745951417 -10.0576923077 341.745951417 -10.0576923077 265.350591716 -10.0576923077 c 0,2,3
 248.615384615 -10.0576923077 248.615384615 -10.0576923077 216.307692308 -7.02884615385 c 128,-1,4
 184 -4 184 -4 147.5 15.5 c 128,-1,5
 111 35 111 35 88.5 77.5 c 128,-1,6
 66 120 66 120 66 183 c 2,7,-1
 66 504 l 2,8,9
 66 580 66 580 87.5 619 c 128,-1,10
 109 658 109 658 153 685 c 1,11,12
 198.161290323 710.290322581 198.161290323 710.290322581 259.638917794 710.290322581 c 0,13,14
 336.529032258 710.290322581 336.529032258 710.290322581 402 677 c 1,15,-1
 386 639 l 1,16,17
 329 660 329 660 278 660 c 0,18,19
 122 660 122 660 122 513 c 2,20,-1
 122 185 l 2,21,22
 122 54.2 122 54.2 249 41.5 c 0,23,24
 259.180722892 40.4819277108 259.180722892 40.4819277108 270.244592829 40.4819277108 c 0,25,26
 329.819277108 40.4819277108 329.819277108 40.4819277108 415 70 c 1,27,-1
 427 23 l 1,0,1
EndSplineSet
EndChar

StartChar: D
Encoding: 68 68 37
Width: 576
Flags: HMW
HStem: 0 650<134 276 134 286 78 276> 190 511<78 442>
VStem: 78 364<190 484 484 545 190 701 190 701> 270 228<50 200>
LayerCount: 2
Fore
SplineSet
286 0 m 2,0,-1
 78 0 l 1,1,-1
 78 701 l 1,2,-1
 266 701 l 2,3,4
 379 701 379 701 438.5 639 c 128,-1,5
 498 577 498 577 498 474 c 2,6,-1
 498 200 l 2,7,8
 498 0 498 0 286 0 c 2,0,-1
442 190 m 2,9,-1
 442 484 l 2,10,11
 442 568 442 568 392 609 c 128,-1,12
 342 650 342 650 276 650 c 2,13,-1
 134 650 l 1,14,-1
 134 50 l 1,15,-1
 270 50 l 2,16,17
 442 50 442 50 442 190 c 2,9,-1
EndSplineSet
EndChar

StartChar: E
Encoding: 69 69 38
Width: 465
Flags: HMW
HStem: 0 50<134 410 134 410> 648 52<134 412 134 134>
VStem: 78 56<50 358 413 648>
LayerCount: 2
Fore
SplineSet
410 0 m 1,0,-1
 78 0 l 1,1,-1
 78 700 l 1,2,-1
 412 700 l 1,3,-1
 412 648 l 1,4,-1
 134 648 l 1,5,-1
 134 413 l 1,6,-1
 325 413 l 1,7,-1
 306 358 l 1,8,-1
 134 358 l 1,9,-1
 134 50 l 1,10,-1
 410 50 l 1,11,-1
 410 0 l 1,0,-1
EndSplineSet
EndChar

StartChar: F
Encoding: 70 70 39
Width: 445
Flags: HMW
HStem: 647 53<134 412 134 134>
VStem: 78 56<0 358 413 647> 568 21
LayerCount: 2
Fore
SplineSet
134 0 m 1,0,-1
 78 0 l 1,1,-1
 78 700 l 1,2,-1
 412 700 l 1,3,-1
 412 647 l 1,4,-1
 134 647 l 1,5,-1
 134 413 l 1,6,-1
 305 413 l 1,7,-1
 282 358 l 1,8,-1
 134 358 l 1,9,-1
 134 0 l 1,0,-1
EndSplineSet
EndChar

StartChar: G
Encoding: 71 71 40
Width: 537
Flags: HMW
HStem: -10 51 0 21G<435 476 435 435> 659 51
VStem: 65 56<189 503 503 512> 421 55<41 41>
LayerCount: 2
Fore
SplineSet
476 0 m 1,0,-1
 435 0 l 1,1,-1
 421 41 l 1,2,3
 369 -10 369 -10 278.5 -10 c 128,-1,4
 188 -10 188 -10 126.5 40 c 128,-1,5
 65 90 65 90 65 189 c 2,6,-1
 65 503 l 2,7,8
 65 631 65 631 152 684 c 1,9,10
 197.161290323 709.290322581 197.161290323 709.290322581 258.638917794 709.290322581 c 0,11,12
 335.529032258 709.290322581 335.529032258 709.290322581 401 676 c 1,13,-1
 385 638 l 1,14,15
 328 659 328 659 277 659 c 0,16,17
 121 659 121 659 121 512 c 2,18,-1
 121 187 l 2,19,20
 121 120 121 120 164.5 82 c 128,-1,21
 208 44 208 44 275.5 44 c 128,-1,22
 343 44 343 44 383 83 c 128,-1,23
 423 122 423 122 423 186 c 2,24,-1
 423 245 l 1,25,-1
 357 245 l 1,26,-1
 338 300 l 1,27,-1
 476 300 l 1,28,-1
 476 0 l 1,0,-1
EndSplineSet
EndChar

StartChar: H
Encoding: 72 72 41
Width: 588
Flags: HMW
VStem: 78 56<0 358 0 413 413 700> 79 21 452 56<0 358 358 358 413 700>
LayerCount: 2
Fore
SplineSet
508 0 m 1,0,-1
 452 0 l 1,1,-1
 452 358 l 1,2,-1
 134 358 l 1,3,-1
 134 0 l 1,4,-1
 78 0 l 1,5,-1
 78 700 l 1,6,-1
 134 700 l 1,7,-1
 134 413 l 1,8,-1
 452 413 l 1,9,-1
 452 700 l 1,10,-1
 508 700 l 1,11,-1
 508 0 l 1,0,-1
EndSplineSet
EndChar

StartChar: I
Encoding: 73 73 42
Width: 264
Flags: HMW
VStem: 133 56<0 649 649 649>
LayerCount: 2
Fore
SplineSet
189 0 m 1,0,-1
 133 0 l 1,1,-1
 133 649 l 1,2,-1
 66 651 l 1,3,-1
 66 700 l 1,4,-1
 189 700 l 1,5,-1
 189 0 l 1,0,-1
EndSplineSet
EndChar

StartChar: J
Encoding: 74 74 43
Width: 196
Flags: HMW
HStem: -17 80
VStem: 96 57<114 118 118 649 649 649> 381 21
LayerCount: 2
Fore
SplineSet
27 -37 m 1,0,-1
 14 0 l 1,1,2
 47 0 47 0 71.5 27 c 128,-1,3
 96 54 96 54 96 114 c 2,4,-1
 96 649 l 1,5,-1
 29 651 l 1,6,-1
 29 700 l 1,7,-1
 153 700 l 1,8,-1
 153 118 l 2,9,10
 153 44 153 44 119.5 3.5 c 128,-1,11
 86 -37 86 -37 27 -37 c 1,0,-1
EndSplineSet
EndChar

StartChar: K
Encoding: 75 75 44
Width: 475
Flags: HMW
HStem: 0 21G<79 135 79 79 409 476 409 409> 694 20G
VStem: 79 56<0 269 367 701>
LayerCount: 2
Fore
SplineSet
476 0 m 1,0,-1
 409 0 l 1,1,-1
 183 345 l 1,2,-1
 135 269 l 1,3,-1
 135 0 l 1,4,-1
 79 0 l 1,5,-1
 79 701 l 1,6,-1
 135 701 l 1,7,-1
 135 367 l 1,8,-1
 359 701 l 1,9,-1
 424 701 l 1,10,-1
 219 398 l 1,11,-1
 476 0 l 1,0,-1
EndSplineSet
EndChar

StartChar: L
Encoding: 76 76 45
Width: 440
Flags: HMW
HStem: 0 80 694 20G
VStem: 78 95
LayerCount: 2
Fore
SplineSet
439 0 m 1,0,-1
 78 0 l 1,1,-1
 78 700 l 1,2,-1
 134 700 l 1,3,-1
 134 50 l 1,4,-1
 439 50 l 1,5,-1
 439 0 l 1,0,-1
EndSplineSet
EndChar

StartChar: M
Encoding: 77 77 46
Width: 694
Flags: HMW
HStem: 0 21G<78 134 78 78 315 376 315 315 558 614 558 558> 0 86<345 345 345 376 315 345> 535 165<78 134>
VStem: 78 56<0 535 0 700> 558 56<0 535 535 535>
LayerCount: 2
Fore
SplineSet
614 0 m 1,0,-1
 558 0 l 1,1,-1
 558 535 l 1,2,-1
 376 0 l 1,3,-1
 315 0 l 1,4,-1
 134 535 l 1,5,-1
 134 0 l 1,6,-1
 78 0 l 1,7,-1
 78 700 l 1,8,-1
 134 700 l 1,9,-1
 345 86 l 1,10,-1
 558 700 l 1,11,-1
 614 700 l 1,12,-1
 614 0 l 1,0,-1
EndSplineSet
EndChar

StartChar: N
Encoding: 78 78 47
Width: 650
Flags: HMW
HStem: 0 103<514 570 514 514> 597 103<78 134>
VStem: -189 21 78 56<0 597 0 700> 514 56<0 0 103 700>
LayerCount: 2
Fore
SplineSet
570 0 m 1,0,-1
 514 0 l 1,1,-1
 134 597 l 1,2,-1
 134 0 l 1,3,-1
 78 0 l 1,4,-1
 78 700 l 1,5,-1
 134 700 l 1,6,-1
 514 103 l 1,7,-1
 514 700 l 1,8,-1
 570 700 l 1,9,-1
 570 0 l 1,0,-1
EndSplineSet
EndChar

StartChar: O
Encoding: 79 79 48
Width: 549
Flags: HMW
HStem: 0 42 663 53<229 317.5>
VStem: 62 21 63 56<185 186 186 507 507 516> 428 55<187 506>
LayerCount: 2
Fore
SplineSet
483 506 m 2,0,-1
 483 185 l 2,1,2
 483 84 483 84 421.5 36.5 c 128,-1,3
 360 -11 360 -11 274 -11 c 128,-1,4
 188 -11 188 -11 125.5 36.5 c 128,-1,5
 63 84 63 84 63 185 c 2,6,-1
 63 507 l 2,7,8
 63 610 63 610 119.5 663 c 128,-1,9
 176 716 176 716 275 716 c 128,-1,10
 374 716 374 716 428.5 660 c 128,-1,11
 483 604 483 604 483 506 c 2,0,-1
428 187 m 2,12,-1
 428 516 l 2,13,14
 428 589 428 589 385.5 626 c 128,-1,15
 343 663 343 663 273 663 c 128,-1,16
 203 663 203 663 161 626 c 128,-1,17
 119 589 119 589 119 516 c 2,18,-1
 119 186 l 2,19,20
 119 115 119 115 162.5 78.5 c 128,-1,21
 206 42 206 42 273.5 42 c 0,22,23
 341 42 341 42 384.5 77.5 c 128,-1,24
 428 113 428 113 428 187 c 2,12,-1
EndSplineSet
EndChar

StartChar: P
Encoding: 80 80 49
Width: 545
Flags: HMW
HStem: 0 21G<78 134 78 78> 0 647<78 328 78 328>
VStem: 78 21<0 700 700 700> 134 0<0 0 245 245 300 300 647 647> 324 132
LayerCount: 2
Fore
SplineSet
134 300 m 1,0,-1
 332 300 l 2,1,2
 368 300 368 300 393 314.5 c 128,-1,3
 418 329 418 329 430 347 c 128,-1,4
 442 365 442 365 448.5 395.5 c 0,5,6
 456 430.692307692 456 430.692307692 456 486 c 0,7,8
 456 567 456 567 421.5 607 c 128,-1,9
 387 647 387 647 328 647 c 2,10,-1
 134 647 l 1,11,-1
 134 300 l 1,0,-1
134 0 m 1,12,-1
 78 0 l 1,13,-1
 78 700 l 1,14,-1
 324 700 l 2,15,16
 419 700 419 700 465.5 642 c 128,-1,17
 512 584 512 584 512 486 c 0,18,19
 512 451 512 451 510.5 426.5 c 128,-1,20
 509 402 509 402 499 364.5 c 128,-1,21
 489 327 489 327 471 303.5 c 128,-1,22
 453 280 453 280 417 262.5 c 128,-1,23
 381 245 381 245 331 245 c 2,24,-1
 134 245 l 1,25,-1
 134 0 l 1,12,-1
EndSplineSet
EndChar

StartChar: Q
Encoding: 81 81 50
Width: 549
Flags: HMW
HStem: -94 83 44 21G 663 53<229 317.5>
VStem: 63 56<185 186 186 507 507 516> 244 184<-94 174> 428 55<187 506>
LayerCount: 2
Fore
SplineSet
428 -40 m 1,0,-1
 428 -94 l 1,1,2
 308 -94 308 -94 266 -11 c 1,3,4
 188.117824773 -9.00302114804 188.117824773 -9.00302114804 128.5 34 c 0,5,6
 98 56 98 56 80.5 95 c 128,-1,7
 63 134 63 134 63 185 c 2,8,-1
 63 507 l 2,9,10
 63 610 63 610 119.5 663 c 128,-1,11
 176 716 176 716 275 716 c 128,-1,12
 374 716 374 716 428.5 660 c 128,-1,13
 483 604 483 604 483 506 c 2,14,-1
 483 185 l 2,15,16
 483 98 483 98 437.5 51.5 c 128,-1,17
 392 5 392 5 322 -7 c 1,18,19
 349.2 -40.0285714286 349.2 -40.0285714286 423.583673469 -40.0285714286 c 0,20,21
 425.771428571 -40.0285714286 425.771428571 -40.0285714286 428 -40 c 1,0,-1
428 187 m 2,22,-1
 428 516 l 2,23,24
 428 589 428 589 385.5 626 c 128,-1,25
 343 663 343 663 273 663 c 128,-1,26
 203 663 203 663 161 626 c 128,-1,27
 119 589 119 589 119 516 c 2,28,-1
 119 186 l 2,29,30
 119 122 119 122 154.5 85.5 c 128,-1,31
 190 49 190 49 248 43 c 1,32,33
 244 67 244 67 244 101 c 2,34,-1
 244 174 l 1,35,-1
 300 174 l 1,36,-1
 300 102 l 2,37,38
 300 61 300 61 303 44 c 1,39,40
 360 51 360 51 394 86.5 c 128,-1,41
 428 122 428 122 428 187 c 2,22,-1
EndSplineSet
EndChar

StartChar: R
Encoding: 82 82 51
Width: 564
Flags: HMW
HStem: 300 400<134 324 324 332 332 390 78 394.5>
VStem: 78 56<0 245 300 647> 134 378<0 548 451.5 548 451.5 647 300 548>
LayerCount: 2
Fore
SplineSet
513 0 m 1,0,-1
 456 0 l 1,1,-1
 371 248 l 1,2,3
 353 245 353 245 331 245 c 2,4,-1
 134 245 l 1,5,-1
 134 0 l 1,6,-1
 78 0 l 1,7,-1
 78 700 l 1,8,-1
 324 700 l 2,9,10
 419 700 419 700 465.5 642 c 128,-1,11
 512 584 512 584 512 486 c 0,12,13
 512 439 512 439 508.5 406 c 128,-1,14
 505 373 505 373 484 329.5 c 128,-1,15
 463 286 463 286 424 265 c 1,16,-1
 513 0 l 1,0,-1
134 300 m 1,17,-1
 332 300 l 2,18,19
 368 300 368 300 393 314.5 c 128,-1,20
 418 329 418 329 430 347 c 128,-1,21
 442 365 442 365 448.5 395.5 c 0,22,23
 456 430.692307692 456 430.692307692 456 486 c 0,24,25
 456 567 456 567 421.5 607 c 128,-1,26
 387 647 387 647 328 647 c 2,27,-1
 134 647 l 1,28,-1
 134 300 l 1,17,-1
EndSplineSet
EndChar

StartChar: S
Encoding: 83 83 52
Width: 561
Flags: HMW
HStem: -17 80 651 80
VStem: 37 57<178 178> 55 58<451 574 451 580> 409 17 452 60<134.5 285>
LayerCount: 2
Fore
SplineSet
37 178 m 1,0,-1
 94 178 l 1,1,2
 99 125 99 125 147.5 84 c 128,-1,3
 196 43 196 43 272 43 c 128,-1,4
 348 43 348 43 400 77.5 c 128,-1,5
 452 112 452 112 452 187 c 0,6,7
 452 233 452 233 422.5 265.5 c 128,-1,8
 393 298 393 298 349 315 c 128,-1,9
 305 332 305 332 253.5 351.5 c 128,-1,10
 202 371 202 371 158 390 c 128,-1,11
 114 409 114 409 84.5 447 c 128,-1,12
 55 485 55 485 55 538 c 0,13,14
 55 608 55 608 113 659 c 128,-1,15
 171 710 171 710 280 710 c 0,16,17
 363 710 363 710 426 680 c 1,18,19
 426 678 426 678 409 627 c 1,20,21
 352 656 352 656 278.5 656 c 128,-1,22
 205 656 205 656 159 624 c 128,-1,23
 113 592 113 592 113 535 c 0,24,25
 113 471.114285714 113 471.114285714 192 435 c 0,26,27
 227 419 227 419 269.5 405 c 128,-1,28
 312 391 312 391 355 374 c 128,-1,29
 398 357 398 357 433 335.5 c 128,-1,30
 468 314 468 314 490 277 c 128,-1,31
 512 240 512 240 512 192 c 0,32,33
 512 100 512 100 453.5 44.5 c 128,-1,34
 395 -11 395 -11 279.5 -11 c 128,-1,35
 164 -11 164 -11 101.5 46.5 c 128,-1,36
 39 104 39 104 37 178 c 1,0,-1
EndSplineSet
EndChar

StartChar: T
Encoding: 84 84 53
Width: 402
Flags: HMW
HStem: 0 21G<170 226 170 170> 634 80
VStem: -171 21 170 56<0 650>
LayerCount: 2
Fore
SplineSet
226 0 m 1,0,-1
 170 0 l 1,1,-1
 170 650 l 1,2,-1
 0 650 l 1,3,-1
 0 700 l 1,4,-1
 402 700 l 1,5,-1
 402 650 l 1,6,-1
 226 650 l 1,7,-1
 226 0 l 1,0,-1
EndSplineSet
EndChar

StartChar: U
Encoding: 85 85 54
Width: 566
Flags: HMW
HStem: -17 80 694 20G
VStem: 74 56<186 701> 439 56<178 186 186 701>
LayerCount: 2
Fore
SplineSet
439 178 m 2,0,-1
 439 701 l 1,1,-1
 495 701 l 1,2,-1
 495 186 l 2,3,4
 495 133 495 133 476.5 94 c 128,-1,5
 458 55 458 55 426.5 34 c 128,-1,6
 395 13 395 13 360 3 c 128,-1,7
 325 -7 325 -7 285 -7 c 128,-1,8
 245 -7 245 -7 209.5 3 c 128,-1,9
 174 13 174 13 142.5 34 c 128,-1,10
 111 55 111 55 92.5 94 c 128,-1,11
 74 133 74 133 74 186 c 2,12,-1
 74 701 l 1,13,-1
 130 701 l 1,14,-1
 130 178 l 2,15,16
 130 117 130 117 174.5 80 c 128,-1,17
 219 43 219 43 284 43 c 128,-1,18
 349 43 349 43 394 80 c 128,-1,19
 439 117 439 117 439 178 c 2,0,-1
EndSplineSet
EndChar

StartChar: V
Encoding: 86 86 55
Width: 589
Flags: HMW
HStem: 0 21G<279 356 279 279> 0 95 694 20G
VStem: 138 358<700 700>
LayerCount: 2
Fore
SplineSet
356 0 m 1,0,-1
 279 0 l 1,1,-1
 78 700 l 1,2,-1
 138 700 l 1,3,-1
 317 69 l 1,4,-1
 496 700 l 1,5,-1
 556 700 l 1,6,-1
 356 0 l 1,0,-1
EndSplineSet
EndChar

StartChar: W
Encoding: 87 87 56
Width: 807
Flags: HMW
HStem: 0 21G<243 328 243 243 526 611 526 526> 0 120 600 114 694 20G
VStem: 78 696<700 700>
LayerCount: 2
Fore
SplineSet
611 0 m 1,0,-1
 526 0 l 1,1,-1
 427 599 l 1,2,-1
 328 0 l 1,3,-1
 243 0 l 1,4,-1
 78 700 l 1,5,-1
 138 700 l 1,6,-1
 281 69 l 1,7,-1
 388 700 l 1,8,-1
 466 700 l 1,9,-1
 573 69 l 1,10,-1
 714 700 l 1,11,-1
 774 700 l 1,12,-1
 611 0 l 1,0,-1
EndSplineSet
EndChar

StartChar: X
Encoding: 88 88 57
Width: 628
Flags: HMW
HStem: 0 21G<78 147 78 78 516 585 516 516> 694 20G
VStem: 97 472<700 700>
LayerCount: 2
Fore
SplineSet
585 0 m 1,0,-1
 516 0 l 1,1,-1
 332 294 l 1,2,-1
 147 0 l 1,3,-1
 78 0 l 1,4,-1
 299 352 l 1,5,-1
 97 700 l 1,6,-1
 160 700 l 1,7,-1
 332 406 l 1,8,-1
 506 700 l 1,9,-1
 569 700 l 1,10,-1
 366 352 l 1,11,-1
 585 0 l 1,0,-1
EndSplineSet
EndChar

StartChar: Y
Encoding: 89 89 58
Width: 560
Flags: HMW
HStem: 0 21G 694 20G
VStem: 60 56<453 700> 447 57<152 156 156 294 294 294 400 700>
LayerCount: 2
Fore
SplineSet
399 -7 m 1,0,-1
 386 30 l 1,1,2
 447 53 447 53 447 152 c 2,3,-1
 447 294 l 1,4,5
 420 270 420 270 375 257.5 c 128,-1,6
 330 245 330 245 289 245 c 0,7,8
 183 245 183 245 121.5 297.5 c 128,-1,9
 60 350 60 350 60 453 c 2,10,-1
 60 700 l 1,11,-1
 116 700 l 1,12,-1
 116 443 l 2,13,14
 116 373 116 373 164 336.5 c 128,-1,15
 212 300 212 300 280 300 c 0,16,17
 348 300 348 300 392 325 c 128,-1,18
 436 350 436 350 447 400 c 1,19,-1
 447 700 l 1,20,-1
 504 700 l 1,21,-1
 504 156 l 2,22,23
 504 83 504 83 476.5 41.5 c 128,-1,24
 449 0 449 0 399 -7 c 1,0,-1
EndSplineSet
EndChar

StartChar: Z
Encoding: 90 90 59
Width: 550
Flags: HMW
HStem: 0 80 634 80
VStem: 31 487<0 50 50 50>
LayerCount: 2
Fore
SplineSet
518 0 m 1,0,-1
 31 0 l 1,1,-1
 31 50 l 1,2,-1
 441 649 l 1,3,-1
 44 649 l 1,4,-1
 44 700 l 1,5,-1
 512 700 l 1,6,-1
 512 650 l 1,7,-1
 102 51 l 1,8,-1
 518 51 l 1,9,-1
 518 0 l 1,0,-1
EndSplineSet
EndChar

StartChar: bracketleft
Encoding: 91 91 60
Width: 319
Flags: HMW
HStem: -198 68 663 68
VStem: 78 56<-59 762 -59 817 -59 817>
LayerCount: 2
Fore
SplineSet
239 -114 m 1,0,-1
 78 -114 l 1,1,-1
 78 817 l 1,2,-1
 239 817 l 1,3,-1
 239 772 l 1,4,-1
 134 762 l 1,5,-1
 134 -59 l 1,6,-1
 239 -69 l 1,7,-1
 239 -114 l 1,0,-1
EndSplineSet
EndChar

StartChar: backslash
Encoding: 92 92 61
Width: 492
Flags: HMW
HStem: -17 21G 711 20G
VStem: 35 456 38 274
LayerCount: 2
Fore
SplineSet
451 -114 m 1,0,-1
 390 -114 l 1,1,-1
 70 817 l 1,2,-1
 127 817 l 1,3,-1
 451 -114 l 1,0,-1
EndSplineSet
EndChar

StartChar: bracketright
Encoding: 93 93 62
Width: 319
Flags: HMW
HStem: -198 68 663 68
VStem: 183 56<-59 762 762 762> 191 56
LayerCount: 2
Fore
SplineSet
239 -114 m 1,0,-1
 78 -114 l 1,1,-1
 78 -69 l 1,2,-1
 183 -59 l 1,3,-1
 183 762 l 1,4,-1
 78 772 l 1,5,-1
 78 817 l 1,6,-1
 239 817 l 1,7,-1
 239 -114 l 1,0,-1
EndSplineSet
EndChar

StartChar: asciicircum
Encoding: 94 94 63
Width: 401
Flags: HMW
HStem: 264 433
VStem: 78 290<758 758>
LayerCount: 2
Fore
SplineSet
330 719 m 1,0,-1
 225 823 l 1,1,-1
 116 719 l 1,2,-1
 78 758 l 1,3,-1
 226 899 l 1,4,-1
 368 758 l 1,5,-1
 330 719 l 1,0,-1
EndSplineSet
EndChar

StartChar: underscore
Encoding: 95 95 64
Width: 353
Flags: HMW
HStem: -125 50
VStem: 76 320<-55 0 -55 0>
LayerCount: 2
Fore
SplineSet
396 -55 m 1,0,-1
 76 -55 l 1,1,-1
 76 0 l 1,2,-1
 396 0 l 1,3,-1
 396 -55 l 1,0,-1
EndSplineSet
EndChar

StartChar: quoteleft
Encoding: 8216 8216 65
Width: 101
Flags: HMW
HStem: 456 111 517 111 633 84
VStem: -1 69<592 595 592 599> 0 104
LayerCount: 2
Fore
SplineSet
40 631 m 1,0,-1
 50 628 l 1,1,2
 68 615 68 615 67.5 597 c 128,-1,3
 67 579 67 579 57.5 570.45 c 128,-1,4
 48 561.9 48 561.9 41.2 561.9 c 128,-1,5
 34.4 561.9 34.4 561.9 27.2 562.45 c 128,-1,6
 20 563 20 563 9.5 574.5 c 128,-1,7
 -1.01515151515 586.016594517 -1.01515151515 586.016594517 -1.01515151515 600.786730946 c 0,8,9
 -1.01515151515 658.818181818 -1.01515151515 658.818181818 63 712 c 1,10,-1
 103 684 l 1,11,12
 58.3076923077 658.461538462 58.3076923077 658.461538462 45 638.5 c 2,13,-1
 40 631 l 1,0,-1
EndSplineSet
EndChar

StartChar: a
Encoding: 97 97 66
Width: 458
Flags: HMW
HStem: -12 51 466 43<214 278>
VStem: 37 329<169 252 252 288> 92 330<103.5 162 162 249>
LayerCount: 2
Fore
SplineSet
256.334339872 -9.83092731104 m 0,0,1
 37 -9.83092731104 37 -9.83092731104 37 169 c 2,2,-1
 37 252 l 2,3,4
 37 351 37 351 106 385 c 0,5,6
 142 401.666666667 142 401.666666667 177 401.666666667 c 0,7,8
 294.632478632 401.666666667 294.632478632 401.666666667 366 346 c 1,9,10
 366 401 366 401 334 433.5 c 128,-1,11
 302 466 302 466 211 466 c 1,12,-1
 214 509 l 1,13,14
 295 509 295 509 334 489.5 c 0,15,16
 355 479 355 479 371 468 c 128,-1,17
 387 457 387 457 396 439 c 128,-1,18
 405 421 405 421 411 407.5 c 128,-1,19
 417 394 417 394 419 371 c 0,20,21
 422 336.5 422 336.5 422 298 c 2,22,-1
 422 0 l 1,23,24
 317.792170503 -9.83092731104 317.792170503 -9.83092731104 256.334339872 -9.83092731104 c 0,0,1
366 46 m 1,25,-1
 366 303 l 1,26,27
 282.655148583 342.588804423 282.655148583 342.588804423 196.5 350 c 0,28,29
 190.086206897 350.551724138 190.086206897 350.551724138 184.005350773 350.551724138 c 0,30,31
 146 350.551724138 146 350.551724138 119 327.275862069 c 128,-1,32
 92 304 92 304 92 249 c 2,33,-1
 92 162 l 2,34,35
 92 79 92 79 164 53.5 c 0,36,37
 206.206896552 38.5517241379 206.206896552 38.5517241379 259.206896552 38.5517241379 c 128,-1,38
 312.206896552 38.5517241379 312.206896552 38.5517241379 366 46 c 1,25,-1
EndSplineSet
EndChar

StartChar: b
Encoding: 98 98 67
Width: 480
Flags: HMW
HStem: 680 20G<78 134 134 134>
VStem: 78 56<48 425 474 700> 392 55<156 157 157 343 343 346>
LayerCount: 2
Fore
SplineSet
134 474 m 1,0,1
 183.330909091 509.236363636 183.330909091 509.236363636 266.396033058 509.236363636 c 0,2,3
 321.018181818 509.236363636 321.018181818 509.236363636 362 490 c 0,4,5
 447 451 447 451 447 346 c 2,6,-1
 447 157 l 2,7,8
 447 58 447 58 369 18 c 0,9,10
 310 -12 310 -12 237 -12 c 128,-1,11
 164 -12 164 -12 78 0 c 1,12,-1
 78 700 l 1,13,-1
 134 700 l 1,14,-1
 134 474 l 1,0,1
134 425 m 1,15,-1
 134 48 l 1,16,17
 190.4375 38.8125 190.4375 38.8125 234.529296875 38.8125 c 0,18,19
 392 38.8125 392 38.8125 392 156 c 2,20,-1
 392 343 l 2,21,22
 392 395 392 395 364 424 c 0,23,24
 330.206896552 459 330.206896552 459 262.524500907 459 c 128,-1,25
 194.842105263 459 194.842105263 459 134 425 c 1,15,-1
EndSplineSet
EndChar

StartChar: c
Encoding: 99 99 68
Width: 383
Flags: HMW
HStem: -12 51 460 69
VStem: 36 56<180 308 308 314>
LayerCount: 2
Fore
SplineSet
245.871527778 37.9166666667 m 0,0,1
 291.486111111 37.9166666667 291.486111111 37.9166666667 346 51 c 1,2,-1
 358 6 l 1,3,4
 294 -11.0666666667 294 -11.0666666667 242 -11.0666666667 c 128,-1,5
 190 -11.0666666667 190 -11.0666666667 139.5 5.46666666667 c 0,6,7
 36 39.3518151815 36 39.3518151815 36 180 c 2,8,-1
 36 308 l 2,9,10
 36 379 36 379 64 427 c 0,11,12
 112.239130435 509.695652174 112.239130435 509.695652174 221.506616257 509.695652174 c 0,13,14
 287.913043478 509.695652174 287.913043478 509.695652174 356 478 c 1,15,-1
 340 437 l 1,16,17
 282.968518519 459.316666667 282.968518519 459.316666667 241.284259259 459.316666667 c 128,-1,18
 199.6 459.316666667 199.6 459.316666667 167.8 449.158333333 c 128,-1,19
 136 439 136 439 114 404 c 128,-1,20
 92 369 92 369 92 314 c 2,21,-1
 92 169 l 2,22,23
 92 37.9166666667 92 37.9166666667 245.871527778 37.9166666667 c 0,0,1
EndSplineSet
EndChar

StartChar: d
Encoding: 100 100 69
Width: 480
Flags: HMW
HStem: -11 50 0 63 459 50 694 20G
VStem: 78 313<157 346 346 384> 391 56<48 425 425 425 474 700 0 700>
LayerCount: 2
Fore
SplineSet
258.603966942 509.236363636 m 0,0,1
 341.669090909 509.236363636 341.669090909 509.236363636 391 474 c 1,2,-1
 391 700 l 1,3,-1
 447 700 l 1,4,-1
 447 0 l 1,5,6
 361 -12 361 -12 288 -12 c 128,-1,7
 215 -12 215 -12 156 18 c 0,8,9
 78 58 78 58 78 157 c 2,10,-1
 78 346 l 2,11,12
 78 451 78 451 163 490 c 0,13,14
 203.981818182 509.236363636 203.981818182 509.236363636 258.603966942 509.236363636 c 0,0,1
391 425 m 1,15,16
 330.157894737 459 330.157894737 459 258.277777778 459 c 0,17,18
 194.793103448 459 194.793103448 459 163.896551724 427 c 128,-1,19
 133 395 133 395 133 343 c 2,20,-1
 133 156 l 2,21,22
 133 38.8125 133 38.8125 290.470703125 38.8125 c 0,23,24
 334.5625 38.8125 334.5625 38.8125 391 48 c 1,25,-1
 391 425 l 1,15,16
EndSplineSet
EndChar

StartChar: e
Encoding: 101 101 70
Width: 434
Flags: HMW
HStem: -12 51 195 267<91 238> 250 260<91 274.5>
VStem: 35 304<262 339 339 349 349 394> 91 304<78 342 134 342 250 250 250 338>
LayerCount: 2
Fore
SplineSet
202.374609781 37.4193548387 m 0,0,1
 270.643145161 37.4193548387 270.643145161 37.4193548387 348 78 c 1,2,-1
 370 35 l 1,3,4
 292.54025974 -12.1038961039 292.54025974 -12.1038961039 208.575324675 -12.1038961039 c 0,5,6
 35 -12.1038961039 35 -12.1038961039 35 134 c 2,7,-1
 35 339 l 2,8,9
 35 420 35 420 85.5 465 c 128,-1,10
 136 510 136 510 219 510 c 128,-1,11
 302 510 302 510 348.5 465.5 c 128,-1,12
 395 421 395 421 395 342 c 2,13,-1
 395 212 l 1,14,-1
 91 195 l 1,15,-1
 91 134 l 2,16,17
 91 80 91 80 130 56 c 0,18,19
 160.193548387 37.4193548387 160.193548387 37.4193548387 202.374609781 37.4193548387 c 0,0,1
339 262 m 1,20,-1
 339 349 l 2,21,22
 339 392 339 392 316 419.5 c 128,-1,23
 293 447 293 447 268 454.5 c 128,-1,24
 243 462 243 462 218 462 c 0,25,26
 163 462 163 462 127 432 c 128,-1,27
 91 402 91 402 91 338 c 2,28,-1
 91 250 l 1,29,-1
 339 262 l 1,20,-1
EndSplineSet
EndChar

StartChar: f
Encoding: 102 102 71
Width: 294
Flags: HMW
HStem: 0 21G<78 134 78 78> 448 53<134 224 134 248> 658 49<252 261>
VStem: 78 56<0 448 501 549>
LayerCount: 2
Fore
SplineSet
134 0 m 1,0,-1
 78 0 l 1,1,-1
 78 549 l 2,2,3
 78 599 78 599 95 635 c 128,-1,4
 112 671 112 671 138.5 686.5 c 0,5,6
 181.094549499 711.413793103 181.094549499 711.413793103 226.336504162 711.413793103 c 0,7,8
 243.896551724 711.413793103 243.896551724 711.413793103 261 707 c 1,9,-1
 252 658 l 1,10,11
 238.609929078 659.815602837 238.609929078 659.815602837 226.739298828 659.815602837 c 0,12,13
 134 659.815602837 134 659.815602837 134 549 c 2,14,-1
 134 501 l 1,15,-1
 248 501 l 1,16,-1
 224 448 l 1,17,-1
 134 448 l 1,18,-1
 134 0 l 1,0,-1
EndSplineSet
EndChar

StartChar: g
Encoding: 103 103 72
Width: 448
Flags: HMW
HStem: -210 43<292 307> -12 471<193 254> 40 470<185.5 255.5 170 257.5>
VStem: 37 321<176 325 325 336 336 381 -63 384.5> 358 56<-63 61 61 61 173 336 336 381>
LayerCount: 2
Fore
SplineSet
307 -210 m 1,0,-1
 292 -167 l 1,1,2
 358 -142 358 -142 358 -63 c 2,3,-1
 358 61 l 1,4,5
 316 -12 316 -12 225.5 -12 c 0,6,7
 135 -12 135 -12 86 36 c 128,-1,8
 37 84 37 84 37 176 c 2,9,-1
 37 325 l 2,10,11
 37 413 37 413 88.5 461.5 c 128,-1,12
 140 510 140 510 230 510 c 0,13,14
 320 510 320 510 362 443 c 1,15,-1
 358 501 l 1,16,-1
 414 501 l 1,17,-1
 414 -64 l 2,18,19
 414 -124 414 -124 389 -158 c 128,-1,20
 364 -192 364 -192 307 -210 c 1,0,-1
358 173 m 2,21,-1
 358 336 l 2,22,23
 358 398 358 398 318 428.5 c 128,-1,24
 278 459 278 459 224 459 c 0,25,26
 170 459 170 459 131.5 426.5 c 128,-1,27
 93 394 93 394 93 320 c 2,28,-1
 93 167 l 2,29,30
 93 104 93 104 128.5 72 c 128,-1,31
 164 40 164 40 221.5 40 c 0,32,33
 279 40 279 40 318.5 74.5 c 128,-1,34
 358 109 358 109 358 173 c 2,21,-1
EndSplineSet
EndChar

StartChar: h
Encoding: 104 104 73
Width: 493
Flags: HMW
HStem: 0 21G<64 120 64 64 378 433 378 378> 460 49 694 20G
VStem: 64 56<0 425 0 474 474 700> 378 55<0 343 343 346>
LayerCount: 2
Fore
SplineSet
120 474 m 1,0,1
 170.25 509.892857143 170.25 509.892857143 254.973214286 509.892857143 c 0,2,3
 308.571428571 509.892857143 308.571428571 509.892857143 348 491 c 0,4,5
 433 452 433 452 433 346 c 2,6,-1
 433 0 l 1,7,-1
 378 0 l 1,8,-1
 378 343 l 2,9,10
 378 395 378 395 350 424 c 0,11,12
 316.206896552 459 316.206896552 459 248.524500907 459 c 128,-1,13
 180.842105263 459 180.842105263 459 120 425 c 1,14,-1
 120 0 l 1,15,-1
 64 0 l 1,16,-1
 64 700 l 1,17,-1
 120 700 l 1,18,-1
 120 474 l 1,0,1
EndSplineSet
EndChar

StartChar: i
Encoding: 105 105 74
Width: 225
Flags: HMW
HStem: 501 21G<83 139 139 139> 610 104
VStem: 83 56<0 501>
LayerCount: 2
Fore
SplineSet
135 653 m 128,-1,1
 125 643 125 643 111.5 643 c 128,-1,2
 98 643 98 643 88 653.5 c 128,-1,3
 78 664 78 664 78 677 c 128,-1,4
 78 690 78 690 88 700 c 128,-1,5
 98 710 98 710 112 710 c 128,-1,6
 126 710 126 710 135.5 700 c 128,-1,7
 145 690 145 690 145 676.5 c 128,-1,0
 145 663 145 663 135 653 c 128,-1,1
139 0 m 1,8,-1
 83 0 l 1,9,-1
 83 501 l 1,10,-1
 139 501 l 1,11,-1
 139 0 l 1,8,-1
EndSplineSet
EndChar

StartChar: j
Encoding: 106 106 75
Width: 193
Flags: HMW
HStem: -209 43<-7 36.5> 457 52 654 67
VStem: -139 21 68 56<-56 446 446 446>
LayerCount: 2
Fore
SplineSet
68 -56 m 2,0,-1
 68 446 l 1,1,-1
 23 449 l 1,2,-1
 0 501 l 1,3,-1
 124 501 l 1,4,-1
 124 -75 l 1,5,6
 122 -133 122 -133 88 -171 c 128,-1,7
 54 -209 54 -209 0 -209 c 1,8,-1
 -7 -166 l 1,9,10
 -0 -166 -0 -166 16 -158 c 128,-1,11
 32 -150 32 -150 42 -139 c 0,12,13
 68 -110.4 68 -110.4 68 -56 c 2,0,-1
97 643 m 128,-1,15
 84 643 84 643 73.5 653.5 c 128,-1,16
 63 664 63 664 63 677 c 128,-1,17
 63 690 63 690 73 700 c 128,-1,18
 83 710 83 710 96.5 710 c 128,-1,19
 110 710 110 710 120 700 c 128,-1,20
 130 690 130 690 130 676.5 c 128,-1,21
 130 663 130 663 120 653 c 128,-1,14
 110 643 110 643 97 643 c 128,-1,15
EndSplineSet
EndChar

StartChar: k
Encoding: 107 107 76
Width: 434
Flags: HMW
HStem: 0 21G<67 123 67 67 367 434 367 367> 500 20G<323 323> 694 20G
VStem: 67 56<0 272 335 700>
LayerCount: 2
Fore
SplineSet
434 0 m 1,0,-1
 367 0 l 1,1,-1
 175 317 l 1,2,-1
 123 272 l 1,3,-1
 123 0 l 1,4,-1
 67 0 l 1,5,-1
 67 700 l 1,6,-1
 123 700 l 1,7,-1
 123 335 l 1,8,-1
 323 520 l 1,9,-1
 363 481 l 1,10,-1
 215 352 l 1,11,12
 283 239 283 239 434 0 c 1,0,-1
EndSplineSet
EndChar

StartChar: l
Encoding: 108 108 77
Width: 214
Flags: HMW
HStem: 0 21G<78 134 78 78> 694 20G
VStem: 78 56<0 700>
LayerCount: 2
Fore
SplineSet
134 0 m 1,0,-1
 78 0 l 1,1,-1
 78 700 l 1,2,-1
 134 700 l 1,3,-1
 134 0 l 1,0,-1
EndSplineSet
EndChar

StartChar: m
Encoding: 109 109 78
Width: 735
Flags: HMW
HStem: 0 21G<78 134 78 78 372 427 372 372 647 702 647 647> 454 63 454 75
VStem: 78 56<0 425 0 501> 372 55<0 343 343 346 0 416.5> 647 55<0 343 343 346>
LayerCount: 2
Fore
SplineSet
385 461 m 1,0,1
 469.823529412 509.470588235 469.823529412 509.470588235 545.884083045 509.470588235 c 0,2,3
 617.935828877 509.470588235 617.935828877 509.470588235 659.967914439 463.235294118 c 128,-1,4
 702 417 702 417 702 346 c 2,5,-1
 702 0 l 1,6,-1
 647 0 l 1,7,-1
 647 343 l 2,8,9
 647 388 647 388 628 416 c 128,-1,10
 609 444 609 444 582.130952381 451.047619048 c 128,-1,11
 555.261904762 458.095238095 555.261904762 458.095238095 538.869047619 458.095238095 c 128,-1,12
 522.476190476 458.095238095 522.476190476 458.095238095 501.738095238 456.547619048 c 128,-1,13
 481 455 481 455 447 442 c 1,14,-1
 410 424 l 1,15,16
 427 390 427 390 427 346 c 2,17,-1
 427 0 l 1,18,-1
 372 0 l 1,19,-1
 372 343 l 2,20,21
 372 395 372 395 347 424 c 0,22,23
 317.448275862 458.28 317.448275862 458.28 255.500980036 458.28 c 128,-1,24
 193.553684211 458.28 193.553684211 458.28 134 425 c 1,25,-1
 134 0 l 1,26,-1
 78 0 l 1,27,-1
 78 501 l 1,28,-1
 134 501 l 1,29,-1
 129 469 l 1,30,31
 198.066666667 508.2 198.066666667 508.2 268.46969697 508.2 c 128,-1,32
 338.872727273 508.2 338.872727273 508.2 385 461 c 1,0,1
EndSplineSet
EndChar

StartChar: n
Encoding: 110 110 79
Width: 500
Flags: HMW
HStem: 0 21G<64 120 64 64 378 433 378 378> 472 55
VStem: 64 56<0 425 0 501> 378 55<0 343 343 346>
LayerCount: 2
Fore
SplineSet
116 467 m 1,0,1
 167.462295082 509.885245902 167.462295082 509.885245902 258.862671325 509.885245902 c 0,2,3
 311.016393443 509.885245902 311.016393443 509.885245902 348 491 c 1,4,5
 433 452 433 452 433 346 c 2,6,-1
 433 0 l 1,7,-1
 378 0 l 1,8,-1
 378 343 l 2,9,10
 378 395 378 395 350 424 c 0,11,12
 316.206896552 459 316.206896552 459 248.524500907 459 c 128,-1,13
 180.842105263 459 180.842105263 459 120 425 c 1,14,-1
 120 0 l 1,15,-1
 64 0 l 1,16,-1
 64 501 l 1,17,-1
 120 501 l 1,18,-1
 116 467 l 1,0,1
EndSplineSet
EndChar

StartChar: o
Encoding: 111 111 80
Width: 484
Flags: HMW
HStem: -10 471<227 303.5 227 332> 40 472<225 308>
VStem: 78 317<184 316 316 368.5 174 379> 134 317<134.5 174 174 184 184 316>
LayerCount: 2
Fore
SplineSet
451 316 m 2,0,-1
 451 184 l 2,1,2
 451 100 451 100 405 45 c 128,-1,3
 359 -10 359 -10 266 -10 c 128,-1,4
 173 -10 173 -10 125.5 45.5 c 128,-1,5
 78 101 78 101 78 184 c 2,6,-1
 78 316 l 2,7,8
 78 411 78 411 126.5 461.5 c 128,-1,9
 175 512 175 512 264 512 c 0,10,11
 353 512 353 512 402 459.5 c 128,-1,12
 451 407 451 407 451 316 c 2,0,-1
395 174 m 2,13,-1
 395 316 l 2,14,15
 395 461 395 461 266 461 c 0,16,17
 134 461 134 461 134 316 c 2,18,-1
 134 174 l 2,19,20
 134 114 134 114 169.5 77 c 128,-1,21
 205 40 205 40 266.5 40 c 0,22,23
 328 40 328 40 361.5 76.5 c 128,-1,24
 395 113 395 113 395 174 c 2,13,-1
EndSplineSet
EndChar

StartChar: p
Encoding: 112 112 81
Width: 488
Flags: HMW
HStem: -198 21G -12 75 454 63
VStem: 78 56<-188 -188 -188 42 120.5 166 166 324> 134 321<-188 176 -188 176 120.5 166 166 176 176 315 113.5 324> 167 21
LayerCount: 2
Fore
SplineSet
134 -188 m 1,0,-1
 78 -210 l 1,1,-1
 78 501 l 1,2,-1
 134 501 l 1,3,-1
 129 450 l 1,4,5
 184 509 184 509 271 509 c 0,6,7
 358 509 358 509 406.5 455 c 128,-1,8
 455 401 455 401 455 315 c 2,9,-1
 455 176 l 2,10,11
 455 85 455 85 404 36.5 c 128,-1,12
 353 -12 353 -12 266.5 -12 c 0,13,14
 180 -12 180 -12 134 42 c 1,15,-1
 134 -188 l 1,0,-1
399 166 m 2,16,-1
 399 319 l 2,17,18
 399 392 399 392 360.5 425 c 128,-1,19
 322 458 322 458 268.5 458 c 0,20,21
 215 458 215 458 176 425.5 c 128,-1,22
 137 393 137 393 134 324 c 1,23,-1
 134 166 l 2,24,25
 134 101 134 101 171 70 c 128,-1,26
 208 39 208 39 266 39 c 0,27,28
 324 39 324 39 361.5 71.5 c 128,-1,29
 399 104 399 104 399 166 c 2,16,-1
EndSplineSet
EndChar

StartChar: q
Encoding: 113 113 82
Width: 448
Flags: HMW
HStem: -198 21G -12 75 454 63
VStem: -56 21 37 321<176 314 314 324 -188 368.5> 358 56<-188 42 42 42 166 324 324 324>
LayerCount: 2
Fore
SplineSet
414 -210 m 1,0,-1
 358 -188 l 1,1,-1
 358 42 l 1,2,3
 312 -12 312 -12 225.5 -12 c 0,4,5
 139 -12 139 -12 88 36.5 c 128,-1,6
 37 85 37 85 37 176 c 2,7,-1
 37 314 l 2,8,9
 37 400 37 400 85.5 454.5 c 128,-1,10
 134 509 134 509 220.5 509 c 0,11,12
 307 509 307 509 363 448 c 1,13,-1
 358 501 l 1,14,-1
 414 501 l 1,15,-1
 414 -210 l 1,0,-1
358 166 m 2,16,-1
 358 324 l 1,17,18
 355 393 355 393 316 425.5 c 128,-1,19
 277 458 277 458 223.5 458 c 0,20,21
 170 458 170 458 131.5 424.5 c 128,-1,22
 93 391 93 391 93 318 c 2,23,-1
 93 166 l 2,24,25
 93 104 93 104 130.5 71.5 c 128,-1,26
 168 39 168 39 226 39 c 0,27,28
 284 39 284 39 321 70 c 128,-1,29
 358 101 358 101 358 166 c 2,16,-1
EndSplineSet
EndChar

StartChar: r
Encoding: 114 114 83
Width: 333
Flags: HMW
HStem: 0 21G<61 117 61 61> 439 90 497 20G
VStem: 61 56<0 392>
LayerCount: 2
Fore
SplineSet
296 450 m 1,0,1
 258.023391813 460.052631579 258.023391813 460.052631579 219.156432749 460.052631579 c 128,-1,2
 180.289473684 460.052631579 180.289473684 460.052631579 148.644736842 442.526315789 c 128,-1,3
 117 425 117 425 117 392 c 2,4,-1
 117 0 l 1,5,-1
 61 0 l 1,6,-1
 61 501 l 1,7,-1
 117 501 l 1,8,-1
 114 466 l 1,9,10
 160.674157303 509.191011236 160.674157303 509.191011236 237.921727055 509.191011236 c 0,11,12
 271.561797753 509.191011236 271.561797753 509.191011236 311 501 c 1,13,-1
 296 450 l 1,0,1
EndSplineSet
EndChar

StartChar: s
Encoding: 115 115 84
Width: 431
Flags: HMW
HStem: 454 75
VStem: 36 53<127 127> 48 55 312 19 340 56<90 190.5>
LayerCount: 2
Fore
SplineSet
36 127 m 1,0,-1
 89 127 l 1,1,2
 95 82 95 82 134 59.5 c 128,-1,3
 173 37 173 37 219.5 37 c 128,-1,4
 266 37 266 37 303 57.5 c 128,-1,5
 340 78 340 78 340 119.5 c 128,-1,6
 340 161 340 161 311.5 184 c 128,-1,7
 283 207 283 207 242 220 c 128,-1,8
 201 233 201 233 159 247.5 c 128,-1,9
 117 262 117 262 85 291 c 0,10,11
 47.2653061224 325.197066327 47.2653061224 325.197066327 47.2653061224 375.445471939 c 128,-1,12
 47.2653061224 425.693877551 47.2653061224 425.693877551 87.6326530612 469.346938776 c 128,-1,13
 128 513 128 513 219 513 c 0,14,15
 251 513 251 513 279 505.5 c 128,-1,16
 307 498 307 498 319 491 c 2,17,-1
 331 484 l 1,18,-1
 312 438 l 1,19,20
 276 464 276 464 222 464 c 128,-1,21
 168 464 168 464 135.292207792 440.772727273 c 128,-1,22
 102.584415584 417.545454545 102.584415584 417.545454545 102.584415584 379.129364142 c 0,23,24
 102.584415584 341.222840651 102.584415584 341.222840651 135.792207792 319.611420326 c 128,-1,25
 169 298 169 298 211.5 285.5 c 128,-1,26
 254 273 254 273 296 257 c 128,-1,27
 338 241 338 241 367 208 c 128,-1,28
 396 175 396 175 396 120 c 128,-1,29
 396 65 396 65 351.5 25 c 128,-1,30
 307 -15 307 -15 221.5 -15 c 128,-1,31
 136 -15 136 -15 87 26 c 128,-1,32
 38 67 38 67 36 127 c 1,0,-1
EndSplineSet
EndChar

StartChar: t
Encoding: 116 116 85
Width: 243
Flags: HMW
HStem: 0 75 442 75
VStem: -122 401 44 85
LayerCount: 2
Fore
SplineSet
166 30 m 1,0,-1
 150 -13 l 1,1,2
 94 3 94 3 69 38 c 128,-1,3
 44 73 44 73 44 132 c 2,4,-1
 44 700 l 1,5,-1
 100 700 l 1,6,-1
 100 501 l 1,7,-1
 220 501 l 1,8,-1
 196 448 l 1,9,-1
 100 448 l 1,10,-1
 100 132 l 2,11,12
 100 52 100 52 166 30 c 1,0,-1
EndSplineSet
EndChar

StartChar: u
Encoding: 117 117 86
Width: 447
Flags: HMW
HStem: -12 75 0 21G<354 409 354 354> 497 20G
VStem: 36 56<172 501> 353 56<165 501>
LayerCount: 2
Fore
SplineSet
409 0 m 1,0,-1
 354 0 l 1,1,-1
 358 51 l 1,2,3
 334 21 334 21 297.5 5 c 128,-1,4
 261 -11 261 -11 224 -11 c 0,5,6
 36 -11 36 -11 36 172 c 2,7,-1
 36 501 l 1,8,-1
 92 501 l 1,9,-1
 92 165 l 2,10,11
 92 101 92 101 127.5 70 c 128,-1,12
 163 39 163 39 224 39 c 0,13,14
 353 39 353 39 353 165 c 2,15,-1
 353 501 l 1,16,-1
 409 501 l 1,17,-1
 409 0 l 1,0,-1
EndSplineSet
EndChar

StartChar: v
Encoding: 118 118 87
Width: 424
Flags: HMW
HStem: 0 86 497 20G
VStem: 18 385<501 501> 205 21
LayerCount: 2
Fore
SplineSet
248 0 m 1,0,-1
 171 0 l 1,1,-1
 18 501 l 1,2,-1
 77 501 l 1,3,-1
 210 58 l 1,4,-1
 344 501 l 1,5,-1
 403 501 l 1,6,-1
 248 0 l 1,0,-1
EndSplineSet
EndChar

StartChar: w
Encoding: 119 119 88
Width: 704
Flags: HMW
HStem: 0 94 411 106 497 20G
VStem: 18 665<501 501>
LayerCount: 2
Fore
SplineSet
528 0 m 1,0,-1
 451 0 l 1,1,-1
 350 405 l 1,2,-1
 248 0 l 1,3,-1
 171 0 l 1,4,-1
 18 501 l 1,5,-1
 77 501 l 1,6,-1
 210 58 l 1,7,-1
 323 501 l 1,8,-1
 380 501 l 1,9,-1
 490 58 l 1,10,-1
 624 501 l 1,11,-1
 683 501 l 1,12,-1
 528 0 l 1,0,-1
EndSplineSet
EndChar

StartChar: x
Encoding: 120 120 89
Width: 489
Flags: HMW
HStem: 0 21G<78 144 78 78 390 456 390 390> 272 21G 279 21G 497 20G
VStem: 78 378<0 0>
LayerCount: 2
Fore
SplineSet
456 0 m 1,0,-1
 390 0 l 1,1,-1
 267 197 l 1,2,-1
 144 0 l 1,3,-1
 78 0 l 1,4,-1
 234 249 l 1,5,-1
 78 501 l 1,6,-1
 141 501 l 1,7,-1
 267 301 l 1,8,-1
 393 501 l 1,9,-1
 456 501 l 1,10,-1
 299 249 l 1,11,-1
 456 0 l 1,0,-1
EndSplineSet
EndChar

StartChar: y
Encoding: 121 121 90
Width: 480
Flags: HMW
HStem: -207 75 497 20G
VStem: 37 375<176 402> 126 21
LayerCount: 2
Fore
SplineSet
307 -210 m 1,0,-1
 292 -167 l 1,1,2
 359 -142 359 -142 359 -63 c 2,3,-1
 359 49 l 1,4,5
 322 -12 322 -12 227 -12 c 0,6,7
 37 -12 37 -12 37 176 c 2,8,-1
 37 501 l 1,9,-1
 91 501 l 1,10,-1
 91 166 l 2,11,12
 91 102 91 102 126 70.5 c 128,-1,13
 161 39 161 39 221.5 39 c 128,-1,14
 282 39 282 39 320 70 c 128,-1,15
 358 101 358 101 358 166 c 2,16,-1
 358 363 l 2,17,18
 358 435.924053627 358 435.924053627 368.146439991 459.568379955 c 0,19,20
 384.837313816 495.116454697 384.837313816 495.116454697 431 510 c 1,21,-1
 446 472 l 1,22,23
 412 457 412 457 412 402 c 2,24,-1
 412 -61 l 2,25,26
 412 -122 412 -122 388 -157 c 128,-1,27
 364 -192 364 -192 307 -210 c 1,0,-1
EndSplineSet
EndChar

StartChar: z
Encoding: 122 122 91
Width: 478
Flags: HMW
HStem: 0 75 442 75
VStem: 87 358
LayerCount: 2
Fore
SplineSet
445 0 m 1,0,-1
 78 0 l 1,1,-1
 78 50 l 1,2,-1
 353 450 l 1,3,-1
 87 450 l 1,4,-1
 87 501 l 1,5,-1
 424 501 l 1,6,-1
 424 451 l 1,7,-1
 147 51 l 1,8,-1
 445 51 l 1,9,-1
 445 0 l 1,0,-1
EndSplineSet
EndChar

StartChar: braceleft
Encoding: 123 123 92
Width: 309
Flags: HMW
HStem: -116 37<258 276> 232 68 785 37<256 274>
VStem: 78 70<354 354> 152 56<140 247 247 253> 324 21
LayerCount: 2
Fore
SplineSet
276 -79 m 1,0,-1
 258 -116 l 1,1,2
 192 -78 192 -78 172 -30.5 c 128,-1,3
 152 17 152 17 152 140 c 2,4,-1
 152 247 l 2,5,6
 152 266 152 266 136 290.5 c 128,-1,7
 120 315 120 315 109.5 325 c 128,-1,8
 99 335 99 335 78 354 c 1,9,10
 102 373 102 373 126 404 c 128,-1,11
 150 435 150 435 150 462 c 2,12,-1
 150 567 l 2,13,14
 150 651 150 651 159 696.5 c 128,-1,15
 168 742 168 742 189.5 769 c 128,-1,16
 211 796 211 796 256 822 c 1,17,-1
 274 785 l 1,18,19
 206 734 206 734 206 641 c 2,20,-1
 206 456 l 2,21,22
 206 413 206 413 148 355 c 1,23,24
 208 295 208 295 208 253 c 2,25,-1
 208 65 l 2,26,27
 208 -28 208 -28 276 -79 c 1,0,-1
EndSplineSet
EndChar

StartChar: bar
Encoding: 124 124 93
Width: 214
Flags: HMW
HStem: -214 1000
VStem: 78 56<-114 817>
LayerCount: 2
Fore
SplineSet
134 -114 m 1,0,-1
 78 -114 l 1,1,-1
 78 817 l 1,2,-1
 134 817 l 1,3,-1
 134 -114 l 1,0,-1
EndSplineSet
EndChar

StartChar: braceright
Encoding: 125 125 94
Width: 309
Flags: HMW
HStem: -116 37<78 96> 232 68 253 203<146 148> 785 37<80 98>
VStem: 9 21 146 56<65 140 140 247> 206 70<355 355> 208 60
LayerCount: 2
Fore
SplineSet
96 -116 m 1,0,-1
 78 -79 l 1,1,2
 146 -28 146 -28 146 65 c 2,3,-1
 146 253 l 2,4,5
 146 295 146 295 206 355 c 1,6,7
 148 413 148 413 148 456 c 2,8,-1
 148 641 l 2,9,10
 148 734 148 734 80 785 c 1,11,-1
 98 822 l 1,12,13
 143 796 143 796 164.5 769 c 128,-1,14
 186 742 186 742 195 696.5 c 128,-1,15
 204 651 204 651 204 567 c 2,16,-1
 204 462 l 2,17,18
 204 435 204 435 228 404 c 128,-1,19
 252 373 252 373 276 354 c 1,20,21
 255 335 255 335 244.5 325 c 128,-1,22
 234 315 234 315 218 290.5 c 128,-1,23
 202 266 202 266 202 247 c 2,24,-1
 202 140 l 2,25,26
 202 17 202 17 182 -30.5 c 128,-1,27
 162 -78 162 -78 96 -116 c 1,0,-1
EndSplineSet
EndChar

StartChar: asciitilde
Encoding: 126 126 95
Width: 516
Flags: HMW
HStem: 183 98 297 81
VStem: 82 401
LayerCount: 2
Fore
SplineSet
371.357777778 341.933333333 m 0,0,1
 424.725 341.933333333 424.725 341.933333333 456 379 c 1,2,-1
 483 341 l 1,3,4
 438.707317073 284.25 438.707317073 284.25 369.375 284.25 c 0,5,6
 341.1875 284.25 341.1875 284.25 251 312 c 0,7,8
 223.470588235 320.470588235 223.470588235 320.470588235 195.692041522 320.470588235 c 0,9,10
 138.68627451 320.470588235 138.68627451 320.470588235 104 281 c 1,11,-1
 78 319 l 1,12,13
 123.779892921 375.87804878 123.779892921 375.87804878 195.499702558 375.87804878 c 0,14,15
 221.574279379 375.87804878 221.574279379 375.87804878 282.520473023 358.905691057 c 128,-1,16
 343.466666667 341.933333333 343.466666667 341.933333333 371.357777778 341.933333333 c 0,0,1
EndSplineSet
EndChar

StartChar: exclamdown
Encoding: 161 161 96
Width: 225
Flags: HMW
HStem: -198 21G 0 127 406 111
VStem: 79 67 89 47<590 590>
LayerCount: 2
Fore
SplineSet
79 37 m 2,0,-1
 89 590 l 1,1,-1
 136 590 l 1,2,-1
 145 36 l 2,3,4
 145 0 145 0 112 0 c 128,-1,5
 79 0 79 0 79 37 c 2,0,-1
111 644 m 128,-1,7
 98 644 98 644 88 654 c 128,-1,8
 78 664 78 664 78 677 c 128,-1,9
 78 690 78 690 88 700 c 128,-1,10
 98 710 98 710 111 710 c 128,-1,11
 124 710 124 710 134 700 c 128,-1,12
 144 690 144 690 144 677 c 128,-1,13
 144 664 144 664 134 654 c 128,-1,6
 124 644 124 644 111 644 c 128,-1,7
EndSplineSet
EndChar

StartChar: cent
Encoding: 162 162 97
Width: 433
Flags: HMW
HStem: -12 75 454 75
VStem: 78 56<180 308 308 314> 88 90 238 55<-114 -10 42 457 457 457 508 623> 314 39
LayerCount: 2
Fore
SplineSet
293 -114 m 1,0,-1
 238 -114 l 1,1,-1
 238 -8 l 1,2,3
 219 -6 219 -6 190 2 c 1,4,5
 131 22 131 22 104.5 63.5 c 128,-1,6
 78 105 78 105 78 180 c 2,7,-1
 78 308 l 2,8,9
 78 399 78 399 122 449.5 c 128,-1,10
 166 500 166 500 238 508 c 1,11,-1
 238 623 l 1,12,-1
 293 623 l 1,13,-1
 293 508 l 1,14,15
 346 502 346 502 398 478 c 1,16,-1
 382 437 l 1,17,18
 333 455 333 455 293 459 c 1,19,-1
 293 38 l 1,20,21
 336 38 336 38 388 51 c 1,22,-1
 400 6 l 1,23,24
 343 -9 343 -9 293 -10 c 1,25,-1
 293 -114 l 1,0,-1
238 42 m 1,26,-1
 238 457 l 1,27,28
 190 448 190 448 162 412.5 c 128,-1,29
 134 377 134 377 134 314 c 2,30,-1
 134 169 l 2,31,32
 134 61 134 61 238 42 c 1,26,-1
EndSplineSet
EndChar

StartChar: fraction
Encoding: 8260 8260 98
Width: 492
Flags: HMW
HStem: 705 20G
VStem: 20 499
LayerCount: 2
Fore
SplineSet
139 -114 m 1,0,-1
 78 -114 l 1,1,-1
 402 817 l 1,2,-1
 459 817 l 1,3,-1
 139 -114 l 1,0,-1
EndSplineSet
EndChar

StartChar: yen
Encoding: 165 165 99
Width: 583
Flags: HMW
HStem: 0 21G<286 342 286 286> 174 60 309 60 694 20G
VStem: -104 21 155 320<253 308 253 308 358 413 253 413> 262 95
LayerCount: 2
Fore
SplineSet
342 0 m 1,0,-1
 286 0 l 1,1,-1
 286 253 l 1,2,-1
 155 253 l 1,3,-1
 155 308 l 1,4,-1
 286 308 l 1,5,-1
 286 340 l 1,6,-1
 275 358 l 1,7,-1
 155 358 l 1,8,-1
 155 413 l 1,9,-1
 243 413 l 1,10,-1
 78 700 l 1,11,-1
 141 700 l 1,12,-1
 309 413 l 1,13,-1
 317 413 l 1,14,-1
 487 700 l 1,15,-1
 550 700 l 1,16,-1
 383 413 l 1,17,-1
 475 413 l 1,18,-1
 475 358 l 1,19,-1
 351 358 l 1,20,-1
 342 342 l 1,21,-1
 342 308 l 1,22,-1
 475 308 l 1,23,-1
 475 253 l 1,24,-1
 342 253 l 1,25,-1
 342 0 l 1,0,-1
EndSplineSet
EndChar

StartChar: section
Encoding: 167 167 100
Width: 586
Flags: HMW
HStem: -198 75 656 75
VStem: 76 82 124 85 137 88 421 85 424 88 475 82
LayerCount: 2
Fore
SplineSet
78 -8 m 1,0,-1
 135 -8 l 1,1,2
 140 -61 140 -61 188.5 -102 c 128,-1,3
 237 -143 237 -143 313 -143 c 128,-1,4
 389 -143 389 -143 441 -108.5 c 128,-1,5
 493 -74 493 -74 493 1 c 0,6,7
 493 47 493 47 463.5 79.5 c 128,-1,8
 434 112 434 112 390 129 c 128,-1,9
 346 146 346 146 294.5 165.5 c 128,-1,10
 243 185 243 185 199 204 c 128,-1,11
 155 223 155 223 125.5 261 c 128,-1,12
 96 299 96 299 96 351.5 c 128,-1,13
 96 404 96 404 128 445 c 1,14,15
 96 485 96 485 96 540 c 0,16,17
 96 610 96 610 154 661 c 128,-1,18
 212 712 212 712 321 712 c 0,19,20
 404 712 404 712 467 682 c 1,21,22
 467 680 467 680 450 629 c 1,23,24
 393 658 393 658 319.5 658 c 128,-1,25
 246 658 246 658 200 626 c 128,-1,26
 154 594 154 594 154 537 c 0,27,28
 154 473.114285714 154 473.114285714 233 437 c 0,29,30
 268 421 268 421 310.5 407 c 128,-1,31
 353 393 353 393 396 376 c 128,-1,32
 439 359 439 359 474 337.5 c 128,-1,33
 509 316 509 316 531 279 c 128,-1,34
 553 242 553 242 553 188.5 c 128,-1,35
 553 135 553 135 530 92 c 1,36,37
 553 57 553 57 553 6 c 0,38,39
 553 -86 553 -86 494.5 -141.5 c 128,-1,40
 436 -197 436 -197 320.5 -197 c 128,-1,41
 205 -197 205 -197 142.5 -139.5 c 128,-1,42
 80 -82 80 -82 78 -8 c 1,0,-1
486 140 m 1,43,44
 493 166 493 166 493 189 c 0,45,46
 493 238 493 238 457.5 272.5 c 128,-1,47
 422 307 422 307 376.5 322.5 c 0,48,49
 219.958333333 375.827380952 219.958333333 375.827380952 171 408 c 1,50,51
 154 382 154 382 154 344 c 128,-1,52
 154 306 154 306 191 275.5 c 128,-1,53
 228 245 228 245 276 230.5 c 0,54,55
 425.581395349 185.313953488 425.581395349 185.313953488 486 140 c 1,43,44
EndSplineSet
EndChar

StartChar: currency
Encoding: 164 164 101
Width: 462
Flags: HMW
HStem: 101 75 524 75
VStem: 4 85 419 85
LayerCount: 2
Fore
SplineSet
393 150 m 1,0,-1
 360 183 l 1,1,2
 312 148 312 148 251.5 148 c 128,-1,3
 191 148 191 148 146 184 c 1,4,-1
 113 149 l 1,5,-1
 81 182 l 1,6,-1
 113 216 l 1,7,8
 78 264 78 264 78 322.5 c 128,-1,9
 78 381 78 381 112 428 c 1,10,-1
 81 461 l 1,11,-1
 114 494 l 1,12,-1
 145 462 l 1,13,14
 193 499 193 499 253 499 c 128,-1,15
 313 499 313 499 359 464 c 1,16,-1
 391 495 l 1,17,-1
 425 460 l 1,18,-1
 394 429 l 1,19,20
 429 381 429 381 429 322 c 128,-1,21
 429 263 429 263 392 215 c 1,22,-1
 425 182 l 1,23,-1
 393 150 l 1,0,-1
339 238 m 128,-1,25
 375 273 375 273 375 323.5 c 128,-1,26
 375 374 375 374 339 410 c 128,-1,27
 303 446 303 446 252.5 446 c 128,-1,28
 202 446 202 446 166 410 c 128,-1,29
 130 374 130 374 130 323.5 c 128,-1,30
 130 273 130 273 166 238 c 128,-1,31
 202 203 202 203 252.5 203 c 128,-1,24
 303 203 303 203 339 238 c 128,-1,25
EndSplineSet
EndChar

StartChar: quotesingle
Encoding: 39 39 102
Width: 172
Flags: HMW
HStem: 456 258 694 20G
VStem: 46 68<700 723.5>
LayerCount: 2
Fore
SplineSet
100 589 m 1,0,-1
 60 589 l 1,1,-1
 46 700 l 1,2,3
 46 722 46 722 63 731 c 0,4,5
 71.5 735.5 71.5 735.5 80 735.5 c 1,6,-1
 97 731 l 1,7,8
 114 722 114 722 114 700 c 1,9,-1
 100 589 l 1,0,-1
EndSplineSet
EndChar

StartChar: quotedblleft
Encoding: 8220 8220 103
Width: 252
Flags: HMW
HStem: 456 111 521 111 664 50
VStem: -1 69<596 599 596 603> 23 69 150 104<594.5 688> 173 69
LayerCount: 2
Fore
SplineSet
40 635 m 1,0,-1
 50 632 l 1,1,2
 68 619 68 619 67.5 601 c 128,-1,3
 67 583 67 583 57.5 574.45 c 128,-1,4
 48 565.9 48 565.9 41.2 565.9 c 128,-1,5
 34.4 565.9 34.4 565.9 27.2 566.45 c 128,-1,6
 20 567 20 567 9.5 578.5 c 128,-1,7
 -1.01515151515 590.016594517 -1.01515151515 590.016594517 -1.01515151515 604.786730946 c 0,8,9
 -1.01515151515 662.818181818 -1.01515151515 662.818181818 63 716 c 1,10,-1
 103 688 l 1,11,12
 58.3076923077 662.461538462 58.3076923077 662.461538462 45 642.5 c 2,13,-1
 40 635 l 1,0,-1
191 635 m 1,14,-1
 201 632 l 1,15,16
 219 619 219 619 218.5 601 c 128,-1,17
 218 583 218 583 208.5 574.45 c 128,-1,18
 199 565.9 199 565.9 192.2 565.9 c 128,-1,19
 185.4 565.9 185.4 565.9 178.2 566.45 c 128,-1,20
 171 567 171 567 160.5 578.5 c 128,-1,21
 149.984848485 590.016594517 149.984848485 590.016594517 149.984848485 604.786730946 c 0,22,23
 149.984848485 662.818181818 149.984848485 662.818181818 214 716 c 1,24,-1
 254 688 l 1,25,26
 209.307692308 662.461538462 209.307692308 662.461538462 196 642.5 c 2,27,-1
 191 635 l 1,14,-1
EndSplineSet
EndChar

StartChar: guillemotleft
Encoding: 171 171 104
Width: 488
Flags: HMW
HStem: 278 21G
VStem: 50 152 246 152
LayerCount: 2
Fore
SplineSet
264 114 m 1,0,-1
 229 80 l 1,1,-1
 42 267 l 1,2,-1
 42 268 l 1,3,-1
 229 455 l 1,4,-1
 266 417 l 1,5,-1
 116 267 l 1,6,-1
 264 114 l 1,0,-1
484 114 m 1,7,-1
 449 80 l 1,8,-1
 262 267 l 1,9,-1
 262 268 l 1,10,-1
 449 455 l 1,11,-1
 486 417 l 1,12,-1
 336 267 l 1,13,-1
 484 114 l 1,7,-1
EndSplineSet
EndChar

StartChar: guilsinglleft
Encoding: 8249 8249 105
Width: 268
Flags: HMW
HStem: 278 21G
VStem: 50 152
LayerCount: 2
Fore
SplineSet
264 114 m 1,0,-1
 229 80 l 1,1,-1
 42 267 l 1,2,-1
 42 268 l 1,3,-1
 229 455 l 1,4,-1
 266 417 l 1,5,-1
 116 267 l 1,6,-1
 264 114 l 1,0,-1
EndSplineSet
EndChar

StartChar: guilsinglright
Encoding: 8250 8250 106
Width: 292
Flags: HMW
HStem: 278 21G
VStem: 18 152 67 152
LayerCount: 2
Fore
SplineSet
40 80 m 1,0,-1
 5 114 l 1,1,-1
 153 267 l 1,2,-1
 3 417 l 1,3,-1
 40 455 l 1,4,-1
 227 268 l 1,5,-1
 227 267 l 1,6,-1
 40 80 l 1,0,-1
EndSplineSet
EndChar

StartChar: paragraph
Encoding: 182 182 107
Width: 669
Flags: HMW
HStem: 659 55
VStem: 319 68 512 68<-198 698 -199 699 -198 -198>
LayerCount: 2
Fore
SplineSet
636 -199 m 1,0,-1
 580 -199 l 1,1,-1
 580 698 l 1,2,-1
 512 699 l 1,3,-1
 512 -198 l 1,4,-1
 456 -198 l 1,5,-1
 456 246 l 1,6,-1
 255 246 l 2,7,8
 188.333333333 246 188.333333333 246 153 272.5 c 0,9,10
 135 286 135 286 121.5 300.5 c 128,-1,11
 108 315 108 315 100.5 339 c 128,-1,12
 93 363 93 363 88 381 c 128,-1,13
 83 399 83 399 81 429 c 0,14,15
 78 474 78 474 78 524 c 0,16,17
 78 624 78 624 124 687 c 128,-1,18
 170 750 170 750 264 750 c 2,19,-1
 636 750 l 1,20,-1
 636 -199 l 1,0,-1
EndSplineSet
EndChar

StartChar: bullet
Encoding: 8226 8226 108
Width: 468
Flags: HMW
HStem: 178 357
VStem: 78 357<287.5 386.5>
LayerCount: 2
Fore
SplineSet
256 158 m 128,-1,1
 182 158 182 158 130 210.5 c 128,-1,2
 78 263 78 263 78 337 c 128,-1,3
 78 411 78 411 130 463 c 128,-1,4
 182 515 182 515 256 515 c 128,-1,5
 330 515 330 515 382.5 463 c 128,-1,6
 435 411 435 411 435 337 c 128,-1,7
 435 263 435 263 382.5 210.5 c 128,-1,0
 330 158 330 158 256 158 c 128,-1,1
EndSplineSet
EndChar

StartChar: quotesinglbase
Encoding: 8218 8218 109
Width: 159
Flags: HMW
HStem: -147 50 0 111
VStem: 44 69
LayerCount: 2
Fore
SplineSet
51 -84 m 1,0,-1
 11 -56 l 1,1,2
 55.6923076923 -30.4615384615 55.6923076923 -30.4615384615 69 -10.5 c 2,3,-1
 74 -3 l 1,4,-1
 64 0 l 1,5,6
 46 13 46 13 46.5 31 c 128,-1,7
 47 49 47 49 56.5 57.55 c 128,-1,8
 66 66.1 66 66.1 72.8 66.1 c 128,-1,9
 79.6 66.1 79.6 66.1 86.8 65.55 c 128,-1,10
 94 65 94 65 104.5 53.5 c 128,-1,11
 115.015151515 41.9834054834 115.015151515 41.9834054834 115.015151515 27.2132690542 c 0,12,13
 115.015151515 -30.8181818182 115.015151515 -30.8181818182 51 -84 c 1,0,-1
EndSplineSet
EndChar

StartChar: quotedblbase
Encoding: 8222 8222 110
Width: 310
Flags: HMW
HStem: -147 50 0 111 2 111
VStem: -44 69 46 69<35 38> 106 69 197 69<35 38>
LayerCount: 2
Fore
SplineSet
51 -82 m 1,0,-1
 11 -54 l 1,1,2
 55.6923076923 -28.4615384615 55.6923076923 -28.4615384615 69 -8.5 c 2,3,-1
 74 -1 l 1,4,-1
 64 2 l 1,5,6
 46 15 46 15 46.5 33 c 128,-1,7
 47 51 47 51 56.5 59.55 c 128,-1,8
 66 68.1 66 68.1 72.8 68.1 c 128,-1,9
 79.6 68.1 79.6 68.1 86.8 67.55 c 128,-1,10
 94 67 94 67 104.5 55.5 c 128,-1,11
 115.015151515 43.9834054834 115.015151515 43.9834054834 115.015151515 29.2132690542 c 0,12,13
 115.015151515 -28.8181818182 115.015151515 -28.8181818182 51 -82 c 1,0,-1
202 -82 m 1,14,-1
 162 -54 l 1,15,16
 204.482758621 -29.724137931 204.482758621 -29.724137931 220 -8 c 2,17,-1
 225 -1 l 1,18,-1
 215 2 l 1,19,20
 197 15 197 15 197.5 33 c 128,-1,21
 198 51 198 51 207.5 59.55 c 128,-1,22
 217 68.1 217 68.1 223.8 68.1 c 128,-1,23
 230.6 68.1 230.6 68.1 237.8 67.55 c 128,-1,24
 245 67 245 67 255.5 55.5 c 128,-1,25
 266.015151515 43.9834054834 266.015151515 43.9834054834 266.015151515 29.2132690542 c 0,26,27
 266.015151515 -28.8181818182 266.015151515 -28.8181818182 202 -82 c 1,14,-1
EndSplineSet
EndChar

StartChar: quotedblright
Encoding: 8221 8221 111
Width: 252
Flags: HMW
HStem: 456 50 603 111 644 111
VStem: 22 104 33 69<677 680> 184 69<677 680> 207 69
LayerCount: 2
Fore
SplineSet
38 560 m 1,0,-1
 -2 588 l 1,1,2
 42.6923076923 613.538461538 42.6923076923 613.538461538 56 633.5 c 2,3,-1
 61 641 l 1,4,-1
 51 644 l 1,5,6
 33 657 33 657 33.5 675 c 128,-1,7
 34 693 34 693 43.5 701.55 c 128,-1,8
 53 710.1 53 710.1 59.8 710.1 c 128,-1,9
 66.6 710.1 66.6 710.1 73.8 709.55 c 128,-1,10
 81 709 81 709 91.5 697.5 c 128,-1,11
 102.015151515 685.983405483 102.015151515 685.983405483 102.015151515 671.213269054 c 0,12,13
 102.015151515 613.181818182 102.015151515 613.181818182 38 560 c 1,0,-1
189 560 m 1,14,-1
 149 588 l 1,15,16
 193.692307692 613.538461538 193.692307692 613.538461538 207 633.5 c 2,17,-1
 212 641 l 1,18,-1
 202 644 l 1,19,20
 184 657 184 657 184.5 675 c 128,-1,21
 185 693 185 693 194.5 701.55 c 128,-1,22
 204 710.1 204 710.1 210.8 710.1 c 128,-1,23
 217.6 710.1 217.6 710.1 224.8 709.55 c 128,-1,24
 232 709 232 709 242.5 697.5 c 128,-1,25
 253.015151515 685.983405483 253.015151515 685.983405483 253.015151515 671.213269054 c 0,26,27
 253.015151515 613.181818182 253.015151515 613.181818182 189 560 c 1,14,-1
EndSplineSet
EndChar

StartChar: guillemotright
Encoding: 187 187 112
Width: 512
Flags: HMW
HStem: 278 21G
VStem: -11 152 185 152
LayerCount: 2
Fore
SplineSet
260 80 m 1,0,-1
 225 114 l 1,1,-1
 373 267 l 1,2,-1
 223 417 l 1,3,-1
 260 455 l 1,4,-1
 447 268 l 1,5,-1
 447 267 l 1,6,-1
 260 80 l 1,0,-1
40 80 m 1,7,-1
 5 114 l 1,8,-1
 153 267 l 1,9,-1
 3 417 l 1,10,-1
 40 455 l 1,11,-1
 227 268 l 1,12,-1
 227 267 l 1,13,-1
 40 80 l 1,7,-1
EndSplineSet
EndChar

StartChar: ellipsis
Encoding: 8230 8230 113
Width: 477
Flags: HMW
HStem: 0 111
VStem: 8 66 11 66<24 42> 188 66<24 42> 368 66<24 42>
LayerCount: 2
Fore
SplineSet
44 0 m 128,-1,1
 30 0 30 0 20.5 10 c 128,-1,2
 11 20 11 20 11 33 c 128,-1,3
 11 46 11 46 20.5 56 c 128,-1,4
 30 66 30 66 44 66 c 128,-1,5
 58 66 58 66 67.5 56 c 128,-1,6
 77 46 77 46 77 33 c 128,-1,7
 77 20 77 20 67.5 10 c 128,-1,0
 58 0 58 0 44 0 c 128,-1,1
221 0 m 128,-1,9
 208 0 208 0 198 10 c 128,-1,10
 188 20 188 20 188 33 c 128,-1,11
 188 46 188 46 198 56 c 128,-1,12
 208 66 208 66 221 66 c 128,-1,13
 234 66 234 66 244 56 c 128,-1,14
 254 46 254 46 254 33 c 128,-1,15
 254 20 254 20 244 10 c 128,-1,8
 234 0 234 0 221 0 c 128,-1,9
401 0 m 128,-1,17
 388 0 388 0 378 10 c 128,-1,18
 368 20 368 20 368 33 c 128,-1,19
 368 46 368 46 378 56 c 128,-1,20
 388 66 388 66 401 66 c 128,-1,21
 414 66 414 66 424 56 c 128,-1,22
 434 46 434 46 434 33 c 128,-1,23
 434 20 434 20 424 10 c 128,-1,16
 414 0 414 0 401 0 c 128,-1,17
EndSplineSet
EndChar

StartChar: perthousand
Encoding: 8240 8240 114
Width: 1047
Flags: HMW
HStem: -11 238<509.5 568.5 509.5 579 840.5 899.5> 39 94 41 92 274 55 368 55 489 94 583 94 654 55 702 20G 711 20G
VStem: 78 56 134 94 228 94 322 50<559.5 606.5> 382 106 395 50<109.5 156.5 109.5 173> 445 94 539 94 633 50<109.5 156.5>
LayerCount: 2
Fore
SplineSet
870 -11 m 128,-1,1
 810 -11 810 -11 768 31 c 128,-1,2
 726 73 726 73 726 133 c 128,-1,3
 726 193 726 193 768 235 c 128,-1,4
 810 277 810 277 870 277 c 128,-1,5
 930 277 930 277 972 235 c 128,-1,6
 1014 193 1014 193 1014 133 c 128,-1,7
 1014 73 1014 73 972 31 c 128,-1,0
 930 -11 930 -11 870 -11 c 128,-1,1
964 133 m 128,-1,9
 964 170 964 170 938 198.5 c 128,-1,10
 912 227 912 227 870 227 c 128,-1,11
 828 227 828 227 802 198.5 c 128,-1,12
 776 170 776 170 776 133 c 128,-1,13
 776 96 776 96 802 67.5 c 128,-1,14
 828 39 828 39 870 39 c 128,-1,15
 912 39 912 39 938 67.5 c 128,-1,8
 964 96 964 96 964 133 c 128,-1,9
113 1 m 1,16,-1
 78 41 l 1,17,-1
 645 740 l 1,18,-1
 685 699 l 1,19,-1
 113 1 l 1,16,-1
539 -11 m 128,-1,21
 479 -11 479 -11 437 31 c 128,-1,22
 395 73 395 73 395 133 c 128,-1,23
 395 193 395 193 437 235 c 128,-1,24
 479 277 479 277 539 277 c 128,-1,25
 599 277 599 277 641 235 c 128,-1,26
 683 193 683 193 683 133 c 128,-1,27
 683 73 683 73 641 31 c 128,-1,20
 599 -11 599 -11 539 -11 c 128,-1,21
633 133 m 128,-1,29
 633 170 633 170 607 198.5 c 128,-1,30
 581 227 581 227 539 227 c 128,-1,31
 497 227 497 227 471 198.5 c 128,-1,32
 445 170 445 170 445 133 c 128,-1,33
 445 96 445 96 471 67.5 c 128,-1,34
 497 39 497 39 539 39 c 128,-1,35
 581 39 581 39 607 67.5 c 128,-1,28
 633 96 633 96 633 133 c 128,-1,29
228 439 m 128,-1,37
 168 439 168 439 126 481 c 128,-1,38
 84 523 84 523 84 583 c 128,-1,39
 84 643 84 643 126 685 c 128,-1,40
 168 727 168 727 228 727 c 128,-1,41
 288 727 288 727 330 685 c 128,-1,42
 372 643 372 643 372 583 c 128,-1,43
 372 523 372 523 330 481 c 128,-1,36
 288 439 288 439 228 439 c 128,-1,37
322 583 m 128,-1,45
 322 620 322 620 296 648.5 c 128,-1,46
 270 677 270 677 228 677 c 128,-1,47
 186 677 186 677 160 648.5 c 128,-1,48
 134 620 134 620 134 583 c 128,-1,49
 134 546 134 546 160 517.5 c 128,-1,50
 186 489 186 489 228 489 c 128,-1,51
 270 489 270 489 296 517.5 c 128,-1,44
 322 546 322 546 322 583 c 128,-1,45
EndSplineSet
EndChar

StartChar: questiondown
Encoding: 191 191 115
Width: 466
Flags: HMW
HStem: -210 75 406 111
VStem: -9 90 149 111 164 85 362 85
LayerCount: 2
Fore
SplineSet
377 177 m 1,0,-1
 433 177 l 1,1,2
 433 102 433 102 386.5 51 c 128,-1,3
 340 0 340 0 255 0 c 0,4,5
 203 0 203 0 161 26.5 c 0,6,7
 79.01 78.2317857143 79.01 78.2317857143 79.01 172.405 c 0,8,9
 79.01 234.196363636 79.01 234.196363636 116 288 c 0,10,11
 135 315 135 315 162 342.5 c 128,-1,12
 189 370 189 370 203.5 386 c 128,-1,13
 218 402 218 402 229.5 437.5 c 128,-1,14
 241 473 241 473 242 527 c 1,15,-1
 242 590 l 1,16,-1
 293 590 l 1,17,-1
 293 497 l 2,18,19
 293 451 293 451 279.5 414.5 c 128,-1,20
 266 378 266 378 250 358.5 c 128,-1,21
 234 339 234 339 208.5 312.5 c 128,-1,22
 183 286 183 286 171 269 c 0,23,24
 138.189873418 217.962025316 138.189873418 217.962025316 138.189873418 173.569139561 c 0,25,26
 138.189873418 120.639523899 138.189873418 120.639523899 173.594936709 86.8197619497 c 128,-1,27
 209 53 209 53 257.5 53 c 128,-1,28
 306 53 306 53 341.5 84.5 c 128,-1,29
 377 116 377 116 377 177 c 1,0,-1
268 643 m 128,-1,31
 254 643 254 643 244.5 652.5 c 128,-1,32
 235 662 235 662 235 676 c 128,-1,33
 235 690 235 690 244.5 699.5 c 128,-1,34
 254 709 254 709 268 709 c 128,-1,35
 282 709 282 709 291.5 699.5 c 128,-1,36
 301 690 301 690 301 676 c 128,-1,37
 301 662 301 662 291.5 652.5 c 128,-1,30
 282 643 282 643 268 643 c 128,-1,31
EndSplineSet
EndChar

StartChar: grave
Encoding: 96 96 116
Width: 222
Flags: HMW
HStem: 588 143 730 143
VStem: 57 119 272 109
LayerCount: 2
Fore
SplineSet
164 590 m 1,0,-1
 120 590 l 1,1,-1
 51 682 l 2,2,3
 45.88 688.4 45.88 688.4 45.88 695.32 c 0,4,5
 45.88 722.0875 45.88 722.0875 68 729 c 0,6,7
 75.1538461538 731.076923077 75.1538461538 731.076923077 81.4023668639 731.076923077 c 0,8,9
 102.230769231 731.076923077 102.230769231 731.076923077 113 708 c 2,10,-1
 164 590 l 1,0,-1
EndSplineSet
EndChar

StartChar: acute
Encoding: 180 180 117
Width: 222
Flags: HMW
HStem: 588 143
VStem: 50 109
LayerCount: 2
Fore
SplineSet
90 588 m 1,0,-1
 46 588 l 1,1,-1
 97 706 l 2,2,3
 107.769230769 729.076923077 107.769230769 729.076923077 128.597633136 729.076923077 c 0,4,5
 156.009615385 729.076923077 156.009615385 729.076923077 162.5 706 c 0,6,7
 164.12 700.24 164.12 700.24 164.12 693.32 c 128,-1,8
 164.12 686.4 164.12 686.4 159 680 c 2,9,-1
 90 588 l 1,0,-1
EndSplineSet
EndChar

StartChar: circumflex
Encoding: 710 710 118
Width: 394
Flags: HMW
HStem: 588 142 683 47
VStem: 35 251
LayerCount: 2
Fore
SplineSet
298 591 m 1,0,-1
 193 695 l 1,1,-1
 84 591 l 1,2,-1
 46 630 l 1,3,-1
 194 771 l 1,4,-1
 336 630 l 1,5,-1
 298 591 l 1,0,-1
EndSplineSet
EndChar

StartChar: tilde
Encoding: 732 732 119
Width: 445
Flags: HMW
HStem: 620 36 658 39<387 412>
VStem: 78 334<650 658>
LayerCount: 2
Fore
SplineSet
316.768470343 662.419354839 m 0,0,1
 355.765868887 662.419354839 355.765868887 662.419354839 387 697 c 1,2,-1
 412 658 l 1,3,4
 367.071428571 605.142857143 367.071428571 605.142857143 315.867346939 605.142857143 c 0,5,6
 297.785714286 605.142857143 297.785714286 605.142857143 275.392857143 614.571428571 c 128,-1,7
 253 624 253 624 227.96969697 635.621212121 c 128,-1,8
 202.939393939 647.242424242 202.939393939 647.242424242 178.395775941 647.242424242 c 0,9,10
 136.977272727 647.242424242 136.977272727 647.242424242 103 611 c 1,11,-1
 78 650 l 1,12,13
 125.382478632 702.797619048 125.382478632 702.797619048 178.43877551 702.797619048 c 0,14,15
 196.119047619 702.797619048 196.119047619 702.797619048 218.55952381 693.898809524 c 128,-1,16
 241 685 241 685 266.741935484 673.709677419 c 128,-1,17
 292.483870968 662.419354839 292.483870968 662.419354839 316.768470343 662.419354839 c 0,0,1
EndSplineSet
EndChar

StartChar: macron
Encoding: 175 175 120
Width: 332
Flags: HMW
HStem: 619 58<78 299 78 299>
VStem: 18 341
LayerCount: 2
Fore
SplineSet
299 619 m 1,0,-1
 78 619 l 1,1,-1
 78 677 l 1,2,-1
 299 677 l 1,3,-1
 299 619 l 1,0,-1
EndSplineSet
EndChar

StartChar: breve
Encoding: 728 728 121
Width: 330
Flags: HMW
HStem: 582 45<140 178 140 190> 711 20G
VStem: 46 226<695 700 664 700>
LayerCount: 2
Fore
SplineSet
272 700 m 1,0,-1
 272 695 l 2,1,2
 272 648 272 648 239 615 c 128,-1,3
 206 582 206 582 159 582 c 128,-1,4
 112 582 112 582 79 615 c 128,-1,5
 46 648 46 648 46 695 c 2,6,-1
 46 700 l 1,7,-1
 91 700 l 1,8,-1
 91 695 l 2,9,10
 91 666 91 666 110.5 646.5 c 128,-1,11
 130 627 130 627 159 627 c 128,-1,12
 188 627 188 627 207.5 646.5 c 128,-1,13
 227 666 227 666 227 695 c 2,14,-1
 227 700 l 1,15,-1
 272 700 l 1,0,-1
EndSplineSet
EndChar

StartChar: dotaccent
Encoding: 729 729 122
Width: 67
Flags: HMW
HStem: 592 104
VStem: -7 66
LayerCount: 2
Fore
SplineSet
57 653 m 128,-1,1
 47 643 47 643 33.5 643 c 128,-1,2
 20 643 20 643 10 653.5 c 128,-1,3
 0 664 0 664 0 677 c 128,-1,4
 0 690 0 690 10 700 c 128,-1,5
 20 710 20 710 34 710 c 128,-1,6
 48 710 48 710 57.5 700 c 128,-1,7
 67 690 67 690 67 676.5 c 128,-1,0
 67 663 67 663 57 653 c 128,-1,1
EndSplineSet
EndChar

StartChar: ring
Encoding: 730 730 123
Width: 222
Flags: HMW
HStem: 594 68
VStem: 43 68 111 68
LayerCount: 2
Fore
SplineSet
179 662 m 128,-1,1
 179 690 179 690 159.5 710 c 128,-1,2
 140 730 140 730 111 730 c 128,-1,3
 82 730 82 730 62.5 710 c 128,-1,4
 43 690 43 690 43 662 c 128,-1,5
 43 634 43 634 62.5 614 c 128,-1,6
 82 594 82 594 111 594 c 128,-1,7
 140 594 140 594 159.5 614 c 128,-1,0
 179 634 179 634 179 662 c 128,-1,1
111 549 m 128,-1,9
 64 549 64 549 31 582.5 c 128,-1,10
 -2 616 -2 616 -2 662 c 128,-1,11
 -2 708 -2 708 31 741.5 c 128,-1,12
 64 775 64 775 111 775 c 128,-1,13
 158 775 158 775 191 741.5 c 128,-1,14
 224 708 224 708 224 662 c 128,-1,15
 224 616 224 616 191 582.5 c 128,-1,8
 158 549 158 549 111 549 c 128,-1,9
EndSplineSet
EndChar

StartChar: cedilla
Encoding: 184 184 124
Width: 249
Flags: HMW
HStem: -210 21G<152 195.5> -210 47<167.5 191.5 167.5 195.5> -98 50
VStem: 215 77
LayerCount: 2
Fore
SplineSet
76 -191 m 1,0,-1
 100 -138 l 1,1,2
 137 -163 137 -163 169.5 -163 c 0,3,4
 240 -163 240 -163 240 -121 c 0,5,6
 240 -99 240 -99 219.5 -89 c 0,7,8
 210.586956522 -84.652173913 210.586956522 -84.652173913 196.967391304 -84.652173913 c 128,-1,9
 183.347826087 -84.652173913 183.347826087 -84.652173913 163 -92 c 2,10,-1
 129 -106 l 1,11,-1
 112 -78 l 1,12,-1
 173 0 l 1,13,-1
 215 0 l 1,14,-1
 175 -53 l 1,15,16
 184 -47 184 -47 214.5 -47 c 128,-1,17
 245 -47 245 -47 268.5 -66.5 c 128,-1,18
 292 -86 292 -86 292 -127.5 c 128,-1,19
 292 -169 292 -169 255 -189.5 c 128,-1,20
 218 -210 218 -210 173 -210 c 128,-1,21
 128 -210 128 -210 76 -191 c 1,0,-1
EndSplineSet
EndChar

StartChar: hungarumlaut
Encoding: 733 733 125
Width: 226
Flags: HMW
HStem: 568 143 588 143
VStem: -8 239 -2 109 2 109 114 109 118 109
LayerCount: 2
Fore
SplineSet
154 568 m 1,0,-1
 110 568 l 1,1,-1
 161 686 l 2,2,3
 171.769230769 709.076923077 171.769230769 709.076923077 192.597633136 709.076923077 c 0,4,5
 220.009615385 709.076923077 220.009615385 709.076923077 226.5 686 c 0,6,7
 228.12 680.24 228.12 680.24 228.12 673.32 c 128,-1,8
 228.12 666.4 228.12 666.4 223 660 c 2,9,-1
 154 568 l 1,0,-1
42 568 m 1,10,-1
 -2 568 l 1,11,-1
 49 686 l 2,12,13
 59.7692307692 709.076923077 59.7692307692 709.076923077 80.5976331361 709.076923077 c 0,14,15
 108.009615385 709.076923077 108.009615385 709.076923077 114.5 686 c 0,16,17
 116.12 680.24 116.12 680.24 116.12 673.32 c 128,-1,18
 116.12 666.4 116.12 666.4 111 660 c 2,19,-1
 42 568 l 1,10,-1
EndSplineSet
EndChar

StartChar: ogonek
Encoding: 731 731 126
Width: 222
Flags: HMW
HStem: -210 50
VStem: 76 68
LayerCount: 2
Fore
SplineSet
230 3 m 1,0,1
 125.68 -83.5856 125.68 -83.5856 125.68 -123.9264 c 0,2,3
 125.68 -139.08 125.68 -139.08 135.34 -151.04 c 128,-1,4
 145 -163 145 -163 166 -163 c 128,-1,5
 187 -163 187 -163 200.5 -153.5 c 128,-1,6
 214 -144 214 -144 228 -122 c 1,7,-1
 265 -160 l 1,8,9
 233 -210 233 -210 168 -210 c 0,10,11
 151 -210 151 -210 133 -205.5 c 128,-1,12
 115 -201 115 -201 95.5 -181 c 128,-1,13
 76 -161 76 -161 76 -128 c 0,14,15
 76 -60 76 -60 172 3 c 1,16,-1
 230 3 l 1,0,1
EndSplineSet
EndChar

StartChar: caron
Encoding: 711 711 127
Width: 394
Flags: HMW
HStem: 537 142 633 47
VStem: 37 251 37 300
LayerCount: 2
Fore
SplineSet
336 732 m 1,0,-1
 194 591 l 1,1,-1
 46 732 l 1,2,-1
 84 771 l 1,3,-1
 193 667 l 1,4,-1
 298 771 l 1,5,-1
 336 732 l 1,0,-1
EndSplineSet
EndChar

StartChar: ordfeminine
Encoding: 170 170 128
Width: 380
Flags: HMW
HStem: 380 50 659 50
VStem: 76 68 308 60
LayerCount: 2
Fore
SplineSet
347 391 m 1,0,1
 278.230769231 379.538461538 278.230769231 379.538461538 247.307692308 379.538461538 c 128,-1,2
 216.384615385 379.538461538 216.384615385 379.538461538 185.692307692 382.769230769 c 128,-1,3
 155 386 155 386 132 400 c 128,-1,4
 109 414 109 414 93.5 444 c 128,-1,5
 78 474 78 474 78 519 c 0,6,7
 78 601 78 601 140 624.5 c 0,8,9
 158.327044025 631.446540881 158.327044025 631.446540881 179.362802104 631.446540881 c 0,10,11
 229.490566038 631.446540881 229.490566038 631.446540881 295 592 c 1,12,13
 295 624 295 624 267.5 645 c 128,-1,14
 240 666 240 666 178 666 c 1,15,-1
 181 709 l 1,16,17
 279 709 279 709 313 671.5 c 128,-1,18
 347 634 347 634 347 555 c 2,19,-1
 347 391 l 1,0,1
295 435 m 1,20,-1
 295 543 l 1,21,22
 221.697247706 583.532110092 221.697247706 583.532110092 180.0021042 583.532110092 c 0,23,24
 125 583.532110092 125 583.532110092 125 513 c 0,25,26
 125 453 125 453 174.5 433.5 c 0,27,28
 198.333333333 424.111111111 198.333333333 424.111111111 228.259259259 424.111111111 c 128,-1,29
 258.185185185 424.111111111 258.185185185 424.111111111 295 435 c 1,20,-1
EndSplineSet
EndChar

StartChar: Lslash
Encoding: 321 321 129
Width: 595
Flags: HMW
HStem: 0 80 694 20G
VStem: 201 95
LayerCount: 2
Fore
SplineSet
562 0 m 1,0,-1
 201 0 l 1,1,-1
 201 353 l 1,2,-1
 100 308 l 1,3,-1
 78 358 l 1,4,-1
 201 413 l 1,5,-1
 201 700 l 1,6,-1
 257 700 l 1,7,-1
 257 438 l 1,8,-1
 369 489 l 1,9,-1
 392 439 l 1,10,-1
 257 378 l 1,11,-1
 257 50 l 1,12,-1
 562 50 l 1,13,-1
 562 0 l 1,0,-1
EndSplineSet
EndChar

StartChar: lslash
Encoding: 322 322 130
Width: 425
Flags: HMW
HStem: 0 21G<214 270 214 214> 496 20G 694 20G
VStem: 192 85 214 56<0 359 359 359 444 649 649 649>
LayerCount: 2
Fore
SplineSet
270 0 m 1,0,-1
 214 0 l 1,1,-1
 214 359 l 1,2,-1
 100 308 l 1,3,-1
 78 358 l 1,4,-1
 214 419 l 1,5,-1
 214 649 l 1,6,-1
 147 651 l 1,7,-1
 147 700 l 1,8,-1
 270 700 l 1,9,-1
 270 444 l 1,10,-1
 369 489 l 1,11,-1
 392 439 l 1,12,-1
 270 384 l 1,13,-1
 270 0 l 1,0,-1
EndSplineSet
EndChar

StartChar: mu
Encoding: 181 181 131
Width: 478
Flags: HMW
HStem: -201 21G<37 37> -12 75 0 21G 497 20G
VStem: 37 85 380 85
LayerCount: 2
Fore
SplineSet
444 27 m 1,0,-1
 417 -6 l 1,1,2
 391 -6 391 -6 373 25 c 1,3,4
 336.02 -11.98 336.02 -11.98 261.3204 -11.98 c 0,5,6
 184.77625 -11.98 184.77625 -11.98 110.5 29 c 0,7,8
 96 37 96 37 94 38 c 1,9,-1
 94 -210 l 1,10,-1
 37 -201 l 1,11,-1
 37 501 l 1,12,-1
 94 501 l 1,13,-1
 94 105 l 1,14,15
 117.714285714 81.2857142857 117.714285714 81.2857142857 162.357142857 61.6428571429 c 0,16,17
 212.422333572 39.6141732283 212.422333572 39.6141732283 257.327794656 39.6141732283 c 0,18,19
 360 39.6141732283 360 39.6141732283 360 153 c 2,20,-1
 360 498 l 1,21,-1
 417 510 l 1,22,-1
 417 69 l 1,23,24
 420 41 420 41 444 27 c 1,0,-1
EndSplineSet
EndChar

StartChar: trademark
Encoding: 8482 8482 132
Width: 585
Flags: HMW
HStem: 659 55
VStem: 105 63<512 700 512 700> 205 67 375 102<592 592>
LayerCount: 2
Fore
SplineSet
477 512 m 1,0,-1
 431 512 l 1,1,-1
 431 632 l 1,2,-1
 391 512 l 1,3,-1
 360 512 l 1,4,-1
 320 632 l 1,5,-1
 320 512 l 1,6,-1
 272 512 l 1,7,-1
 272 654 l 1,8,-1
 216 654 l 1,9,-1
 216 512 l 1,10,-1
 168 512 l 1,11,-1
 168 654 l 1,12,-1
 105 654 l 1,13,-1
 105 700 l 1,14,-1
 336 700 l 1,15,-1
 375 592 l 1,16,-1
 413 700 l 1,17,-1
 477 700 l 1,18,-1
 477 512 l 1,0,-1
EndSplineSet
EndChar

StartChar: plusminus
Encoding: 177 177 133
Width: 431
Flags: HMW
HStem: 0 68 271 68
VStem: 295 68
LayerCount: 2
Fore
SplineSet
398 237 m 1,0,-1
 78 237 l 1,1,-1
 78 292 l 1,2,-1
 211 292 l 1,3,-1
 211 358 l 1,4,-1
 78 358 l 1,5,-1
 78 413 l 1,6,-1
 211 413 l 1,7,-1
 211 545 l 1,8,-1
 266 545 l 1,9,-1
 266 413 l 1,10,-1
 398 413 l 1,11,-1
 398 358 l 1,12,-1
 266 358 l 1,13,-1
 266 292 l 1,14,-1
 398 292 l 1,15,-1
 398 237 l 1,0,-1
EndSplineSet
EndChar

StartChar: divide
Encoding: 247 247 134
Width: 431
Flags: HMW
HStem: -17 21G 219 68 503 20G
VStem: 171 128
LayerCount: 2
Fore
SplineSet
398 358 m 1,0,-1
 78 358 l 1,1,-1
 78 413 l 1,2,-1
 398 413 l 1,3,-1
 398 358 l 1,0,-1
240 479 m 128,-1,5
 226 479 226 479 216.5 488.5 c 128,-1,6
 207 498 207 498 207 512 c 128,-1,7
 207 526 207 526 216.5 535.5 c 128,-1,8
 226 545 226 545 240 545 c 128,-1,9
 254 545 254 545 263.5 535.5 c 128,-1,10
 273 526 273 526 273 512 c 128,-1,11
 273 498 273 498 263.5 488.5 c 128,-1,4
 254 479 254 479 240 479 c 128,-1,5
240 222 m 128,-1,13
 226 222 226 222 216.5 232 c 128,-1,14
 207 242 207 242 207 255 c 128,-1,15
 207 268 207 268 216.5 278 c 128,-1,16
 226 288 226 288 240 288 c 128,-1,17
 254 288 254 288 263.5 278 c 128,-1,18
 273 268 273 268 273 255 c 128,-1,19
 273 242 273 242 263.5 232 c 128,-1,12
 254 222 254 222 240 222 c 128,-1,13
EndSplineSet
EndChar

StartChar: degree
Encoding: 176 176 135
Width: 399
Flags: HMW
HStem: 421 238<192.5 251.5 192.5 262> 471 238<192.5 251.5>
VStem: 78 238<541.5 588.5 541.5 605> 128 238<541.5 588.5>
LayerCount: 2
Fore
SplineSet
222 421 m 128,-1,1
 162 421 162 421 120 463 c 128,-1,2
 78 505 78 505 78 565 c 128,-1,3
 78 625 78 625 120 667 c 128,-1,4
 162 709 162 709 222 709 c 128,-1,5
 282 709 282 709 324 667 c 128,-1,6
 366 625 366 625 366 565 c 128,-1,7
 366 505 366 505 324 463 c 128,-1,0
 282 421 282 421 222 421 c 128,-1,1
316 565 m 128,-1,9
 316 602 316 602 290 630.5 c 128,-1,10
 264 659 264 659 222 659 c 128,-1,11
 180 659 180 659 154 630.5 c 128,-1,12
 128 602 128 602 128 565 c 128,-1,13
 128 528 128 528 154 499.5 c 128,-1,14
 180 471 180 471 222 471 c 128,-1,15
 264 471 264 471 290 499.5 c 128,-1,8
 316 528 316 528 316 565 c 128,-1,9
EndSplineSet
EndChar

StartChar: registered
Encoding: 174 174 136
Width: 800
Flags: HMW
HStem: -17 55 327 55 521 55 676 55
VStem: 24 68 255 68 509 68 708 68
LayerCount: 2
Fore
SplineSet
587 39 m 1,0,-1
 520 39 l 1,1,-1
 401 229 l 1,2,-1
 320 229 l 1,3,-1
 320 39 l 1,4,-1
 264 39 l 1,5,-1
 264 476 l 1,6,-1
 424 476 l 2,7,8
 499 476 499 476 538 442 c 128,-1,9
 577 408 577 408 577 353.5 c 128,-1,10
 577 299 577 299 545.5 269.5 c 128,-1,11
 514 240 514 240 462 234 c 1,12,-1
 587 39 l 1,0,-1
320 282 m 1,13,-1
 394 282 l 2,14,15
 488.161290323 282 488.161290323 282 509.5 313.5 c 0,16,17
 520 329 520 329 520 354 c 0,18,19
 520 393 520 393 488 409 c 128,-1,20
 456 425 456 425 413 425 c 2,21,-1
 320 425 l 1,22,-1
 320 282 l 1,13,-1
665 -19 m 128,-1,24
 556 -127 556 -127 400.5 -127 c 128,-1,25
 245 -127 245 -127 135 -19 c 128,-1,26
 25 89 25 89 25 248 c 128,-1,27
 25 407 25 407 134 514 c 128,-1,28
 243 621 243 621 400.5 621 c 128,-1,29
 558 621 558 621 666 514 c 128,-1,30
 774 407 774 407 774 248 c 128,-1,23
 774 89 774 89 665 -19 c 128,-1,24
175.5 18 m 128,-1,32
 267 -72 267 -72 400 -72 c 128,-1,33
 533 -72 533 -72 624.5 18.5 c 128,-1,34
 716 109 716 109 716 245 c 128,-1,35
 716 381 716 381 623.5 473.5 c 128,-1,36
 531 566 531 566 399.5 566 c 128,-1,37
 268 566 268 566 176 476.5 c 128,-1,38
 84 387 84 387 84 247.5 c 128,-1,31
 84 108 84 108 175.5 18 c 128,-1,32
EndSplineSet
EndChar

StartChar: multiply
Encoding: 215 215 137
Width: 395
Flags: HMW
HStem: 24 458
VStem: 78 284<205 205 205 462>
LayerCount: 2
Fore
SplineSet
362 205 m 1,0,-1
 320 168 l 1,1,-1
 220 290 l 1,2,-1
 120 168 l 1,3,-1
 78 205 l 1,4,-1
 184 333 l 1,5,-1
 78 462 l 1,6,-1
 119 497 l 1,7,-1
 220 375 l 1,8,-1
 321 497 l 1,9,-1
 362 462 l 1,10,-1
 255 333 l 1,11,-1
 362 205 l 1,0,-1
EndSplineSet
EndChar

StartChar: copyright
Encoding: 169 169 138
Width: 800
Flags: HMW
HStem: -17 55 128 55 530 55 676 55
VStem: 24 68 191 68 708 68
LayerCount: 2
Fore
SplineSet
665 -19 m 128,-1,1
 556 -127 556 -127 400.5 -127 c 128,-1,2
 245 -127 245 -127 135 -19 c 128,-1,3
 25 89 25 89 25 248 c 128,-1,4
 25 407 25 407 134 514 c 128,-1,5
 243 621 243 621 400.5 621 c 128,-1,6
 558 621 558 621 666 514 c 128,-1,7
 774 407 774 407 774 248 c 128,-1,0
 774 89 774 89 665 -19 c 128,-1,1
175.5 18 m 128,-1,9
 267 -72 267 -72 400 -72 c 128,-1,10
 533 -72 533 -72 624.5 18.5 c 128,-1,11
 716 109 716 109 716 245 c 128,-1,12
 716 381 716 381 623.5 473.5 c 128,-1,13
 531 566 531 566 399.5 566 c 128,-1,14
 268 566 268 566 176 476.5 c 128,-1,15
 84 387 84 387 84 247.5 c 128,-1,8
 84 108 84 108 175.5 18 c 128,-1,9
535 175 m 1,16,-1
 599 175 l 1,17,18
 583 103 583 103 529 59.5 c 128,-1,19
 475 16 475 16 405 16 c 0,20,21
 306 16 306 16 248.5 81 c 128,-1,22
 191 146 191 146 191 244.5 c 128,-1,23
 191 343 191 343 248 410.5 c 128,-1,24
 305 478 305 478 403 478 c 0,25,26
 476 478 476 478 531 435 c 128,-1,27
 586 392 586 392 598 323 c 1,28,-1
 535 323 l 1,29,30
 527 363 527 363 490 391 c 128,-1,31
 453 419 453 419 404 419 c 0,32,33
 328 419 328 419 290.5 370 c 128,-1,34
 253 321 253 321 253 247.5 c 128,-1,35
 253 174 253 174 292 124 c 128,-1,36
 331 74 331 74 405 74 c 0,37,38
 455 74 455 74 491.5 102.5 c 128,-1,39
 528 131 528 131 535 175 c 1,16,-1
EndSplineSet
EndChar

StartChar: Delta
Encoding: 8710 8710 139
Width: 616
Flags: HMW
HStem: 0 65 622 91
VStem: 97 586
LayerCount: 2
Fore
SplineSet
583 0 m 1,0,-1
 78 0 l 1,1,-1
 302 700 l 1,2,-1
 355 700 l 1,3,-1
 583 0 l 1,0,-1
507 50 m 1,4,-1
 328 613 l 1,5,-1
 152 50 l 1,6,-1
 507 50 l 1,4,-1
EndSplineSet
EndChar

StartChar: Omega
Encoding: 8486 8486 140
Width: 625
Flags: HMW
HStem: 0 66 639 67
VStem: 115 81 628 81
LayerCount: 2
Fore
SplineSet
592 0 m 1,0,-1
 364 0 l 1,1,-1
 364 51 l 1,2,3
 440.001381268 65.5296758307 440.001381268 65.5296758307 467.222149828 81.9105503201 c 0,4,5
 523 115.476463822 523 115.476463822 523 196 c 2,6,-1
 523 513 l 2,7,8
 523 580 523 580 486.5 618 c 128,-1,9
 450 656 450 656 391 656 c 2,10,-1
 279 656 l 2,11,12
 220 656 220 656 183.5 618 c 128,-1,13
 147 580 147 580 147 513 c 2,14,-1
 147 196 l 2,15,16
 147 135.5 147 135.5 179 99.5 c 0,17,18
 206.374226411 68.7039952873 206.374226411 68.7039952873 296.221737195 52.8406540864 c 0,19,20
 303 52 303 52 306 51 c 1,21,-1
 306 0 l 1,22,-1
 78 0 l 1,23,-1
 95 51 l 1,24,-1
 160 51 l 1,25,26
 91 94 91 94 91 196 c 2,27,-1
 91 503 l 2,28,29
 91 595 91 595 138 651 c 128,-1,30
 185 707 185 707 279 707 c 2,31,-1
 391 707 l 2,32,33
 485 707 485 707 532 651 c 128,-1,34
 579 595 579 595 579 503 c 2,35,-1
 579 196 l 2,36,37
 579 96 579 96 506 51 c 1,38,-1
 575 51 l 1,39,-1
 592 0 l 1,0,-1
EndSplineSet
EndChar

StartChar: pi
Encoding: 960 960 141
Width: 511
Flags: HMW
HStem: 0 21G<66 122 66 66> 449 68
VStem: 131 79 387 80
LayerCount: 2
Fore
SplineSet
474 27 m 1,0,-1
 447 -6 l 1,1,2
 445 -5 445 -5 441 -4 c 128,-1,3
 437 -3 437 -3 426.5 3 c 128,-1,4
 416 9 416 9 408.5 17.5 c 0,5,6
 388 40.7333333333 388 40.7333333333 388 79 c 2,7,-1
 389 454 l 1,8,-1
 122 454 l 1,9,-1
 122 0 l 1,10,-1
 66 0 l 1,11,-1
 66 501 l 1,12,-1
 445 501 l 1,13,-1
 445 69 l 1,14,15
 450 41 450 41 474 27 c 1,0,-1
EndSplineSet
EndChar

StartChar: uni00AD
Encoding: 173 173 142
Width: 410
Flags: HMW
HStem: 238 80
VStem: 50 289
LayerCount: 2
Fore
SplineSet
365 358 m 1,0,-1
 45 358 l 1,1,-1
 45 413 l 1,2,-1
 365 413 l 1,3,-1
 365 358 l 1,0,-1
EndSplineSet
EndChar

StartChar: f_l
Encoding: 64258 64258 143
Width: 395
Flags: HMW
HStem: 0 21G<78 134 78 78 306 362 306 306> 442 75 647 75 694 20G
VStem: 141 85 407 85
LayerCount: 2
Fore
SplineSet
78 561 m 2,0,1
 78 629 78 629 121.191176471 667.823529412 c 128,-1,2
 164.382352941 706.647058824 164.382352941 706.647058824 230.973404255 706.647058824 c 128,-1,3
 297.564455569 706.647058824 297.564455569 706.647058824 362 657 c 1,4,-1
 362 0 l 1,5,-1
 306 0 l 1,6,-1
 306 623 l 1,7,8
 260.90625 646.765625 260.90625 646.765625 231.5234375 646.765625 c 128,-1,9
 202.140625 646.765625 202.140625 646.765625 183 637 c 0,10,11
 134 612 134 612 134 549 c 2,12,-1
 134 501 l 1,13,-1
 248 501 l 1,14,-1
 224 448 l 1,15,-1
 134 448 l 1,16,-1
 134 0 l 1,17,-1
 78 0 l 1,18,-1
 78 561 l 2,0,1
EndSplineSet
EndChar

StartChar: Epsilontonos
Encoding: 904 904 144
Width: 612
Flags: HMW
HStem: 0 50<301 577 301 577> 568 143 569 143 648 52<301 579 301 301>
VStem: 82 109 88 109 245 56<50 358 413 648>
LayerCount: 2
Fore
SplineSet
122 568 m 1,0,-1
 78 568 l 1,1,-1
 129 686 l 2,2,3
 139.769230769 709.076923077 139.769230769 709.076923077 160.597633136 709.076923077 c 0,4,5
 188.009615385 709.076923077 188.009615385 709.076923077 194.5 686 c 0,6,7
 199 670 199 670 191 660 c 2,8,-1
 122 568 l 1,0,-1
577 0 m 1,9,-1
 245 0 l 1,10,-1
 245 700 l 1,11,-1
 579 700 l 1,12,-1
 579 648 l 1,13,-1
 301 648 l 1,14,-1
 301 413 l 1,15,-1
 492 413 l 1,16,-1
 473 358 l 1,17,-1
 301 358 l 1,18,-1
 301 50 l 1,19,-1
 577 50 l 1,20,-1
 577 0 l 1,9,-1
EndSplineSet
EndChar

StartChar: Etatonos
Encoding: 905 905 145
Width: 710
Flags: HMW
HStem: 568 143 569 143
VStem: 80 109 82 109 239 56 247 56<0 358 0 413 413 700> 613 56 621 56<0 358 358 358 413 700>
LayerCount: 2
Fore
SplineSet
122 568 m 1,0,-1
 78 568 l 1,1,-1
 129 686 l 2,2,3
 139.769230769 709.076923077 139.769230769 709.076923077 160.597633136 709.076923077 c 0,4,5
 188.009615385 709.076923077 188.009615385 709.076923077 194.5 686 c 0,6,7
 199 670 199 670 191 660 c 2,8,-1
 122 568 l 1,0,-1
677 0 m 1,9,-1
 621 0 l 1,10,-1
 621 358 l 1,11,-1
 303 358 l 1,12,-1
 303 0 l 1,13,-1
 247 0 l 1,14,-1
 247 700 l 1,15,-1
 303 700 l 1,16,-1
 303 413 l 1,17,-1
 621 413 l 1,18,-1
 621 700 l 1,19,-1
 677 700 l 1,20,-1
 677 0 l 1,9,-1
EndSplineSet
EndChar

StartChar: Iotatonos
Encoding: 906 906 146
Width: 390
Flags: HMW
HStem: 568 143 569 143
VStem: 82 109 90 109 301 56<0 649 649 649> 304 56
LayerCount: 2
Fore
SplineSet
357 0 m 1,0,-1
 301 0 l 1,1,-1
 301 649 l 1,2,-1
 234 651 l 1,3,-1
 234 700 l 1,4,-1
 357 700 l 1,5,-1
 357 0 l 1,0,-1
122 568 m 1,6,-1
 78 568 l 1,7,-1
 129 686 l 2,8,9
 139.769230769 709.076923077 139.769230769 709.076923077 160.597633136 709.076923077 c 0,10,11
 188.009615385 709.076923077 188.009615385 709.076923077 194.5 686 c 0,12,13
 196.12 680.24 196.12 680.24 196.12 673.32 c 128,-1,14
 196.12 666.4 196.12 666.4 191 660 c 2,15,-1
 122 568 l 1,6,-1
EndSplineSet
EndChar

StartChar: Omicrontonos
Encoding: 908 908 147
Width: 648
Flags: HMW
HStem: 0 42 568 143 569 143 663 53<361 449.5>
VStem: 82 109 87 109 194 21 195 56<185 186 186 507 507 516> 560 55<187 506>
LayerCount: 2
Fore
SplineSet
615 506 m 2,0,-1
 615 185 l 2,1,2
 615 84 615 84 553.5 36.5 c 128,-1,3
 492 -11 492 -11 406 -11 c 128,-1,4
 320 -11 320 -11 257.5 36.5 c 128,-1,5
 195 84 195 84 195 185 c 2,6,-1
 195 507 l 2,7,8
 195 610 195 610 251.5 663 c 128,-1,9
 308 716 308 716 407 716 c 128,-1,10
 506 716 506 716 560.5 660 c 128,-1,11
 615 604 615 604 615 506 c 2,0,-1
560 187 m 2,12,-1
 560 516 l 2,13,14
 560 589 560 589 517.5 626 c 128,-1,15
 475 663 475 663 405 663 c 128,-1,16
 335 663 335 663 293 626 c 128,-1,17
 251 589 251 589 251 516 c 2,18,-1
 251 186 l 2,19,20
 251 115 251 115 294.5 78.5 c 128,-1,21
 338 42 338 42 405.5 42 c 128,-1,22
 473 42 473 42 516.5 77.5 c 128,-1,23
 560 113 560 113 560 187 c 2,12,-1
122 568 m 1,24,-1
 78 568 l 1,25,-1
 129 686 l 2,26,27
 139.769230769 709.076923077 139.769230769 709.076923077 160.597633136 709.076923077 c 0,28,29
 188.009615385 709.076923077 188.009615385 709.076923077 194.5 686 c 0,30,31
 196.12 680.24 196.12 680.24 196.12 673.32 c 128,-1,32
 196.12 666.4 196.12 666.4 191 660 c 2,33,-1
 122 568 l 1,24,-1
EndSplineSet
EndChar

StartChar: Upsilontonos
Encoding: 910 910 148
Width: 714
Flags: HMW
HStem: 0 21G 568 143 694 20G
VStem: 82 109 87 109 237 56<453 700> 624 57<152 156 156 294 294 294 400 700>
LayerCount: 2
Fore
SplineSet
122 568 m 1,0,-1
 78 568 l 1,1,-1
 129 686 l 2,2,3
 139.769230769 709.076923077 139.769230769 709.076923077 160.597633136 709.076923077 c 0,4,5
 188.009615385 709.076923077 188.009615385 709.076923077 194.5 686 c 0,6,7
 199 670 199 670 191 660 c 2,8,-1
 122 568 l 1,0,-1
576 -7 m 1,9,-1
 563 30 l 1,10,11
 624 53 624 53 624 152 c 2,12,-1
 624 294 l 1,13,14
 597 270 597 270 552 257.5 c 128,-1,15
 507 245 507 245 466 245 c 0,16,17
 360 245 360 245 298.5 297.5 c 128,-1,18
 237 350 237 350 237 453 c 2,19,-1
 237 700 l 1,20,-1
 293 700 l 1,21,-1
 293 443 l 2,22,23
 293 373 293 373 341 336.5 c 128,-1,24
 389 300 389 300 457 300 c 128,-1,25
 525 300 525 300 569 325 c 128,-1,26
 613 350 613 350 624 400 c 1,27,-1
 624 700 l 1,28,-1
 681 700 l 1,29,-1
 681 156 l 2,30,31
 681 83 681 83 653.5 41.5 c 128,-1,32
 626 0 626 0 576 -7 c 1,9,-1
EndSplineSet
EndChar

StartChar: Omegatonos
Encoding: 911 911 149
Width: 719
Flags: HMW
HStem: 0 66 568 143 639 67
VStem: 80 109 82 109 209 81 722 81
LayerCount: 2
Fore
SplineSet
686 0 m 1,0,-1
 458 0 l 1,1,-1
 458 51 l 1,2,3
 534.001381268 65.5296758307 534.001381268 65.5296758307 561.222149828 81.9105503201 c 0,4,5
 617 115.476463822 617 115.476463822 617 196 c 2,6,-1
 617 513 l 2,7,8
 617 580 617 580 580.5 618 c 128,-1,9
 544 656 544 656 485 656 c 2,10,-1
 373 656 l 2,11,12
 314 656 314 656 277.5 618 c 128,-1,13
 241 580 241 580 241 513 c 2,14,-1
 241 196 l 2,15,16
 241 135.5 241 135.5 273 99.5 c 0,17,18
 300.374226411 68.7039952873 300.374226411 68.7039952873 390.221737195 52.8406540864 c 0,19,20
 397 52 397 52 400 51 c 1,21,-1
 400 0 l 1,22,-1
 172 0 l 1,23,-1
 189 51 l 1,24,-1
 254 51 l 1,25,26
 185 94 185 94 185 196 c 2,27,-1
 185 503 l 2,28,29
 185 595 185 595 232 651 c 128,-1,30
 279 707 279 707 373 707 c 2,31,-1
 485 707 l 2,32,33
 579 707 579 707 626 651 c 128,-1,34
 673 595 673 595 673 503 c 2,35,-1
 673 196 l 2,36,37
 673 96 673 96 600 51 c 1,38,-1
 669 51 l 1,39,-1
 686 0 l 1,0,-1
122 568 m 1,40,-1
 78 568 l 1,41,-1
 129 686 l 2,42,43
 139.769230769 709.076923077 139.769230769 709.076923077 160.597633136 709.076923077 c 0,44,45
 188.009615385 709.076923077 188.009615385 709.076923077 194.5 686 c 0,46,47
 196.12 680.24 196.12 680.24 196.12 673.32 c 128,-1,48
 196.12 666.4 196.12 666.4 191 660 c 2,49,-1
 122 568 l 1,40,-1
EndSplineSet
EndChar

StartChar: iotatonos
Encoding: 943 943 150
Width: 239
Flags: HMW
HStem: 0 21G<78 134 78 78> 497 20G 538 143 610 104
VStem: 78 56<0 501> 92 109 98 85
LayerCount: 2
Fore
SplineSet
132 538 m 1,0,-1
 88 538 l 1,1,-1
 139 656 l 2,2,3
 149.769230769 679.076923077 149.769230769 679.076923077 170.597633136 679.076923077 c 0,4,5
 198.009615385 679.076923077 198.009615385 679.076923077 204.5 656 c 0,6,7
 206.12 650.24 206.12 650.24 206.12 643.32 c 128,-1,8
 206.12 636.4 206.12 636.4 201 630 c 2,9,-1
 132 538 l 1,0,-1
134 0 m 1,10,-1
 78 0 l 1,11,-1
 78 501 l 1,12,-1
 134 501 l 1,13,-1
 134 0 l 1,10,-1
EndSplineSet
EndChar

StartChar: etatonos
Encoding: 942 942 151
Width: 480
Flags: HMW
HStem: 0 21G<78 134 78 78> 454 75 538 143
VStem: 78 85 87 85 244 109 253 109 430 85
LayerCount: 2
Fore
SplineSet
293 538 m 1,0,-1
 249 538 l 1,1,-1
 300 656 l 2,2,3
 310.769230769 679.076923077 310.769230769 679.076923077 331.597633136 679.076923077 c 0,4,5
 359.009615385 679.076923077 359.009615385 679.076923077 365.5 656 c 0,6,7
 370 640 370 640 362 630 c 2,8,-1
 293 538 l 1,0,-1
130 467 m 1,9,10
 181.462295082 509.885245902 181.462295082 509.885245902 272.862671325 509.885245902 c 0,11,12
 325.016393443 509.885245902 325.016393443 509.885245902 362 491 c 1,13,14
 447 452 447 452 447 346 c 2,15,-1
 447 -210 l 1,16,-1
 392 -186 l 1,17,-1
 392 343 l 2,18,19
 392 395 392 395 364 424 c 0,20,21
 330.206896552 459 330.206896552 459 262.524500907 459 c 128,-1,22
 194.842105263 459 194.842105263 459 134 425 c 1,23,-1
 134 0 l 1,24,-1
 78 0 l 1,25,-1
 78 501 l 1,26,-1
 134 501 l 1,27,-1
 130 467 l 1,9,10
EndSplineSet
EndChar

StartChar: epsilontonos
Encoding: 941 941 152
Width: 456
Flags: HMW
HStem: -12 75 336 68 538 143 634 75
VStem: 58 85 68 85 229 109 418 90
LayerCount: 2
Fore
SplineSet
269 538 m 1,0,-1
 225 538 l 1,1,-1
 276 656 l 2,2,3
 286.769230769 679.076923077 286.769230769 679.076923077 307.597633136 679.076923077 c 0,4,5
 335.009615385 679.076923077 335.009615385 679.076923077 341.5 656 c 0,6,7
 346 640 346 640 338 630 c 2,8,-1
 269 538 l 1,0,-1
353 445 m 1,9,10
 309.5 458.5 309.5 458.5 261 458.5 c 1,11,-1
 229.5 457 l 1,12,13
 198 454 198 454 176.976744186 436.053318208 c 128,-1,14
 155.953488372 418.106636415 155.953488372 418.106636415 155.953488372 386.413783324 c 128,-1,15
 155.953488372 354.720930233 155.953488372 354.720930233 175.976744186 327.860465116 c 128,-1,16
 196 301 196 301 233 301 c 2,17,-1
 352 301 l 1,18,-1
 333 247 l 1,19,-1
 233 247 l 2,20,21
 186 247 186 247 160 221 c 128,-1,22
 134 195 134 195 134 146.5 c 128,-1,23
 134 98 134 98 165 69.5 c 128,-1,24
 196 41 196 41 258 41 c 0,25,26
 324.5 41 324.5 41 387 66 c 2,27,-1
 407 74 l 1,28,-1
 423 23 l 1,29,30
 345 -11 345 -11 260.5 -11 c 128,-1,31
 176 -11 176 -11 130 30 c 0,32,33
 78.2888888889 76.0903381643 78.2888888889 76.0903381643 78.2888888889 151.464691358 c 0,34,35
 78.2888888889 248.022222222 78.2888888889 248.022222222 153 279 c 1,36,37
 128 292 128 292 113.217391304 323.739130435 c 128,-1,38
 98.4347826087 355.47826087 98.4347826087 355.47826087 98.4347826087 375.391304348 c 128,-1,39
 98.4347826087 395.304347826 98.4347826087 395.304347826 100 406 c 0,40,41
 108 457 108 457 150.736842105 484.01754386 c 128,-1,42
 193.473684211 511.035087719 193.473684211 511.035087719 245.314536341 511.035087719 c 128,-1,43
 297.155388471 511.035087719 297.155388471 511.035087719 353 496 c 1,44,-1
 353 445 l 1,9,10
EndSplineSet
EndChar

StartChar: omegatonos
Encoding: 974 974 153
Width: 643
Flags: HMW
HStem: 538 143
VStem: -150 21 327 109 328 109
LayerCount: 2
Fore
SplineSet
367 538 m 1,0,-1
 323 538 l 1,1,-1
 374 656 l 2,2,3
 384.769230769 679.076923077 384.769230769 679.076923077 405.597633136 679.076923077 c 0,4,5
 433.009615385 679.076923077 433.009615385 679.076923077 439.5 656 c 0,6,7
 444 640 444 640 436 630 c 2,8,-1
 367 538 l 1,0,-1
554 178 m 2,9,-1
 554 327 l 2,10,11
 554 431 554 431 471 456 c 1,12,-1
 503 500 l 1,13,14
 610 460 610 460 610 317 c 2,15,-1
 610 188 l 2,16,17
 610 -12 610 -12 449 -12 c 0,18,19
 379 -12 379 -12 344 41 c 1,20,21
 307 -12 307 -12 239 -12 c 0,22,23
 78 -12 78 -12 78 188 c 2,24,-1
 78 317 l 2,25,26
 78 460 78 460 185 500 c 1,27,-1
 217 456 l 1,28,29
 134 431 134 431 134 327 c 2,30,-1
 134 178 l 2,31,32
 134 108 134 108 163.5 74.5 c 128,-1,33
 193 41 193 41 235 41 c 128,-1,34
 277 41 277 41 295 70 c 128,-1,35
 313 99 313 99 315 158 c 1,36,-1
 315 299 l 1,37,-1
 373 299 l 1,38,-1
 373 158 l 1,39,40
 374 99 374 99 392 70 c 128,-1,41
 410 41 410 41 452.5 41 c 128,-1,42
 495 41 495 41 524.5 74.5 c 128,-1,43
 554 108 554 108 554 178 c 2,9,-1
EndSplineSet
EndChar

StartChar: upsilontonos
Encoding: 973 973 154
Width: 491
Flags: HMW
HStem: -12 75 497 20G 538 143
VStem: 86 85 253 109 256 109 429 85
LayerCount: 2
Fore
SplineSet
293 538 m 1,0,-1
 249 538 l 1,1,-1
 300 656 l 2,2,3
 310.769230769 679.076923077 310.769230769 679.076923077 331.597633136 679.076923077 c 0,4,5
 359.009615385 679.076923077 359.009615385 679.076923077 365.5 656 c 0,6,7
 370 640 370 640 362 630 c 2,8,-1
 293 538 l 1,0,-1
402 165 m 2,9,-1
 402 501 l 1,10,-1
 458 501 l 1,11,-1
 458 172 l 2,12,13
 458 -10 458 -10 268 -10 c 128,-1,14
 78 -10 78 -10 78 172 c 2,15,-1
 78 501 l 1,16,-1
 134 501 l 1,17,-1
 134 165 l 2,18,19
 134 101 134 101 169.5 70.5 c 128,-1,20
 205 40 205 40 266 40 c 0,21,22
 402 40 402 40 402 165 c 2,9,-1
EndSplineSet
EndChar

StartChar: omicrontonos
Encoding: 972 972 155
Width: 484
Flags: HMW
HStem: -12 75 -10 471<227 303.5 227 332> 40 472<225 308> 454 75 538 143
VStem: 58 90 78 317<184 316 316 368.5 174 379> 134 317<134.5 174 174 184 184 316> 243 109 248 109 470 90
LayerCount: 2
Fore
SplineSet
283 538 m 1,0,-1
 239 538 l 1,1,-1
 290 656 l 2,2,3
 300.769230769 679.076923077 300.769230769 679.076923077 321.597633136 679.076923077 c 0,4,5
 349.009615385 679.076923077 349.009615385 679.076923077 355.5 656 c 0,6,7
 360 640 360 640 352 630 c 2,8,-1
 283 538 l 1,0,-1
451 316 m 2,9,-1
 451 184 l 2,10,11
 451 100 451 100 405 45 c 128,-1,12
 359 -10 359 -10 266 -10 c 128,-1,13
 173 -10 173 -10 125.5 45.5 c 128,-1,14
 78 101 78 101 78 184 c 2,15,-1
 78 316 l 2,16,17
 78 411 78 411 126.5 461.5 c 128,-1,18
 175 512 175 512 264 512 c 128,-1,19
 353 512 353 512 402 459.5 c 128,-1,20
 451 407 451 407 451 316 c 2,9,-1
395 174 m 2,21,-1
 395 316 l 2,22,23
 395 461 395 461 266 461 c 0,24,25
 134 461 134 461 134 316 c 2,26,-1
 134 174 l 2,27,28
 134 114 134 114 169.5 77 c 128,-1,29
 205 40 205 40 266.5 40 c 128,-1,30
 328 40 328 40 361.5 76.5 c 128,-1,31
 395 113 395 113 395 174 c 2,21,-1
EndSplineSet
EndChar

StartChar: alphatonos
Encoding: 940 940 156
Width: 506
Flags: HMW
HStem: -198 21G -12 75 454 63 538 143
VStem: 86 90 241 109 271 109 491 85
LayerCount: 2
Fore
SplineSet
226.364883402 507.518518519 m 0,0,1
 305.962962963 507.518518519 305.962962963 507.518518519 387 467 c 1,2,-1
 406 508 l 1,3,-1
 450 486 l 1,4,5
 443 421 443 421 443 389 c 2,6,-1
 443 77 l 1,7,8
 449 49 449 49 473 35 c 1,9,-1
 446 2 l 1,10,11
 440 2 440 2 426.5 3.5 c 128,-1,12
 413 5 413 5 386.5 2.5 c 0,13,14
 311.818181818 -4.54545454545 311.818181818 -4.54545454545 271.409090909 -4.54545454545 c 128,-1,15
 231 -4.54545454545 231 -4.54545454545 210 0.227272727273 c 128,-1,16
 189 5 189 5 159.5 16.5 c 128,-1,17
 130 28 130 28 115 47 c 0,18,19
 78 93.8666666667 78 93.8666666667 78 169 c 2,20,-1
 78 354 l 2,21,22
 78 410 78 410 99.5 446 c 128,-1,23
 121 482 121 482 153.388888889 494.759259259 c 128,-1,24
 185.777777778 507.518518519 185.777777778 507.518518519 226.364883402 507.518518519 c 0,0,1
387 415 m 1,25,26
 283.336 455.92 283.336 455.92 223.0168 455.92 c 0,27,28
 205.22 455.92 205.22 455.92 186.11 450.46 c 128,-1,29
 167 445 167 445 150 420 c 128,-1,30
 133 395 133 395 133 351 c 2,31,-1
 133 162 l 2,32,33
 133 48.6460176991 133 48.6460176991 251.5 45.5 c 0,34,35
 258.869565217 45.3043478261 258.869565217 45.3043478261 288.586956522 45.3043478261 c 128,-1,36
 318.304347826 45.3043478261 318.304347826 45.3043478261 387 54 c 1,37,-1
 387 415 l 1,25,26
281 538 m 1,38,-1
 237 538 l 1,39,-1
 288 656 l 2,40,41
 298.769230769 679.076923077 298.769230769 679.076923077 319.597633136 679.076923077 c 0,42,43
 347.009615385 679.076923077 347.009615385 679.076923077 353.5 656 c 0,44,45
 355.12 650.24 355.12 650.24 355.12 643.32 c 128,-1,46
 355.12 636.4 355.12 636.4 350 630 c 2,47,-1
 281 538 l 1,38,-1
EndSplineSet
EndChar

StartChar: Upsilondieresis
Encoding: 65539 -1 157
Width: 555
Flags: HMW
HStem: 0 21G 694 20G
VStem: 78 56<453 700> 465 57<152 156 156 294 294 294 400 700>
LayerCount: 2
Fore
SplineSet
417 -7 m 1,0,-1
 404 30 l 1,1,2
 465 53 465 53 465 152 c 2,3,-1
 465 294 l 1,4,5
 438 270 438 270 393 257.5 c 128,-1,6
 348 245 348 245 307 245 c 0,7,8
 201 245 201 245 139.5 297.5 c 128,-1,9
 78 350 78 350 78 453 c 2,10,-1
 78 700 l 1,11,-1
 134 700 l 1,12,-1
 134 443 l 2,13,14
 134 373 134 373 182 336.5 c 128,-1,15
 230 300 230 300 298 300 c 0,16,17
 366 300 366 300 410 325 c 128,-1,18
 454 350 454 350 465 400 c 1,19,-1
 465 700 l 1,20,-1
 522 700 l 1,21,-1
 522 156 l 2,22,23
 522 83 522 83 494.5 41.5 c 128,-1,24
 467 0 467 0 417 -7 c 1,0,-1
223 731 m 128,-1,26
 210 731 210 731 200 740.5 c 128,-1,27
 190 750 190 750 190 764 c 128,-1,28
 190 778 190 778 200 787.5 c 128,-1,29
 210 797 210 797 223 797 c 128,-1,30
 236 797 236 797 246 787.5 c 128,-1,31
 256 778 256 778 256 764 c 128,-1,32
 256 750 256 750 246 740.5 c 128,-1,25
 236 731 236 731 223 731 c 128,-1,26
379 731 m 128,-1,34
 366 731 366 731 356 740.5 c 128,-1,35
 346 750 346 750 346 764 c 128,-1,36
 346 778 346 778 356 787.5 c 128,-1,37
 366 797 366 797 379 797 c 128,-1,38
 392 797 392 797 402 787.5 c 128,-1,39
 412 778 412 778 412 764 c 128,-1,40
 412 750 412 750 402 740.5 c 128,-1,33
 392 731 392 731 379 731 c 128,-1,34
EndSplineSet
EndChar

StartChar: iotadieresis
Encoding: 970 970 158
Width: 276
Flags: HMW
HStem: 0 21G<105 161 105 105> 497 20G 610 104
VStem: 105 56<0 501> 125 85
LayerCount: 2
Fore
SplineSet
161 0 m 1,0,-1
 105 0 l 1,1,-1
 105 501 l 1,2,-1
 161 501 l 1,3,-1
 161 0 l 1,0,-1
54 539 m 128,-1,5
 40 539 40 539 30.5 548.5 c 128,-1,6
 21 558 21 558 21 572 c 128,-1,7
 21 586 21 586 30.5 595.5 c 128,-1,8
 40 605 40 605 54 605 c 128,-1,9
 68 605 68 605 77.5 595.5 c 128,-1,10
 87 586 87 586 87 572 c 128,-1,11
 87 558 87 558 77.5 548.5 c 128,-1,4
 68 539 68 539 54 539 c 128,-1,5
210 539 m 128,-1,13
 196 539 196 539 186.5 548.5 c 128,-1,14
 177 558 177 558 177 572 c 128,-1,15
 177 586 177 586 186.5 595.5 c 128,-1,16
 196 605 196 605 210 605 c 128,-1,17
 224 605 224 605 233.5 595.5 c 128,-1,18
 243 586 243 586 243 572 c 128,-1,19
 243 558 243 558 233.5 548.5 c 128,-1,12
 224 539 224 539 210 539 c 128,-1,13
EndSplineSet
EndChar

StartChar: upsilondieresis
Encoding: 971 971 159
Width: 491
Flags: HMW
HStem: -12 75 0 21G 497 20G
VStem: 76 85 102 80 419 85 443 85
LayerCount: 2
Fore
SplineSet
191 539 m 128,-1,1
 178 539 178 539 168 548.5 c 128,-1,2
 158 558 158 558 158 572 c 128,-1,3
 158 586 158 586 168 595.5 c 128,-1,4
 178 605 178 605 191 605 c 128,-1,5
 204 605 204 605 214 595.5 c 128,-1,6
 224 586 224 586 224 572 c 128,-1,7
 224 558 224 558 214 548.5 c 128,-1,0
 204 539 204 539 191 539 c 128,-1,1
347 539 m 128,-1,9
 334 539 334 539 324 548.5 c 128,-1,10
 314 558 314 558 314 572 c 128,-1,11
 314 586 314 586 324 595.5 c 128,-1,12
 334 605 334 605 347 605 c 128,-1,13
 360 605 360 605 370 595.5 c 128,-1,14
 380 586 380 586 380 572 c 128,-1,15
 380 558 380 558 370 548.5 c 128,-1,8
 360 539 360 539 347 539 c 128,-1,9
402 165 m 2,16,-1
 402 501 l 1,17,-1
 458 501 l 1,18,-1
 458 172 l 2,19,20
 458 -10 458 -10 268 -10 c 0,21,22
 78 -10 78 -10 78 172 c 2,23,-1
 78 501 l 1,24,-1
 134 501 l 1,25,-1
 134 165 l 2,26,27
 134 101 134 101 169.5 70.5 c 128,-1,28
 205 40 205 40 266 40 c 0,29,30
 402 40 402 40 402 165 c 2,16,-1
EndSplineSet
EndChar

StartChar: Iotadieresis
Encoding: 938 938 160
Width: 373
Flags: HMW
VStem: 161 56 164 56<0 649 649 649>
LayerCount: 2
Fore
SplineSet
113 731 m 128,-1,1
 100 731 100 731 90 740.5 c 128,-1,2
 80 750 80 750 80 764 c 128,-1,3
 80 778 80 778 90 787.5 c 128,-1,4
 100 797 100 797 113 797 c 128,-1,5
 126 797 126 797 136 787.5 c 128,-1,6
 146 778 146 778 146 764 c 128,-1,7
 146 750 146 750 136 740.5 c 128,-1,0
 126 731 126 731 113 731 c 128,-1,1
269 731 m 128,-1,9
 256 731 256 731 246 740.5 c 128,-1,10
 236 750 236 750 236 764 c 128,-1,11
 236 778 236 778 246 787.5 c 128,-1,12
 256 797 256 797 269 797 c 128,-1,13
 282 797 282 797 292 787.5 c 128,-1,14
 302 778 302 778 302 764 c 128,-1,15
 302 750 302 750 292 740.5 c 128,-1,8
 282 731 282 731 269 731 c 128,-1,9
220 0 m 1,16,-1
 164 0 l 1,17,-1
 164 649 l 1,18,-1
 97 651 l 1,19,-1
 97 700 l 1,20,-1
 220 700 l 1,21,-1
 220 0 l 1,16,-1
EndSplineSet
EndChar

StartChar: Psi
Encoding: 936 936 161
Width: 632
Flags: HMW
VStem: -84 21
LayerCount: 2
Fore
SplineSet
351 0 m 1,0,-1
 294 0 l 1,1,-1
 293 212 l 1,2,-1
 249 212 l 2,3,4
 154 212 154 212 107.5 263.5 c 128,-1,5
 61 315 61 315 61 406 c 2,6,-1
 61 700 l 1,7,-1
 117 700 l 1,8,-1
 117 396 l 2,9,10
 117 330 117 330 153 296 c 128,-1,11
 189 262 189 262 249 262 c 2,12,-1
 293 262 l 1,13,-1
 293 700 l 1,14,-1
 351 700 l 1,15,-1
 351 262 l 1,16,-1
 400 262 l 2,17,18
 460 262 460 262 496 296 c 128,-1,19
 532 330 532 330 532 396 c 2,20,-1
 532 564 l 2,21,22
 532 604 532 604 525 630.5 c 128,-1,23
 518 657 518 657 511 666 c 128,-1,24
 504 675 504 675 487 693 c 1,25,-1
 532 709 l 1,26,27
 559 692 559 692 572 662.5 c 128,-1,28
 585 633 585 633 586.5 612 c 128,-1,29
 588 591 588 591 588 549 c 2,30,-1
 588 406 l 2,31,32
 588 315 588 315 541.5 263.5 c 128,-1,33
 495 212 495 212 400 212 c 2,34,-1
 351 212 l 1,35,-1
 351 0 l 1,0,-1
EndSplineSet
EndChar

StartChar: psi
Encoding: 968 968 162
Width: 639
Flags: HMW
VStem: -140 21
LayerCount: 2
Fore
SplineSet
368 -219 m 1,0,-1
 310 -206 l 1,1,-1
 310 -5 l 1,2,-1
 266 -5 l 2,3,4
 171 -5 171 -5 124.5 46.5 c 128,-1,5
 78 98 78 98 78 189 c 2,6,-1
 78 500 l 1,7,-1
 134 500 l 1,8,-1
 134 179 l 2,9,10
 134 113 134 113 170 79 c 128,-1,11
 206 45 206 45 266 45 c 2,12,-1
 310 45 l 1,13,-1
 310 500 l 1,14,-1
 368 500 l 1,15,-1
 368 45 l 1,16,-1
 417 45 l 2,17,18
 477 45 477 45 513 79 c 128,-1,19
 549 113 549 113 549 179 c 2,20,-1
 549 361 l 2,21,22
 549 401 549 401 542 427.5 c 128,-1,23
 535 454 535 454 528 463 c 128,-1,24
 521 472 521 472 504 490 c 1,25,-1
 549 506 l 1,26,27
 576 489 576 489 589 459.5 c 128,-1,28
 602 430 602 430 603.5 409 c 128,-1,29
 605 388 605 388 605 346 c 2,30,-1
 605 189 l 2,31,32
 605 98 605 98 558.5 46.5 c 128,-1,33
 512 -5 512 -5 417 -5 c 2,34,-1
 368 -5 l 1,35,-1
 368 -219 l 1,0,-1
EndSplineSet
EndChar

StartChar: omega
Encoding: 969 969 163
Width: 635
Flags: HMW
VStem: -162 21
LayerCount: 2
Fore
SplineSet
542 178 m 2,0,-1
 542 327 l 2,1,2
 542 431 542 431 459 456 c 1,3,-1
 491 500 l 1,4,5
 598 460 598 460 598 317 c 2,6,-1
 598 188 l 2,7,8
 598 -12 598 -12 437 -12 c 0,9,10
 367 -12 367 -12 332 41 c 1,11,12
 295 -12 295 -12 227 -12 c 0,13,14
 66 -12 66 -12 66 188 c 2,15,-1
 66 317 l 2,16,17
 66 460 66 460 173 500 c 1,18,-1
 205 456 l 1,19,20
 122 431 122 431 122 327 c 2,21,-1
 122 178 l 2,22,23
 122 108 122 108 151.5 74.5 c 128,-1,24
 181 41 181 41 223 41 c 0,25,26
 265 41 265 41 283 70 c 128,-1,27
 301 99 301 99 303 158 c 1,28,-1
 303 299 l 1,29,-1
 361 299 l 1,30,-1
 361 158 l 1,31,32
 362 99 362 99 380 70 c 128,-1,33
 398 41 398 41 440.5 41 c 0,34,35
 483 41 483 41 512.5 74.5 c 128,-1,36
 542 108 542 108 542 178 c 2,0,-1
EndSplineSet
EndChar

StartChar: chi
Encoding: 967 967 164
Width: 577
Flags: HMW
HStem: 0 21G 272 21G 279 21G 497 20G
VStem: 110 500
LayerCount: 2
Fore
SplineSet
544 -172 m 1,0,-1
 516 -212 l 2,1,2
 515.163265306 -212.010204082 515.163265306 -212.010204082 514.329862557 -212.010204082 c 0,3,4
 433.489795918 -212.010204082 433.489795918 -212.010204082 384 -116 c 1,5,-1
 282 92 l 1,6,-1
 131 -204 l 1,7,-1
 78 -184 l 1,8,-1
 251 155 l 1,9,-1
 83 501 l 1,10,-1
 146 501 l 1,11,-1
 283 217 l 1,12,-1
 428 501 l 1,13,-1
 491 501 l 1,14,-1
 313 153 l 1,15,-1
 434 -96 l 2,16,17
 454.985221675 -140.068965517 454.985221675 -140.068965517 479 -153 c 0,18,19
 501.065789474 -164.881578947 501.065789474 -164.881578947 520.032894737 -167.940789474 c 128,-1,20
 539 -171 539 -171 544 -172 c 1,0,-1
EndSplineSet
EndChar

StartChar: Chi
Encoding: 935 935 165
Width: 618
Flags: HMW
HStem: 0 21G<78 147 78 78 516 585 516 516> 694 20G
VStem: 97 472<700 700>
LayerCount: 2
Fore
SplineSet
585 0 m 1,0,-1
 516 0 l 1,1,-1
 332 294 l 1,2,-1
 147 0 l 1,3,-1
 78 0 l 1,4,-1
 299 352 l 1,5,-1
 97 700 l 1,6,-1
 160 700 l 1,7,-1
 332 406 l 1,8,-1
 506 700 l 1,9,-1
 569 700 l 1,10,-1
 366 352 l 1,11,-1
 585 0 l 1,0,-1
EndSplineSet
EndChar

StartChar: phi
Encoding: 966 966 166
Width: 638
Flags: HMW
VStem: -156 21
LayerCount: 2
Fore
SplineSet
368 -216 m 1,0,-1
 311 -203 l 1,1,-1
 310 -5 l 1,2,-1
 266 -5 l 2,3,4
 171 -5 171 -5 124.5 46.5 c 128,-1,5
 78 98 78 98 78 189 c 2,6,-1
 78 314 l 2,7,8
 78 466 78 466 194 503 c 1,9,-1
 224 458 l 1,10,11
 134 435 134 435 134 314 c 2,12,-1
 134 179 l 2,13,14
 134 113 134 113 170 79 c 128,-1,15
 206 45 206 45 266 45 c 2,16,-1
 310 45 l 1,17,-1
 310 401 l 1,18,19
 313 451 313 451 342 479 c 128,-1,20
 371 507 371 507 418 507 c 0,21,22
 505 507 505 507 555 452.5 c 128,-1,23
 605 398 605 398 605 307 c 2,24,-1
 605 189 l 2,25,26
 605 98 605 98 558.5 46.5 c 128,-1,27
 512 -5 512 -5 417 -5 c 2,28,-1
 368 -5 l 1,29,-1
 368 -216 l 1,0,-1
549 179 m 2,30,-1
 549 317 l 2,31,32
 549 385 549 385 510.5 419.5 c 128,-1,33
 472 454 472 454 426 454 c 0,34,35
 368 454 368 454 368 392 c 2,36,-1
 368 45 l 1,37,-1
 417 45 l 2,38,39
 477 45 477 45 513 79 c 128,-1,40
 549 113 549 113 549 179 c 2,30,-1
EndSplineSet
EndChar

StartChar: upsilon
Encoding: 965 965 167
Width: 483
Flags: HMW
HStem: -12 75 0 21G 497 20G
VStem: 64 85 407 85
LayerCount: 2
Fore
SplineSet
390 165 m 2,0,-1
 390 501 l 1,1,-1
 446 501 l 1,2,-1
 446 172 l 2,3,4
 446 -10 446 -10 256 -10 c 0,5,6
 66 -10 66 -10 66 172 c 2,7,-1
 66 501 l 1,8,-1
 122 501 l 1,9,-1
 122 165 l 2,10,11
 122 101 122 101 157.5 70.5 c 128,-1,12
 193 40 193 40 254 40 c 0,13,14
 390 40 390 40 390 165 c 2,0,-1
EndSplineSet
EndChar

StartChar: Upsilon
Encoding: 933 933 168
Width: 556
Flags: HMW
HStem: 0 21G 694 20G
VStem: 60 56<453 700> 278 95 447 57<152 156 156 294 294 294 400 700>
LayerCount: 2
Fore
SplineSet
399 -7 m 1,0,-1
 386 30 l 1,1,2
 447 53 447 53 447 152 c 2,3,-1
 447 294 l 1,4,5
 420 270 420 270 375 257.5 c 128,-1,6
 330 245 330 245 289 245 c 0,7,8
 183 245 183 245 121.5 297.5 c 128,-1,9
 60 350 60 350 60 453 c 2,10,-1
 60 700 l 1,11,-1
 116 700 l 1,12,-1
 116 443 l 2,13,14
 116 373 116 373 164 336.5 c 128,-1,15
 212 300 212 300 280 300 c 0,16,17
 348 300 348 300 392 325 c 128,-1,18
 436 350 436 350 447 400 c 1,19,-1
 447 700 l 1,20,-1
 504 700 l 1,21,-1
 504 156 l 2,22,23
 504 83 504 83 476.5 41.5 c 128,-1,24
 449 0 449 0 399 -7 c 1,0,-1
EndSplineSet
EndChar

StartChar: Tau
Encoding: 932 932 169
Width: 513
Flags: HMW
HStem: 0 21G<248 304 248 248> 634 80
VStem: -93 21 248 56<0 650> 318 95
LayerCount: 2
Fore
SplineSet
304 0 m 1,0,-1
 248 0 l 1,1,-1
 248 650 l 1,2,-1
 78 650 l 1,3,-1
 78 700 l 1,4,-1
 480 700 l 1,5,-1
 480 650 l 1,6,-1
 304 650 l 1,7,-1
 304 0 l 1,0,-1
EndSplineSet
EndChar

StartChar: tau
Encoding: 964 964 170
Width: 412
Flags: HMW
HStem: 0 21G 497 20G 620 55
VStem: -8 341 120 85
LayerCount: 2
Fore
SplineSet
320 30 m 1,0,-1
 304 -13 l 1,1,2
 248 3 248 3 223 38 c 128,-1,3
 198 73 198 73 198 132 c 2,4,-1
 198 447 l 1,5,-1
 78 447 l 1,6,-1
 78 500 l 1,7,-1
 379 500 l 1,8,-1
 379 447 l 1,9,-1
 254 447 l 1,10,-1
 254 132 l 2,11,12
 254 52 254 52 320 30 c 1,0,-1
EndSplineSet
EndChar

StartChar: Sigma
Encoding: 931 931 171
Width: 579
Flags: HMW
HStem: 0 80 634 80
VStem: 109 568 118 487
LayerCount: 2
Fore
SplineSet
401 0 m 2,0,-1
 78 0 l 1,1,-1
 304 384 l 1,2,-1
 94 702 l 1,3,-1
 522 702 l 1,4,-1
 504 649 l 1,5,-1
 195 649 l 1,6,-1
 371 387 l 1,7,-1
 171 51 l 1,8,-1
 397 51 l 2,9,10
 435 51 435 51 463 69.5 c 128,-1,11
 491 88 491 88 503 122 c 1,12,-1
 546 106 l 1,13,14
 530 50 530 50 495 25 c 128,-1,15
 460 0 460 0 401 0 c 2,0,-1
EndSplineSet
EndChar

StartChar: sigma
Encoding: 963 963 172
Width: 532
Flags: HMW
HStem: -12 75 452 76 620 55
VStem: 47 90 208 341 459 90
LayerCount: 2
Fore
SplineSet
451 310 m 2,0,-1
 451 175 l 2,1,2
 451 -19 451 -19 266 -19 c 0,3,4
 171 -19 171 -19 124.5 32.5 c 128,-1,5
 78 84 78 84 78 175 c 2,6,-1
 78 354 l 2,7,8
 78 402 78 402 96.5 435.5 c 128,-1,9
 115 469 115 469 145 484 c 0,10,11
 194.259259259 508.62962963 194.259259259 508.62962963 247.62962963 508.62962963 c 1,12,-1
 286 505 l 1,13,14
 318.625 499.9375 318.625 499.9375 342.28125 499.9375 c 128,-1,15
 365.9375 499.9375 365.9375 499.9375 383 503 c 0,16,17
 422 510 422 510 458 543 c 1,18,-1
 499 528 l 1,19,20
 464 467 464 467 404 452 c 1,21,22
 424 438 424 438 437.5 399 c 128,-1,23
 451 360 451 360 451 310 c 2,0,-1
341 448 m 1,24,25
 277.436363636 458.036363636 277.436363636 458.036363636 234.190909091 458.036363636 c 128,-1,26
 190.945454545 458.036363636 190.945454545 458.036363636 162.472727273 432.018181818 c 128,-1,27
 134 406 134 406 134 351 c 2,28,-1
 134 165 l 2,29,30
 134 99 134 99 170 65 c 128,-1,31
 206 31 206 31 266 31 c 0,32,33
 395 31 395 31 395 165 c 2,34,-1
 395 310 l 2,35,36
 395 353 395 353 382 387 c 128,-1,37
 369 421 369 421 357 435 c 128,-1,38
 345 449 345 449 341 448 c 1,24,25
EndSplineSet
EndChar

StartChar: sigma1
Encoding: 962 962 173
Width: 409
Flags: HMW
HStem: -12 75 454 75
VStem: 88 90
LayerCount: 2
Fore
SplineSet
357 -147 m 1,0,-1
 314 -120 l 1,1,2
 324.448979592 -106.285714286 324.448979592 -106.285714286 324.448979592 -91.3775510204 c 0,3,4
 324.448979592 -37.2857142857 324.448979592 -37.2857142857 280 -9 c 0,5,6
 173.333333333 57.6666666667 173.333333333 57.6666666667 159.166666667 71.8333333333 c 128,-1,7
 145 86 145 86 129.5 100.5 c 128,-1,8
 114 115 114 115 107.5 127.5 c 128,-1,9
 101 140 101 140 92.5 156.5 c 0,10,11
 78 184.647058824 78 184.647058824 78 227 c 2,12,-1
 78 367 l 2,13,14
 78 420 78 420 119.5 462.5 c 128,-1,15
 161 505 161 505 250 505 c 0,16,17
 282 505 282 505 310 498.5 c 128,-1,18
 338 492 338 492 350 485 c 2,19,-1
 362 478 l 1,20,-1
 343 432 l 1,21,22
 310 456 310 456 257 456 c 128,-1,23
 204 456 204 456 169 432.5 c 128,-1,24
 134 409 134 409 134 370 c 2,25,-1
 134 246 l 2,26,27
 134 180 134 180 168 139.5 c 128,-1,28
 202 99 202 99 302 37 c 0,29,30
 339 14 339 14 357.525 -19.15 c 128,-1,31
 376.05 -52.3 376.05 -52.3 376.05 -85.8916666667 c 128,-1,32
 376.05 -119.483333333 376.05 -119.483333333 357 -147 c 1,0,-1
EndSplineSet
EndChar

StartChar: Rho
Encoding: 929 929 174
Width: 545
Flags: HMW
HStem: 0 21G<78 134 78 78> 0 647<78 328 78 328> 292 80 634 80 647 53<134 324 324 328 134 134>
VStem: 70 56 78 95 134 0<0 0 245 245 300 300 647 647> 324 132 448 56 515 95
LayerCount: 2
Fore
SplineSet
134 300 m 1,0,-1
 332 300 l 2,1,2
 368 300 368 300 393 314.5 c 128,-1,3
 418 329 418 329 430 347 c 128,-1,4
 442 365 442 365 448.5 395.5 c 0,5,6
 456 430.692307692 456 430.692307692 456 486 c 0,7,8
 456 567 456 567 421.5 607 c 128,-1,9
 387 647 387 647 328 647 c 2,10,-1
 134 647 l 1,11,-1
 134 300 l 1,0,-1
134 0 m 1,12,-1
 78 0 l 1,13,-1
 78 700 l 1,14,-1
 324 700 l 2,15,16
 419 700 419 700 465.5 642 c 128,-1,17
 512 584 512 584 512 486 c 0,18,19
 512 451 512 451 510.5 426.5 c 128,-1,20
 509 402 509 402 499 364.5 c 128,-1,21
 489 327 489 327 471 303.5 c 128,-1,22
 453 280 453 280 417 262.5 c 128,-1,23
 381 245 381 245 331 245 c 2,24,-1
 134 245 l 1,25,-1
 134 0 l 1,12,-1
EndSplineSet
EndChar

StartChar: rho
Encoding: 961 961 175
Width: 484
Flags: HMW
HStem: -195 21G<132 132> -12 75 454 63 454 75
VStem: 510 90
LayerCount: 2
Fore
SplineSet
132 -195 m 1,0,-1
 78 -211 l 1,1,-1
 78 315 l 2,2,3
 78 404 78 404 127 455.5 c 128,-1,4
 176 507 176 507 268.5 507 c 0,5,6
 361 507 361 507 406 453.5 c 128,-1,7
 451 400 451 400 451 307 c 2,8,-1
 451 172 l 2,9,10
 451 84 451 84 404.5 37 c 128,-1,11
 358 -10 358 -10 267 -10 c 0,12,13
 176 -10 176 -10 132 44 c 1,14,-1
 132 -195 l 1,0,-1
395 165 m 2,15,-1
 395 313 l 2,16,17
 395 455 395 455 264 455 c 0,18,19
 209 455 209 455 171.5 423 c 128,-1,20
 134 391 134 391 134 314 c 2,21,-1
 134 165 l 2,22,23
 134 102 134 102 170 71 c 128,-1,24
 206 40 206 40 266 40 c 128,-1,25
 326 40 326 40 360.5 70.5 c 128,-1,26
 395 101 395 101 395 165 c 2,15,-1
EndSplineSet
EndChar

StartChar: Pi
Encoding: 928 928 176
Width: 581
Flags: HMW
HStem: 0 21G<80 136 80 80 454 510 454 454> 327 80 634 80
VStem: 80 56<0 645 0 700 0 700> 88 95 249 95 454 56<0 645 645 645>
LayerCount: 2
Fore
SplineSet
510 0 m 1,0,-1
 454 0 l 1,1,-1
 454 645 l 1,2,-1
 136 645 l 1,3,-1
 136 0 l 1,4,-1
 80 0 l 1,5,-1
 80 700 l 1,6,-1
 510 700 l 1,7,-1
 510 0 l 1,0,-1
EndSplineSet
EndChar

StartChar: Omicron
Encoding: 927 927 177
Width: 543
Flags: HMW
HStem: -17 80 0 42 651 80 663 53<228 316.5>
VStem: 54 56 62 56<185 186 186 507 507 516> 62 95 419 55 427 55<187 506> 651 95
LayerCount: 2
Fore
SplineSet
482 506 m 2,0,-1
 482 185 l 2,1,2
 482 84 482 84 420.5 36.5 c 128,-1,3
 359 -11 359 -11 273 -11 c 128,-1,4
 187 -11 187 -11 124.5 36.5 c 128,-1,5
 62 84 62 84 62 185 c 2,6,-1
 62 507 l 2,7,8
 62 610 62 610 118.5 663 c 128,-1,9
 175 716 175 716 274 716 c 128,-1,10
 373 716 373 716 427.5 660 c 128,-1,11
 482 604 482 604 482 506 c 2,0,-1
427 187 m 2,12,-1
 427 516 l 2,13,14
 427 589 427 589 384.5 626 c 128,-1,15
 342 663 342 663 272 663 c 128,-1,16
 202 663 202 663 160 626 c 128,-1,17
 118 589 118 589 118 516 c 2,18,-1
 118 186 l 2,19,20
 118 115 118 115 161.5 78.5 c 128,-1,21
 205 42 205 42 272.5 42 c 0,22,23
 340 42 340 42 383.5 77.5 c 128,-1,24
 427 113 427 113 427 187 c 2,12,-1
EndSplineSet
EndChar

StartChar: omicron
Encoding: 959 959 178
Width: 484
Flags: HMW
HStem: -12 75 -10 471<227 303.5 227 332> 40 472<225 308> 454 75
VStem: 78 90 78 317<184 316 316 368.5 174 379> 134 317<134.5 174 174 184 184 316> 490 90
LayerCount: 2
Fore
SplineSet
451 316 m 2,0,-1
 451 184 l 2,1,2
 451 100 451 100 405 45 c 128,-1,3
 359 -10 359 -10 266 -10 c 128,-1,4
 173 -10 173 -10 125.5 45.5 c 128,-1,5
 78 101 78 101 78 184 c 2,6,-1
 78 316 l 2,7,8
 78 411 78 411 126.5 461.5 c 128,-1,9
 175 512 175 512 264 512 c 0,10,11
 353 512 353 512 402 459.5 c 128,-1,12
 451 407 451 407 451 316 c 2,0,-1
395 174 m 2,13,-1
 395 316 l 2,14,15
 395 461 395 461 266 461 c 0,16,17
 134 461 134 461 134 316 c 2,18,-1
 134 174 l 2,19,20
 134 114 134 114 169.5 77 c 128,-1,21
 205 40 205 40 266.5 40 c 0,22,23
 328 40 328 40 361.5 76.5 c 128,-1,24
 395 113 395 113 395 174 c 2,13,-1
EndSplineSet
EndChar

StartChar: xi
Encoding: 958 958 179
Width: 413
Flags: HMW
VStem: 78 21<164 348 348 397.5>
LayerCount: 2
Fore
SplineSet
269.704081633 50.1428571429 m 0,0,1
 323.87755102 50.1428571429 323.87755102 50.1428571429 380 68 c 1,2,-1
 380 -192 l 1,3,-1
 326 -218 l 1,4,-1
 326 2 l 1,5,6
 291.720930233 -3.62790697674 291.720930233 -3.62790697674 261.546511628 -3.62790697674 c 0,7,8
 164.745026618 -3.62790697674 164.745026618 -3.62790697674 114.5 53.5 c 0,9,10
 78 95 78 95 78 164 c 2,11,-1
 78 348 l 2,12,13
 78 418 78 418 120.5 463 c 128,-1,14
 163 508 163 508 221 514 c 1,15,16
 183.305555556 545.8046875 183.305555556 545.8046875 183.305555556 592.006510417 c 128,-1,17
 183.305555556 638.208333333 183.305555556 638.208333333 212.152777778 673.104166667 c 128,-1,18
 241 708 241 708 300 708 c 2,19,-1
 345 708 l 1,20,-1
 324 657 l 1,21,-1
 291 657 l 2,22,23
 264 657 264 657 249.5 633.5 c 0,24,25
 240.553191489 619 240.553191489 619 240.553191489 604.627659574 c 0,26,27
 240.553191489 554.29787234 240.553191489 554.29787234 286 524 c 0,28,29
 307 511 307 511 358 494 c 1,30,-1
 342 450 l 1,31,32
 292.828614009 461.508196721 292.828614009 461.508196721 247.131520119 461.508196721 c 128,-1,33
 201.43442623 461.508196721 201.43442623 461.508196721 167.217213115 431.754098361 c 128,-1,34
 133 402 133 402 133 345 c 2,35,-1
 133 159 l 2,36,37
 133 50.1428571429 133 50.1428571429 269.704081633 50.1428571429 c 0,0,1
EndSplineSet
EndChar

StartChar: Xi
Encoding: 926 926 180
Width: 620
Flags: HMW
HStem: 0 80 595 106 634 80 817 55
VStem: 109 568 165 56 442 121
LayerCount: 2
Fore
SplineSet
469 358 m 1,0,-1
 205 358 l 1,1,-1
 205 413 l 1,2,-1
 469 413 l 1,3,-1
 469 358 l 1,0,-1
527 649 m 1,4,-1
 223 649 l 2,5,6
 145 649 145 649 121 579 c 1,7,-1
 78 595 l 1,8,9
 94 651 94 651 129 676 c 128,-1,10
 164 701 164 701 223 701 c 2,11,-1
 548 701 l 1,12,-1
 527 649 l 1,4,-1
442 0 m 2,13,-1
 117 0 l 1,14,-1
 138 52 l 1,15,-1
 442 52 l 2,16,17
 520 52 520 52 544 122 c 1,18,-1
 587 106 l 1,19,20
 571 50 571 50 536 25 c 128,-1,21
 501 0 501 0 442 0 c 2,13,-1
EndSplineSet
EndChar

StartChar: Nu
Encoding: 925 925 181
Width: 643
Flags: HMW
HStem: 0 103<516 572 516 516> 0 135 573 141 597 103<80 136>
VStem: -187 21 80 56<0 597 0 700> 81 90 516 56<0 0 103 700> 560 90
LayerCount: 2
Fore
SplineSet
572 0 m 1,0,-1
 516 0 l 1,1,-1
 136 597 l 1,2,-1
 136 0 l 1,3,-1
 80 0 l 1,4,-1
 80 700 l 1,5,-1
 136 700 l 1,6,-1
 516 103 l 1,7,-1
 516 700 l 1,8,-1
 572 700 l 1,9,-1
 572 0 l 1,0,-1
EndSplineSet
EndChar

StartChar: nu
Encoding: 957 957 182
Width: 496
Flags: HMW
HStem: 0 86 497 20G
VStem: 74 472 78 385<501 501>
LayerCount: 2
Fore
SplineSet
308 0 m 1,0,-1
 231 0 l 1,1,-1
 78 501 l 1,2,-1
 137 501 l 1,3,-1
 270 58 l 1,4,-1
 404 501 l 1,5,-1
 463 501 l 1,6,-1
 308 0 l 1,0,-1
EndSplineSet
EndChar

StartChar: Mu
Encoding: 924 924 183
Width: 687
Flags: HMW
HStem: 0 86<347 347 347 378 317 347> 0 114 535 165<80 136> 594 120
VStem: 72 56 80 56<0 535 0 700> 552 56 560 56<0 535 535 535> 701 90
LayerCount: 2
Fore
SplineSet
616 0 m 1,0,-1
 560 0 l 1,1,-1
 560 535 l 1,2,-1
 378 0 l 1,3,-1
 317 0 l 1,4,-1
 136 535 l 1,5,-1
 136 0 l 1,6,-1
 80 0 l 1,7,-1
 80 700 l 1,8,-1
 136 700 l 1,9,-1
 347 86 l 1,10,-1
 560 700 l 1,11,-1
 616 700 l 1,12,-1
 616 0 l 1,0,-1
EndSplineSet
EndChar

StartChar: Lambda
Encoding: 923 923 184
Width: 523
Flags: HMW
HStem: 0 95 694 20G
VStem: -1 614 71 386<0 0>
LayerCount: 2
Fore
SplineSet
517 0 m 1,0,-1
 457 0 l 1,1,-1
 262 613 l 1,2,-1
 71 0 l 1,3,-1
 12 0 l 1,4,-1
 236 700 l 1,5,-1
 289 700 l 1,6,-1
 517 0 l 1,0,-1
EndSplineSet
EndChar

StartChar: lambda
Encoding: 955 955 185
Width: 574
Flags: HMW
HStem: -207 75 -198 21G 497 20G
VStem: 79 484
LayerCount: 2
Fore
SplineSet
541 21 m 1,0,-1
 504 -10 l 1,1,2
 460 0 460 0 439 29.5 c 128,-1,3
 418 59 418 59 402 113 c 2,4,-1
 298 457 l 1,5,6
 268.829545455 441.556818182 268.829545455 441.556818182 254 403 c 0,7,8
 249 390 249 390 241 361 c 2,9,-1
 135 0 l 1,10,-1
 78 0 l 1,11,-1
 186 372 l 1,12,13
 200 415 200 415 216.5 441.5 c 128,-1,14
 233 468 233 468 243.5 477.5 c 128,-1,15
 254 487 254 487 281 506 c 1,16,-1
 258 577 l 1,17,18
 232 653 232 653 164 657 c 1,19,-1
 164 700 l 1,20,21
 166.392156863 700.039215686 166.392156863 700.039215686 168.741253364 700.039215686 c 0,22,23
 226.294117647 700.039215686 226.294117647 700.039215686 258.647058824 676.019607843 c 128,-1,24
 291 652 291 652 311 593 c 1,25,-1
 453 125 l 1,26,27
 475.684210526 56.9473684211 475.684210526 56.9473684211 510 35.5 c 0,28,29
 514 33 514 33 525.5 28 c 128,-1,30
 537 23 537 23 541 21 c 1,0,-1
EndSplineSet
EndChar

StartChar: kappa
Encoding: 954 954 186
Width: 481
Flags: HMW
HStem: 0 21G<78 134 78 78> 497 20G 694 20G
VStem: 83 85
LayerCount: 2
Fore
SplineSet
446 47 m 1,0,-1
 448 -1 l 1,1,2
 413 -1 413 -1 383 17.5 c 128,-1,3
 353 36 353 36 337.5 54 c 128,-1,4
 322 72 322 72 294 110 c 2,5,-1
 189 254 l 1,6,-1
 134 198 l 1,7,-1
 134 0 l 1,8,-1
 78 0 l 1,9,-1
 78 512 l 1,10,-1
 134 499 l 1,11,-1
 134 274 l 1,12,-1
 342 501 l 1,13,-1
 416 501 l 1,14,-1
 228 296 l 1,15,-1
 355 117 l 1,16,17
 406 49 406 49 446 47 c 1,0,-1
EndSplineSet
EndChar

StartChar: Kappa
Encoding: 922 922 187
Width: 508
Flags: HMW
HStem: 0 21G<78 134 78 78 408 475 408 408> 694 20G
VStem: 77 95 78 56<0 269 367 701>
LayerCount: 2
Fore
SplineSet
475 0 m 1,0,-1
 408 0 l 1,1,-1
 182 345 l 1,2,-1
 134 269 l 1,3,-1
 134 0 l 1,4,-1
 78 0 l 1,5,-1
 78 701 l 1,6,-1
 134 701 l 1,7,-1
 134 367 l 1,8,-1
 358 701 l 1,9,-1
 423 701 l 1,10,-1
 218 398 l 1,11,-1
 475 0 l 1,0,-1
EndSplineSet
EndChar

StartChar: Iota
Encoding: 921 921 188
Width: 274
Flags: HMW
HStem: 0 21G<147 203 147 147> 694 20G
VStem: 147 56<0 649 649 649> 150 56 162 95
LayerCount: 2
Fore
SplineSet
203 0 m 1,0,-1
 147 0 l 1,1,-1
 147 649 l 1,2,-1
 80 651 l 1,3,-1
 80 700 l 1,4,-1
 203 700 l 1,5,-1
 203 0 l 1,0,-1
EndSplineSet
EndChar

StartChar: iota
Encoding: 953 953 189
Width: 159
Flags: HMW
HStem: 0 21G<66 122 66 66> 497 20G 610 104
VStem: 66 56<0 501> 76 85
LayerCount: 2
Fore
SplineSet
122 0 m 1,0,-1
 66 0 l 1,1,-1
 66 501 l 1,2,-1
 122 501 l 1,3,-1
 122 0 l 1,0,-1
EndSplineSet
EndChar

StartChar: theta
Encoding: 952 952 190
Width: 503
Flags: HMW
HStem: -12 75 620 55 634 75
VStem: 42 90 107 341 424 90
LayerCount: 2
Fore
SplineSet
442 505 m 2,0,-1
 442 191 l 2,1,2
 442 102 442 102 392.5 48 c 128,-1,3
 343 -6 343 -6 251.5 -5.5 c 128,-1,4
 160 -5 160 -5 111 48.5 c 128,-1,5
 62 102 62 102 62 191 c 2,6,-1
 62 341 l 1,7,8
 64 405 64 405 115 438 c 1,9,10
 80.8947368421 504.315789474 80.8947368421 504.315789474 80.8947368421 562.105263158 c 0,11,12
 80.8947368421 627.146453089 80.8947368421 627.146453089 127.947368421 668.573226545 c 128,-1,13
 175 710 175 710 250 710 c 1,14,15
 345 708 345 708 393.5 654 c 128,-1,16
 442 600 442 600 442 505 c 2,0,-1
386 185 m 2,17,-1
 386 452 l 1,18,19
 374.606060606 452.96969697 374.606060606 452.96969697 349.287878788 452.96969697 c 128,-1,20
 323.96969697 452.96969697 323.96969697 452.96969697 269.484848485 441.984848485 c 128,-1,21
 215 431 215 431 166.5 403 c 128,-1,22
 118 375 118 375 118 341 c 2,23,-1
 118 185 l 2,24,25
 118 133 118 133 145.5 97 c 0,26,27
 182.739583333 48.25 182.739583333 48.25 252 48.25 c 1,28,-1
 291.5 52.5 l 1,29,30
 331 61 331 61 358.5 97 c 128,-1,31
 386 133 386 133 386 185 c 2,17,-1
165 463 m 1,32,33
 256.213114754 507.327868852 256.213114754 507.327868852 352.513034131 507.327868852 c 0,34,35
 369.180327869 507.327868852 369.180327869 507.327868852 386 506 c 1,36,37
 386 587 386 587 347 622 c 128,-1,38
 308 657 308 657 251 657 c 128,-1,39
 194 657 194 657 166.933333333 627.033333333 c 128,-1,40
 139.866666667 597.066666667 139.866666667 597.066666667 139.866666667 557.244444444 c 0,41,42
 139.866666667 512.173913043 139.866666667 512.173913043 165 463 c 1,32,33
EndSplineSet
EndChar

StartChar: Theta
Encoding: 920 920 191
Width: 595
Flags: HMW
HStem: -17 80 0 42 238 80 651 80 663 53<308 396.5>
VStem: 102 21 134 56 141 379 142 56<185 186 186 303 358 507 507 516> 142 95 499 55 507 55<187 303 303 303 358 506> 731 95
LayerCount: 2
Fore
SplineSet
562 506 m 2,0,-1
 562 185 l 2,1,2
 562 84 562 84 500.5 36.5 c 128,-1,3
 439 -11 439 -11 353 -11 c 128,-1,4
 267 -11 267 -11 204.5 36.5 c 128,-1,5
 142 84 142 84 142 185 c 2,6,-1
 142 507 l 2,7,8
 142 610 142 610 198.5 663 c 128,-1,9
 255 716 255 716 354 716 c 128,-1,10
 453 716 453 716 507.5 660 c 128,-1,11
 562 604 562 604 562 506 c 2,0,-1
198 516 m 2,12,-1
 198 358 l 1,13,-1
 507 358 l 1,14,-1
 507 516 l 2,15,16
 507 589 507 589 464.5 626 c 128,-1,17
 422 663 422 663 352 663 c 128,-1,18
 282 663 282 663 240 626 c 128,-1,19
 198 589 198 589 198 516 c 2,12,-1
507 187 m 2,20,-1
 507 303 l 1,21,-1
 198 303 l 1,22,-1
 198 186 l 2,23,24
 198 115 198 115 241.5 78.5 c 128,-1,25
 285 42 285 42 352.5 42 c 0,26,27
 420 42 420 42 463.5 77.5 c 128,-1,28
 507 113 507 113 507 187 c 2,20,-1
EndSplineSet
EndChar

StartChar: Eta
Encoding: 919 919 192
Width: 581
Flags: HMW
HStem: 0 21G<80 136 80 80 454 510 454 454> 327 80 694 20G
VStem: 72 56 80 56<0 358 0 413 413 700> 446 56 454 56<0 358 358 358 413 700> 551 95
LayerCount: 2
Fore
SplineSet
510 0 m 1,0,-1
 454 0 l 1,1,-1
 454 358 l 1,2,-1
 136 358 l 1,3,-1
 136 0 l 1,4,-1
 80 0 l 1,5,-1
 80 700 l 1,6,-1
 136 700 l 1,7,-1
 136 413 l 1,8,-1
 454 413 l 1,9,-1
 454 700 l 1,10,-1
 510 700 l 1,11,-1
 510 0 l 1,0,-1
EndSplineSet
EndChar

StartChar: eta
Encoding: 951 951 193
Width: 480
Flags: HMW
HStem: 0 21G<78 134 78 78> 454 75 497 20G
VStem: 78 85 421 85
LayerCount: 2
Fore
SplineSet
130 467 m 1,0,1
 181.462295082 509.885245902 181.462295082 509.885245902 272.862671325 509.885245902 c 0,2,3
 325.016393443 509.885245902 325.016393443 509.885245902 362 491 c 1,4,5
 447 452 447 452 447 346 c 2,6,-1
 447 -210 l 1,7,-1
 392 -186 l 1,8,-1
 392 343 l 2,9,10
 392 395 392 395 364 424 c 0,11,12
 330.206896552 459 330.206896552 459 262.524500907 459 c 128,-1,13
 194.842105263 459 194.842105263 459 134 425 c 1,14,-1
 134 0 l 1,15,-1
 78 0 l 1,16,-1
 78 501 l 1,17,-1
 134 501 l 1,18,-1
 130 467 l 1,0,1
EndSplineSet
EndChar

StartChar: zeta
Encoding: 950 950 194
Width: 467
Flags: HMW
VStem: -158 21
LayerCount: 2
Fore
SplineSet
407 -183 m 1,0,-1
 351 -209 l 1,1,-1
 351 8 l 1,2,3
 306.145038168 -2.32061068702 306.145038168 -2.32061068702 257.782442748 -2.32061068702 c 128,-1,4
 209.419847328 -2.32061068702 209.419847328 -2.32061068702 166 21.5 c 0,5,6
 78.0303030303 69.7611531987 78.0303030303 69.7611531987 78.0303030303 177.313131313 c 0,7,8
 78.0303030303 260.634920635 78.0303030303 260.634920635 114 336 c 0,9,10
 190 494 190 494 356 653 c 1,11,-1
 146 653 l 1,12,-1
 146 700 l 1,13,-1
 418 700 l 1,14,-1
 434 651 l 1,15,16
 375 605 375 605 305 524 c 0,17,18
 180.428929242 379.853475266 180.428929242 379.853475266 145.5 257 c 0,19,20
 135.243902439 220.926829268 135.243902439 220.926829268 135.243902439 196.134146341 c 128,-1,21
 135.243902439 171.341463415 135.243902439 171.341463415 137 157 c 0,22,23
 149.827155352 52.2448979592 149.827155352 52.2448979592 277.400666389 52.2448979592 c 0,24,25
 332.020408163 52.2448979592 332.020408163 52.2448979592 407 72 c 1,26,-1
 407 -183 l 1,0,-1
EndSplineSet
EndChar

StartChar: Zeta
Encoding: 918 918 195
Width: 598
Flags: HMW
HStem: 0 80 634 80
VStem: 69 568 78 487<0 50 50 50>
LayerCount: 2
Fore
SplineSet
565 0 m 1,0,-1
 78 0 l 1,1,-1
 78 50 l 1,2,-1
 488 649 l 1,3,-1
 91 649 l 1,4,-1
 91 700 l 1,5,-1
 559 700 l 1,6,-1
 559 650 l 1,7,-1
 149 51 l 1,8,-1
 565 51 l 1,9,-1
 565 0 l 1,0,-1
EndSplineSet
EndChar

StartChar: Epsilon
Encoding: 917 917 196
Width: 445
Flags: HMW
HStem: 0 50<134 410 134 410> 327 80 634 80 648 52<134 412 134 134>
VStem: 78 56<50 358 413 648>
LayerCount: 2
Fore
SplineSet
410 0 m 1,0,-1
 78 0 l 1,1,-1
 78 700 l 1,2,-1
 412 700 l 1,3,-1
 412 648 l 1,4,-1
 134 648 l 1,5,-1
 134 413 l 1,6,-1
 325 413 l 1,7,-1
 306 358 l 1,8,-1
 134 358 l 1,9,-1
 134 50 l 1,10,-1
 410 50 l 1,11,-1
 410 0 l 1,0,-1
EndSplineSet
EndChar

StartChar: epsilon
Encoding: 949 949 197
Width: 456
Flags: HMW
HStem: -12 75 336 68 634 75
VStem: 68 85 83 85 428 90
LayerCount: 2
Fore
SplineSet
353 445 m 1,0,1
 309.5 458.5 309.5 458.5 261 458.5 c 1,2,-1
 229.5 457 l 1,3,4
 198 454 198 454 176.976744186 436.053318208 c 128,-1,5
 155.953488372 418.106636415 155.953488372 418.106636415 155.953488372 386.413783324 c 128,-1,6
 155.953488372 354.720930233 155.953488372 354.720930233 175.976744186 327.860465116 c 128,-1,7
 196 301 196 301 233 301 c 2,8,-1
 352 301 l 1,9,-1
 333 247 l 1,10,-1
 233 247 l 2,11,12
 186 247 186 247 160 221 c 128,-1,13
 134 195 134 195 134 146.5 c 128,-1,14
 134 98 134 98 165 69.5 c 128,-1,15
 196 41 196 41 258 41 c 0,16,17
 324.5 41 324.5 41 387 66 c 2,18,-1
 407 74 l 1,19,-1
 423 23 l 1,20,21
 345 -11 345 -11 260.5 -11 c 128,-1,22
 176 -11 176 -11 130 30 c 0,23,24
 78.2888888889 76.0903381643 78.2888888889 76.0903381643 78.2888888889 151.464691358 c 0,25,26
 78.2888888889 248.022222222 78.2888888889 248.022222222 153 279 c 1,27,28
 128 292 128 292 113.217391304 323.739130435 c 128,-1,29
 98.4347826087 355.47826087 98.4347826087 355.47826087 98.4347826087 375.391304348 c 128,-1,30
 98.4347826087 395.304347826 98.4347826087 395.304347826 100 406 c 0,31,32
 108 457 108 457 150.736842105 484.01754386 c 128,-1,33
 193.473684211 511.035087719 193.473684211 511.035087719 245.314536341 511.035087719 c 128,-1,34
 297.155388471 511.035087719 297.155388471 511.035087719 353 496 c 1,35,-1
 353 445 l 1,0,1
EndSplineSet
EndChar

StartChar: delta
Encoding: 948 948 198
Width: 484
Flags: HMW
HStem: -12 75 817 55
VStem: 47 90 127 341 459 90
LayerCount: 2
Fore
SplineSet
215 504 m 1,0,1
 174.9375 541.773214286 174.9375 541.773214286 174.9375 589.167857143 c 128,-1,2
 174.9375 636.5625 174.9375 636.5625 204.46875 670.78125 c 128,-1,3
 234 705 234 705 293 705 c 2,4,-1
 338 705 l 1,5,-1
 317 654 l 1,6,-1
 284 654 l 2,7,8
 257 654 257 654 245.276595745 635.808510638 c 128,-1,9
 233.553191489 617.617021277 233.553191489 617.617021277 233.553191489 603.590425532 c 0,10,11
 233.553191489 554.29787234 233.553191489 554.29787234 279 524 c 0,12,13
 388.094036697 452.309633028 388.094036697 452.309633028 418 404 c 0,14,15
 451 350.692307692 451 350.692307692 451 288 c 2,16,-1
 451 184 l 2,17,18
 451 -10 451 -10 266 -10 c 0,19,20
 171 -10 171 -10 124.5 41.5 c 128,-1,21
 78 93 78 93 78 184 c 2,22,-1
 78 310 l 2,23,24
 78 390 78 390 113 440.5 c 128,-1,25
 148 491 148 491 215 504 c 1,0,1
395 174 m 2,26,-1
 395 301 l 2,27,28
 395 338 395 338 364.5 386.5 c 128,-1,29
 334 435 334 435 271 464 c 1,30,31
 134 452 134 452 134 310 c 2,32,-1
 134 174 l 2,33,34
 134 108 134 108 170 74 c 128,-1,35
 206 40 206 40 266 40 c 0,36,37
 395 40 395 40 395 174 c 2,26,-1
EndSplineSet
EndChar

StartChar: _196
Encoding: 65540 -1 199
Width: 616
Flags: HMW
HStem: 0 21G<78 583 78 78> 0 65 245 55 622 91
VStem: 97 586 137 386
LayerCount: 2
Fore
SplineSet
583 0 m 1,0,-1
 78 0 l 1,1,-1
 302 700 l 1,2,-1
 355 700 l 1,3,-1
 583 0 l 1,0,-1
507 50 m 1,4,-1
 328 613 l 1,5,-1
 152 50 l 1,6,-1
 507 50 l 1,4,-1
EndSplineSet
EndChar

StartChar: Gamma
Encoding: 915 915 200
Width: 445
Flags: HMW
HStem: 0 21G<78 134 78 78> 327 80 634 80
VStem: 79 95
LayerCount: 2
Fore
SplineSet
134 0 m 1,0,-1
 78 0 l 1,1,-1
 78 700 l 1,2,-1
 412 700 l 1,3,-1
 412 647 l 1,4,-1
 134 647 l 1,5,-1
 134 0 l 1,0,-1
EndSplineSet
EndChar

StartChar: gamma
Encoding: 947 947 201
Width: 479
Flags: HMW
HStem: 0 21G 0 86 497 20G
VStem: 14 472 207 85
LayerCount: 2
Fore
SplineSet
222 -198 m 1,0,1
 193.105263158 -173.233082707 193.105263158 -173.233082707 193.105263158 -126.524930748 c 0,2,3
 193.105263158 -103.315789474 193.105263158 -103.315789474 202 -78 c 1,4,-1
 224 -5 l 1,5,6
 197 14 197 14 186.5 23.5 c 128,-1,7
 176 33 176 33 159.5 59.5 c 128,-1,8
 143 86 143 86 129 129 c 1,9,-1
 21 501 l 1,10,-1
 78 501 l 1,11,-1
 184 140 l 2,12,13
 197.277486911 91.8691099476 197.277486911 91.8691099476 210.638743455 72.4345549738 c 128,-1,14
 224 53 224 53 241 44 c 1,15,-1
 345 388 l 2,16,17
 361 442 361 442 382 471.5 c 128,-1,18
 403 501 403 501 447 511 c 1,19,-1
 484 480 l 1,20,21
 480 478 480 478 468.5 473 c 128,-1,22
 457 468 457 468 453 465.5 c 128,-1,23
 449 463 449 463 439.5 455 c 128,-1,24
 430 447 430 447 424.5 438 c 0,25,26
 407.266666667 409.8 407.266666667 409.8 396 376 c 1,27,-1
 271 -42 l 1,28,29
 248.733333333 -106.573333333 248.733333333 -106.573333333 248.733333333 -129.486666667 c 128,-1,30
 248.733333333 -152.4 248.733333333 -152.4 260 -168 c 1,31,-1
 222 -198 l 1,0,1
EndSplineSet
EndChar

StartChar: beta
Encoding: 946 946 202
Width: 481
Flags: HMW
HStem: -12 75 -9 21G<134 134> 359 68 656 75
VStem: 101 85 416 90 448 90
LayerCount: 2
Fore
SplineSet
313 494 m 1,0,1
 372 483 372 483 410 440 c 128,-1,2
 448 397 448 397 448 330 c 2,3,-1
 448 146 l 2,4,5
 448 83 448 83 418.5 44.5 c 128,-1,6
 389 6 389 6 339 -6.5 c 128,-1,7
 289 -19 289 -19 240 -19 c 128,-1,8
 191 -19 191 -19 134 -9 c 1,9,-1
 134 -161 l 1,10,-1
 78 -161 l 1,11,-1
 78 537 l 2,12,13
 78 614 78 614 112.5 657.5 c 128,-1,14
 147 701 147 701 218 701 c 0,15,16
 261 701 261 701 292.5 678 c 0,17,18
 345.180555556 639.534832451 345.180555556 639.534832451 345.180555556 582.214082892 c 128,-1,19
 345.180555556 524.893333333 345.180555556 524.893333333 313 494 c 1,0,1
266.509451796 443.391304348 m 0,20,21
 192.405797101 443.391304348 192.405797101 443.391304348 135 413 c 1,22,-1
 135 40 l 1,23,24
 193.572972973 30.4648648649 193.572972973 30.4648648649 238.848298028 30.4648648649 c 0,25,26
 393 30.4648648649 393 30.4648648649 393 141 c 2,27,-1
 393 327 l 2,28,29
 393 379 393 379 365 408.5 c 128,-1,30
 337 438 337 438 295.5 442 c 0,31,32
 281.065217391 443.391304348 281.065217391 443.391304348 266.509451796 443.391304348 c 0,20,21
135 541 m 2,33,-1
 135 463 l 1,34,35
 185 489 185 489 247 508 c 0,36,37
 287.583333333 519.782258065 287.583333333 519.782258065 287.583333333 570.358024691 c 0,38,39
 287.583333333 594.472222222 287.583333333 594.472222222 270.791666667 620.736111111 c 128,-1,40
 254 647 254 647 218 647 c 0,41,42
 135 647 135 647 135 541 c 2,33,-1
EndSplineSet
EndChar

StartChar: Beta
Encoding: 914 914 203
Width: 544
Flags: HMW
HStem: 0 80 53 305<134 306 306 323 134 346> 327 80 379 21G 413 0<134 134 297 297> 413 234<134 291 134 297 134 333.5> 634 80
VStem: 78 56<53 53 53 358 413 647> 78 95 134 341<53 589.5 413 589.5 510.5 589.5 510.5 647> 134 377<53 261 161.5 261 161.5 358 161.5 413 161.5 647> 417 58<510.5 577.5> 451 60<161.5 261 161.5 262.5> 515 95
LayerCount: 2
Fore
SplineSet
308 0 m 2,0,-1
 78 0 l 1,1,-1
 78 700 l 1,2,-1
 299 700 l 2,3,4
 381 700 381 700 428 658 c 128,-1,5
 475 616 475 616 475 527.5 c 128,-1,6
 475 439 475 439 409 394 c 0,7,8
 408 393 408 393 408 392 c 2,9,-1
 408 391 l 1,10,11
 452 371 452 371 481.5 326 c 128,-1,12
 511 281 511 281 511 209 c 0,13,14
 511 128.837209302 511 128.837209302 470.5 69.5 c 0,15,16
 449 38 449 38 407.5 19 c 128,-1,17
 366 0 366 0 308 0 c 2,0,-1
134 413 m 1,18,-1
 297 413 l 2,19,20
 353 413 353 413 385 443 c 128,-1,21
 417 473 417 473 417 530 c 0,22,23
 417 647 417 647 291 647 c 2,24,-1
 134 647 l 1,25,-1
 134 413 l 1,18,-1
134 53 m 1,26,-1
 306 53 l 2,27,28
 451 53 451 53 451 213 c 0,29,30
 451 283 451 283 413 320.5 c 128,-1,31
 375 358 375 358 323 358 c 2,32,-1
 134 358 l 1,33,-1
 134 53 l 1,26,-1
EndSplineSet
EndChar

StartChar: Alpha
Encoding: 913 913 204
Width: 523
Flags: HMW
HStem: 0 21G<12 71 12 12 457 517 457 457> 215 80 245 55<165 362 165 377 149 362> 628 86
VStem: -7 663 71 386<0 0>
LayerCount: 2
Fore
SplineSet
517 0 m 1,0,-1
 457 0 l 1,1,-1
 377 245 l 1,2,-1
 149 245 l 1,3,-1
 71 0 l 1,4,-1
 12 0 l 1,5,-1
 236 700 l 1,6,-1
 289 700 l 1,7,-1
 517 0 l 1,0,-1
362 300 m 1,8,-1
 262 613 l 1,9,-1
 165 300 l 1,10,-1
 362 300 l 1,8,-1
EndSplineSet
EndChar

StartChar: alpha
Encoding: 945 945 205
Width: 506
Flags: HMW
HStem: -198 21G -12 75 454 63 454 75
VStem: 76 90 481 85
LayerCount: 2
Fore
SplineSet
226.364883402 507.518518519 m 0,0,1
 305.962962963 507.518518519 305.962962963 507.518518519 387 467 c 1,2,-1
 406 508 l 1,3,-1
 450 486 l 1,4,5
 443 421 443 421 443 389 c 2,6,-1
 443 77 l 1,7,8
 449 49 449 49 473 35 c 1,9,-1
 446 2 l 1,10,11
 440 2 440 2 426.5 3.5 c 128,-1,12
 413 5 413 5 386.5 2.5 c 0,13,14
 311.818181818 -4.54545454545 311.818181818 -4.54545454545 271.409090909 -4.54545454545 c 128,-1,15
 231 -4.54545454545 231 -4.54545454545 210 0.227272727273 c 128,-1,16
 189 5 189 5 159.5 16.5 c 128,-1,17
 130 28 130 28 115 47 c 0,18,19
 78 93.8666666667 78 93.8666666667 78 169 c 2,20,-1
 78 354 l 2,21,22
 78 410 78 410 99.5 446 c 128,-1,23
 121 482 121 482 153.388888889 494.759259259 c 128,-1,24
 185.777777778 507.518518519 185.777777778 507.518518519 226.364883402 507.518518519 c 0,0,1
387 415 m 1,25,26
 283.336 455.92 283.336 455.92 223.0168 455.92 c 0,27,28
 205.22 455.92 205.22 455.92 186.11 450.46 c 128,-1,29
 167 445 167 445 150 420 c 128,-1,30
 133 395 133 395 133 351 c 2,31,-1
 133 162 l 2,32,33
 133 48.6460176991 133 48.6460176991 251.5 45.5 c 0,34,35
 258.869565217 45.3043478261 258.869565217 45.3043478261 288.586956522 45.3043478261 c 128,-1,36
 318.304347826 45.3043478261 318.304347826 45.3043478261 387 54 c 1,37,-1
 387 415 l 1,25,26
EndSplineSet
EndChar

StartChar: upsilondieresistonos
Encoding: 944 944 206
Width: 491
Flags: HMW
HStem: -12 75 0 21G 497 20G
VStem: 64 82 76 85 405 85 419 85
LayerCount: 2
Fore
SplineSet
183 541 m 128,-1,1
 170 541 170 541 160 550.5 c 128,-1,2
 150 560 150 560 150 574 c 128,-1,3
 150 588 150 588 160 597.5 c 128,-1,4
 170 607 170 607 183 607 c 128,-1,5
 196 607 196 607 206 597.5 c 128,-1,6
 216 588 216 588 216 574 c 128,-1,7
 216 560 216 560 206 550.5 c 128,-1,0
 196 541 196 541 183 541 c 128,-1,1
339 541 m 128,-1,9
 326 541 326 541 316 550.5 c 128,-1,10
 306 560 306 560 306 574 c 128,-1,11
 306 588 306 588 316 597.5 c 128,-1,12
 326 607 326 607 339 607 c 128,-1,13
 352 607 352 607 362 597.5 c 128,-1,14
 372 588 372 588 372 574 c 128,-1,15
 372 560 372 560 362 550.5 c 128,-1,8
 352 541 352 541 339 541 c 128,-1,9
285 579 m 1,16,-1
 241 579 l 1,17,-1
 292 697 l 2,18,19
 302.769230769 720.076923077 302.769230769 720.076923077 323.597633136 720.076923077 c 0,20,21
 351.009615385 720.076923077 351.009615385 720.076923077 357.5 697 c 0,22,23
 362 681 362 681 354 671 c 2,24,-1
 285 579 l 1,16,-1
402 165 m 2,25,-1
 402 501 l 1,26,-1
 458 501 l 1,27,-1
 458 172 l 2,28,29
 458 -10 458 -10 268 -10 c 128,-1,30
 78 -10 78 -10 78 172 c 2,31,-1
 78 501 l 1,32,-1
 134 501 l 1,33,-1
 134 165 l 2,34,35
 134 101 134 101 169.5 70.5 c 128,-1,36
 205 40 205 40 266 40 c 0,37,38
 402 40 402 40 402 165 c 2,25,-1
EndSplineSet
EndChar

StartChar: iotadieresistonos
Encoding: 912 912 207
Width: 333
Flags: HMW
HStem: 0 21G<162 218 162 162> 497 20G 579 143 610 104
VStem: 154 85 173 109
LayerCount: 2
Fore
SplineSet
218 0 m 1,0,-1
 162 0 l 1,1,-1
 162 501 l 1,2,-1
 218 501 l 1,3,-1
 218 0 l 1,0,-1
213 579 m 1,4,-1
 169 579 l 1,5,-1
 220 697 l 2,6,7
 230.769230769 720.076923077 230.769230769 720.076923077 251.597633136 720.076923077 c 0,8,9
 279.009615385 720.076923077 279.009615385 720.076923077 285.5 697 c 0,10,11
 290 681 290 681 282 671 c 2,12,-1
 213 579 l 1,4,-1
111 541 m 128,-1,14
 98 541 98 541 88 550.5 c 128,-1,15
 78 560 78 560 78 574 c 128,-1,16
 78 588 78 588 88 597.5 c 128,-1,17
 98 607 98 607 111 607 c 128,-1,18
 124 607 124 607 134 597.5 c 128,-1,19
 144 588 144 588 144 574 c 128,-1,20
 144 560 144 560 134 550.5 c 128,-1,13
 124 541 124 541 111 541 c 128,-1,14
267 541 m 128,-1,22
 254 541 254 541 244 550.5 c 128,-1,23
 234 560 234 560 234 574 c 128,-1,24
 234 588 234 588 244 597.5 c 128,-1,25
 254 607 254 607 267 607 c 128,-1,26
 280 607 280 607 290 597.5 c 128,-1,27
 300 588 300 588 300 574 c 128,-1,28
 300 560 300 560 290 550.5 c 128,-1,21
 280 541 280 541 267 541 c 128,-1,22
EndSplineSet
EndChar

StartChar: Alphatonos
Encoding: 902 902 208
Width: 616
Flags: HMW
HStem: 0 21G<78 137 78 78 523 583 523 523> 245 55<231 428 231 443 215 428> 568 143 569 143
VStem: 88 109 137 386<0 0>
LayerCount: 2
Fore
SplineSet
583 0 m 1,0,-1
 523 0 l 1,1,-1
 443 245 l 1,2,-1
 215 245 l 1,3,-1
 137 0 l 1,4,-1
 78 0 l 1,5,-1
 302 700 l 1,6,-1
 355 700 l 1,7,-1
 583 0 l 1,0,-1
428 300 m 1,8,-1
 328 613 l 1,9,-1
 231 300 l 1,10,-1
 428 300 l 1,8,-1
128 568 m 1,11,-1
 84 568 l 1,12,-1
 135 686 l 2,13,14
 145.769230769 709.076923077 145.769230769 709.076923077 166.597633136 709.076923077 c 0,15,16
 194.009615385 709.076923077 194.009615385 709.076923077 200.5 686 c 0,17,18
 202.12 680.24 202.12 680.24 202.12 673.32 c 128,-1,19
 202.12 666.4 202.12 666.4 197 660 c 2,20,-1
 128 568 l 1,11,-1
EndSplineSet
EndChar

StartChar: sterling
Encoding: 163 163 209
Width: 471
Flags: HMW
HStem: 0 80 435 80 694 20G
VStem: 78 360<0 50 50 50> 101 320<303 358 303 358>
LayerCount: 2
Fore
SplineSet
438 0 m 1,0,-1
 78 0 l 1,1,-1
 78 50 l 1,2,3
 129 76 129 76 160.5 123 c 128,-1,4
 192 170 192 170 192 225 c 0,5,6
 192 254 192 254 178 303 c 1,7,-1
 101 303 l 1,8,-1
 101 358 l 1,9,-1
 160 358 l 1,10,11
 125 465 125 465 125 515 c 0,12,13
 125 602 125 602 179.5 655.5 c 128,-1,14
 234 709 234 709 310.5 709 c 0,15,16
 387 709 387 709 427 684 c 1,17,-1
 409 635 l 1,18,19
 368 658 368 658 313 658 c 0,20,21
 258 658 258 658 219 618.5 c 128,-1,22
 180 579 180 579 180 513 c 0,23,24
 180 480 180 480 220 358 c 1,25,-1
 421 358 l 1,26,-1
 421 303 l 1,27,-1
 237 303 l 1,28,29
 249.071428571 256.571428571 249.071428571 256.571428571 249.071428571 215.392045455 c 0,30,31
 249.071428571 174.212662338 249.071428571 174.212662338 225.535714286 126.606331169 c 0,32,33
 202 79 202 79 163 55 c 1,34,-1
 438 55 l 1,35,-1
 438 0 l 1,0,-1
EndSplineSet
EndChar

StartChar: w_w_w
Encoding: 65541 -1 210
Width: 1925
Flags: HMW
HStem: 0 21G<171 248 171 171 451 528 451 451 780 857 780 780 1060 1137 1060 1060 1392 1469 1392 1392 1672 1749 1672 1672> 481 20G<18 77 77 77 323 380 380 380 624 686 686 686 932 989 989 989 1233 1298 1298 1298 1544 1601 1601 1601 1845 1904 1904 1904>
LayerCount: 2
Fore
SplineSet
1904 501 m 1,0,-1
 1749 0 l 1,1,-1
 1672 0 l 1,2,3
 1655 68 1655 68 1621.5 203 c 128,-1,4
 1588 338 1588 338 1571 405 c 1,5,-1
 1469 0 l 1,6,-1
 1392 0 l 1,7,8
 1371 69 1371 69 1328.5 207.5 c 128,-1,9
 1286 346 1286 346 1265 415 c 1,10,11
 1174.30434783 117 1174.30434783 117 1137 0 c 1,12,-1
 1060 0 l 1,13,14
 1043 68 1043 68 1009.5 203 c 128,-1,15
 976 338 976 338 959 405 c 1,16,-1
 857 0 l 1,17,-1
 780 0 l 1,18,19
 759 69 759 69 717.5 205 c 128,-1,20
 676 341 676 341 655 410 c 1,21,22
 528 0 l 1,23,-1
 451 0 l 1,24,25
 434 68 434 68 400.5 203 c 128,-1,26
 367 338 367 338 350 405 c 1,27,-1
 248 0 l 1,28,-1
 171 0 l 1,29,-1
 18 501 l 1,30,-1
 77 501 l 1,31,32
 99 427 99 427 143.5 279.5 c 128,-1,33
 188 132 188 132 210 58 c 1,34,-1
 323 501 l 1,35,-1
 380 501 l 1,36,37
 422.621621622 335 422.621621622 335 490 58 c 1,38,-1
 624 501 l 1,39,-1
 686 501 l 1,40,41
 708 427 708 427 752.5 279.5 c 128,-1,42
 797 132 797 132 819 58 c 1,43,-1
 932 501 l 1,44,-1
 989 501 l 1,45,46
 1056.37837838 224 1056.37837838 224 1099 58 c 1,47,48
 1151.83783784 228 1151.83783784 228 1233 501 c 1,49,-1
 1298 501 l 1,50,51
 1320 427 1320 427 1364.5 279.5 c 128,-1,52
 1409 132 1409 132 1431 58 c 1,53,-1
 1544 501 l 1,54,-1
 1601 501 l 1,55,-1
 1711 58 l 1,56,-1
 1845 501 l 1,57,-1
 1904 501 l 1,0,-1
EndSplineSet
EndChar

StartChar: f_t
Encoding: 65542 -1 211
Width: 515
Flags: HMW
HStem: -13 21G<412 412> 0 21G<78 134 78 78> 448 53<134 224 134 248 362 458>
VStem: 78 56<0 448 501 549> 306 56<132 448 501 623 623 623>
LayerCount: 2
Fore
SplineSet
78 561 m 2,0,1
 78 629 78 629 121.191176471 667.823529412 c 128,-1,2
 164.382352941 706.647058824 164.382352941 706.647058824 230.973404255 706.647058824 c 128,-1,3
 297.564455569 706.647058824 297.564455569 706.647058824 362 657 c 1,4,-1
 362 501 l 1,5,-1
 482 501 l 1,6,-1
 458 448 l 1,7,-1
 362 448 l 1,8,-1
 362 132 l 2,9,10
 362 52 362 52 428 30 c 1,11,-1
 412 -13 l 1,12,13
 356 3 356 3 331 38 c 128,-1,14
 306 73 306 73 306 132 c 2,15,-1
 306 623 l 1,16,17
 260.90625 646.765625 260.90625 646.765625 231.5234375 646.765625 c 128,-1,18
 202.140625 646.765625 202.140625 646.765625 183 637 c 0,19,20
 134 612 134 612 134 549 c 2,21,-1
 134 501 l 1,22,-1
 248 501 l 1,23,-1
 224 448 l 1,24,-1
 134 448 l 1,25,-1
 134 0 l 1,26,-1
 78 0 l 1,27,-1
 78 561 l 2,0,1
EndSplineSet
EndChar

StartChar: t_t
Encoding: 65543 -1 212
Width: 478
Flags: HMW
HStem: 0 75 442 75
VStem: 49 85 364 85
LayerCount: 2
Fore
SplineSet
401 30 m 1,0,1
 396.142857143 13 396.142857143 13 385 -13 c 1,2,3
 329 3 329 3 304 38 c 128,-1,4
 279 73 279 73 279 132 c 2,5,-1
 278.5 449 l 1,6,-1
 278 448 l 1,7,-1
 100 448 l 1,8,-1
 100 132 l 2,9,10
 100 53 100 53 166 30 c 1,11,12
 161.142857143 13 161.142857143 13 150 -13 c 1,13,14
 94 3 94 3 69 38 c 128,-1,15
 44 73 44 73 44 132 c 2,16,-1
 44 700 l 1,17,-1
 100 700 l 1,18,-1
 100 501 l 1,19,-1
 279 501 l 1,20,-1
 279 700 l 1,21,-1
 335 700 l 1,22,-1
 335 501 l 1,23,-1
 455 501 l 1,24,-1
 431 448 l 1,25,-1
 335 448 l 1,26,-1
 335 132 l 2,27,28
 335 53 335 53 401 30 c 1,0,1
EndSplineSet
EndChar

StartChar: f_f
Encoding: 64256 64256 213
Width: 545
Flags: HMW
HStem: 0 21G<78 134 78 78 311 367 311 311> 448 53<134 224 134 248 367 457> 658 49
VStem: 100 56 335 56
LayerCount: 2
Fore
SplineSet
351 664 m 1,0,1
 391.268817204 699.666666667 391.268817204 699.666666667 450.125 699.666666667 c 0,2,3
 487.833333333 699.666666667 487.833333333 699.666666667 512 683 c 1,4,-1
 492 634 l 1,5,6
 467.510204082 645.755102041 467.510204082 645.755102041 445.571428571 645.755102041 c 128,-1,7
 423.632653061 645.755102041 423.632653061 645.755102041 404.5 633 c 0,8,9
 367 608 367 608 367 549 c 2,10,-1
 367 501 l 1,11,-1
 481 501 l 1,12,-1
 457 448 l 1,13,-1
 367 448 l 1,14,-1
 367 0 l 1,15,-1
 311 0 l 1,16,-1
 311 561 l 2,17,18
 311 592 311 592 322 620 c 1,19,20
 277.80952381 646.698412698 277.80952381 646.698412698 239.12824389 646.698412698 c 0,21,22
 193.746598639 646.698412698 193.746598639 646.698412698 163.87329932 617.349206349 c 128,-1,23
 134 588 134 588 134 549 c 2,24,-1
 134 501 l 1,25,-1
 248 501 l 1,26,-1
 224 448 l 1,27,-1
 134 448 l 1,28,-1
 134 0 l 1,29,-1
 78 0 l 1,30,-1
 78 561 l 2,31,32
 78 610 78 610 103.5 646 c 0,33,34
 146.040246212 706.056818182 146.040246212 706.056818182 218.948922822 706.056818182 c 128,-1,35
 291.857599432 706.056818182 291.857599432 706.056818182 351 664 c 1,0,1
EndSplineSet
EndChar

StartChar: f_f_l
Encoding: 64260 64260 214
Width: 625
Flags: HMW
HStem: 0 21G<78 134 78 78 311 367 311 311 536 592 536 536>
VStem: 563 56
LayerCount: 2
Fore
SplineSet
351 664 m 1,0,1
 393.301298701 705.057142857 393.301298701 705.057142857 465.310649351 705.057142857 c 128,-1,2
 537.32 705.057142857 537.32 705.057142857 592 666 c 1,3,-1
 592 0 l 1,4,-1
 536 0 l 1,5,-1
 536 629 l 1,6,7
 495.593495935 648.918699187 495.593495935 648.918699187 466.353658537 648.918699187 c 128,-1,8
 437.113821138 648.918699187 437.113821138 648.918699187 416 637.5 c 0,9,10
 367 611 367 611 367 557 c 2,11,-1
 367 501 l 1,12,-1
 481 501 l 1,13,-1
 457 448 l 1,14,-1
 367 448 l 1,15,-1
 367 0 l 1,16,-1
 311 0 l 1,17,-1
 311 561 l 2,18,19
 311 592 311 592 322 620 c 1,20,21
 277.80952381 646.698412698 277.80952381 646.698412698 239.12824389 646.698412698 c 0,22,23
 193.746598639 646.698412698 193.746598639 646.698412698 163.87329932 617.349206349 c 128,-1,24
 134 588 134 588 134 549 c 2,25,-1
 134 501 l 1,26,-1
 248 501 l 1,27,-1
 224 448 l 1,28,-1
 134 448 l 1,29,-1
 134 0 l 1,30,-1
 78 0 l 1,31,-1
 78 561 l 2,32,33
 78 610 78 610 103.5 646 c 0,34,35
 146.040246212 706.056818182 146.040246212 706.056818182 218.948922822 706.056818182 c 128,-1,36
 291.857599432 706.056818182 291.857599432 706.056818182 351 664 c 1,0,1
EndSplineSet
EndChar

StartChar: Hcircumflex
Encoding: 292 292 215
Width: 588
Flags: HMW
HStem: 730 142
VStem: 78 56<0 358 0 413 413 700> 79 21 168 251 452 56<0 358 358 358 413 700>
LayerCount: 2
Fore
SplineSet
508 0 m 1,0,-1
 452 0 l 1,1,-1
 452 358 l 1,2,-1
 134 358 l 1,3,-1
 134 0 l 1,4,-1
 78 0 l 1,5,-1
 78 700 l 1,6,-1
 134 700 l 1,7,-1
 134 413 l 1,8,-1
 452 413 l 1,9,-1
 452 700 l 1,10,-1
 508 700 l 1,11,-1
 508 0 l 1,0,-1
431 733 m 1,12,-1
 326 837 l 1,13,-1
 217 733 l 1,14,-1
 179 772 l 1,15,-1
 327 913 l 1,16,-1
 469 772 l 1,17,-1
 431 733 l 1,12,-1
EndSplineSet
EndChar

StartChar: Cdotaccent
Encoding: 266 266 216
Width: 436
Flags: HMW
HStem: -12 52 659 51 679 104
VStem: 66 56<183 185 185 504 504 513> 225 66
LayerCount: 2
Fore
SplineSet
427 23 m 1,0,1
 341.745951417 -10.0576923077 341.745951417 -10.0576923077 265.350591716 -10.0576923077 c 0,2,3
 248.615384615 -10.0576923077 248.615384615 -10.0576923077 216.307692308 -7.02884615385 c 128,-1,4
 184 -4 184 -4 147.5 15.5 c 128,-1,5
 111 35 111 35 88.5 77.5 c 128,-1,6
 66 120 66 120 66 183 c 2,7,-1
 66 504 l 2,8,9
 66 580 66 580 87.5 619 c 128,-1,10
 109 658 109 658 153 685 c 1,11,12
 198.161290323 710.290322581 198.161290323 710.290322581 259.638917794 710.290322581 c 0,13,14
 336.529032258 710.290322581 336.529032258 710.290322581 402 677 c 1,15,-1
 386 639 l 1,16,17
 329 660 329 660 278 660 c 0,18,19
 122 660 122 660 122 513 c 2,20,-1
 122 185 l 2,21,22
 122 54.2 122 54.2 249 41.5 c 0,23,24
 259.180722892 40.4819277108 259.180722892 40.4819277108 270.244592829 40.4819277108 c 0,25,26
 329.819277108 40.4819277108 329.819277108 40.4819277108 415 70 c 1,27,-1
 427 23 l 1,0,1
289 740 m 128,-1,29
 279 730 279 730 265.5 730 c 128,-1,30
 252 730 252 730 242 740 c 128,-1,31
 232 750 232 750 232 763.5 c 128,-1,32
 232 777 232 777 242 787 c 128,-1,33
 252 797 252 797 266 797 c 128,-1,34
 280 797 280 797 289.5 787.5 c 128,-1,35
 299 778 299 778 299 764 c 128,-1,28
 299 750 299 750 289 740 c 128,-1,29
EndSplineSet
EndChar

StartChar: Ccircumflex
Encoding: 264 264 217
Width: 436
Flags: HMW
HStem: -12 52 659 51 730 142
VStem: 66 56<183 185 185 504 504 513> 120 251
LayerCount: 2
Fore
SplineSet
383 733 m 1,0,-1
 278 837 l 1,1,-1
 169 733 l 1,2,-1
 131 772 l 1,3,-1
 279 913 l 1,4,-1
 421 772 l 1,5,-1
 383 733 l 1,0,-1
427 23 m 1,6,7
 341.745951417 -10.0576923077 341.745951417 -10.0576923077 265.350591716 -10.0576923077 c 0,8,9
 248.615384615 -10.0576923077 248.615384615 -10.0576923077 216.307692308 -7.02884615385 c 128,-1,10
 184 -4 184 -4 147.5 15.5 c 128,-1,11
 111 35 111 35 88.5 77.5 c 128,-1,12
 66 120 66 120 66 183 c 2,13,-1
 66 504 l 2,14,15
 66 580 66 580 87.5 619 c 128,-1,16
 109 658 109 658 153 685 c 1,17,18
 198.161290323 710.290322581 198.161290323 710.290322581 259.638917794 710.290322581 c 0,19,20
 336.529032258 710.290322581 336.529032258 710.290322581 402 677 c 1,21,-1
 386 639 l 1,22,23
 329 660 329 660 278 660 c 0,24,25
 122 660 122 660 122 513 c 2,26,-1
 122 185 l 2,27,28
 122 54.2 122 54.2 249 41.5 c 0,29,30
 259.180722892 40.4819277108 259.180722892 40.4819277108 270.244592829 40.4819277108 c 0,31,32
 329.819277108 40.4819277108 329.819277108 40.4819277108 415 70 c 1,33,-1
 427 23 l 1,6,7
EndSplineSet
EndChar

StartChar: cdotaccent
Encoding: 267 267 218
Width: 433
Flags: HMW
HStem: -12 51 460 69 487 104
VStem: 78 56<180 308 308 314> 224 66
LayerCount: 2
Fore
SplineSet
287.871527778 37.9166666667 m 0,0,1
 333.486111111 37.9166666667 333.486111111 37.9166666667 388 51 c 1,2,-1
 400 6 l 1,3,4
 336 -11.0666666667 336 -11.0666666667 284 -11.0666666667 c 128,-1,5
 232 -11.0666666667 232 -11.0666666667 181.5 5.46666666667 c 0,6,7
 78 39.3518151815 78 39.3518151815 78 180 c 2,8,-1
 78 308 l 2,9,10
 78 379 78 379 106 427 c 0,11,12
 154.239130435 509.695652174 154.239130435 509.695652174 263.506616257 509.695652174 c 0,13,14
 329.913043478 509.695652174 329.913043478 509.695652174 398 478 c 1,15,-1
 382 437 l 1,16,17
 324.968518519 459.316666667 324.968518519 459.316666667 283.284259259 459.316666667 c 128,-1,18
 241.6 459.316666667 241.6 459.316666667 209.8 449.158333333 c 128,-1,19
 178 439 178 439 156 404 c 128,-1,20
 134 369 134 369 134 314 c 2,21,-1
 134 169 l 2,22,23
 134 37.9166666667 134 37.9166666667 287.871527778 37.9166666667 c 0,0,1
265 538 m 128,-1,25
 252 538 252 538 241.5 548 c 128,-1,26
 231 558 231 558 231 571.5 c 128,-1,27
 231 585 231 585 241 595 c 128,-1,28
 251 605 251 605 264.5 605 c 128,-1,29
 278 605 278 605 288 595.5 c 128,-1,30
 298 586 298 586 298 572 c 128,-1,31
 298 558 298 558 288 548 c 128,-1,24
 278 538 278 538 265 538 c 128,-1,25
EndSplineSet
EndChar

StartChar: ccircumflex
Encoding: 265 265 219
Width: 434
Flags: HMW
HStem: -12 51 460 69 538 142
VStem: 78 56<180 308 308 314> 100 251
LayerCount: 2
Fore
SplineSet
287.871527778 37.9166666667 m 0,0,1
 333.486111111 37.9166666667 333.486111111 37.9166666667 388 51 c 1,2,-1
 400 6 l 1,3,4
 336 -11.0666666667 336 -11.0666666667 284 -11.0666666667 c 128,-1,5
 232 -11.0666666667 232 -11.0666666667 181.5 5.46666666667 c 0,6,7
 78 39.3518151815 78 39.3518151815 78 180 c 2,8,-1
 78 308 l 2,9,10
 78 379 78 379 106 427 c 0,11,12
 154.239130435 509.695652174 154.239130435 509.695652174 263.506616257 509.695652174 c 0,13,14
 329.913043478 509.695652174 329.913043478 509.695652174 398 478 c 1,15,-1
 382 437 l 1,16,17
 324.968518519 459.316666667 324.968518519 459.316666667 283.284259259 459.316666667 c 128,-1,18
 241.6 459.316666667 241.6 459.316666667 209.8 449.158333333 c 128,-1,19
 178 439 178 439 156 404 c 128,-1,20
 134 369 134 369 134 314 c 2,21,-1
 134 169 l 2,22,23
 134 37.9166666667 134 37.9166666667 287.871527778 37.9166666667 c 0,0,1
363 541 m 1,24,-1
 258 645 l 1,25,-1
 149 541 l 1,26,-1
 111 580 l 1,27,-1
 259 721 l 1,28,-1
 401 580 l 1,29,-1
 363 541 l 1,24,-1
EndSplineSet
EndChar

StartChar: Idotaccent
Encoding: 304 304 220
Width: 287
Flags: HMW
HStem: 679 104
VStem: 133 66 145 56<0 649 649 649>
LayerCount: 2
Fore
SplineSet
201 0 m 1,0,-1
 145 0 l 1,1,-1
 145 649 l 1,2,-1
 78 651 l 1,3,-1
 78 700 l 1,4,-1
 201 700 l 1,5,-1
 201 0 l 1,0,-1
197 740 m 128,-1,7
 187 730 187 730 173.5 730 c 128,-1,8
 160 730 160 730 150 740 c 128,-1,9
 140 750 140 750 140 763.5 c 128,-1,10
 140 777 140 777 150 787 c 128,-1,11
 160 797 160 797 174 797 c 128,-1,12
 188 797 188 797 197.5 787.5 c 128,-1,13
 207 778 207 778 207 764 c 128,-1,6
 207 750 207 750 197 740 c 128,-1,7
EndSplineSet
EndChar

StartChar: Hbar
Encoding: 294 294 221
Width: 685
Flags: HMW
HStem: 363 80
VStem: 78 527<483 538 483 538> 127 56<0 358 0 413 413 483 538 700> 128 21 501 56<0 358 358 358 413 483 538 700>
LayerCount: 2
Fore
SplineSet
557 0 m 1,0,-1
 501 0 l 1,1,-1
 501 358 l 1,2,-1
 183 358 l 1,3,-1
 183 0 l 1,4,-1
 127 0 l 1,5,-1
 127 483 l 1,6,-1
 78 483 l 1,7,-1
 78 538 l 1,8,-1
 127 538 l 1,9,-1
 127 700 l 1,10,-1
 183 700 l 1,11,-1
 183 538 l 1,12,-1
 501 538 l 1,13,-1
 501 700 l 1,14,-1
 557 700 l 1,15,-1
 557 538 l 1,16,-1
 605 538 l 1,17,-1
 605 483 l 1,18,-1
 557 483 l 1,19,-1
 557 0 l 1,0,-1
501 413 m 1,20,-1
 501 483 l 1,21,-1
 183 483 l 1,22,-1
 183 413 l 1,23,-1
 501 413 l 1,20,-1
EndSplineSet
EndChar

StartChar: Gbreve
Encoding: 286 286 222
Width: 537
Flags: HMW
HStem: -10 51 0 21G<435 476 435 435> 659 51 728 45<257 295 257 307> 857 20G
VStem: 65 56<189 503 503 512> 163 226<841 846 810 846> 421 55<41 41>
LayerCount: 2
Fore
SplineSet
476 0 m 1,0,-1
 435 0 l 1,1,-1
 421 41 l 1,2,3
 369 -10 369 -10 278.5 -10 c 128,-1,4
 188 -10 188 -10 126.5 40 c 128,-1,5
 65 90 65 90 65 189 c 2,6,-1
 65 503 l 2,7,8
 65 631 65 631 152 684 c 1,9,10
 197.161290323 709.290322581 197.161290323 709.290322581 258.638917794 709.290322581 c 0,11,12
 335.529032258 709.290322581 335.529032258 709.290322581 401 676 c 1,13,-1
 385 638 l 1,14,15
 328 659 328 659 277 659 c 0,16,17
 121 659 121 659 121 512 c 2,18,-1
 121 187 l 2,19,20
 121 120 121 120 164.5 82 c 128,-1,21
 208 44 208 44 275.5 44 c 128,-1,22
 343 44 343 44 383 83 c 128,-1,23
 423 122 423 122 423 186 c 2,24,-1
 423 245 l 1,25,-1
 357 245 l 1,26,-1
 338 300 l 1,27,-1
 476 300 l 1,28,-1
 476 0 l 1,0,-1
389 846 m 1,29,-1
 389 841 l 2,30,31
 389 794 389 794 355.5 761 c 128,-1,32
 322 728 322 728 276 728 c 128,-1,33
 230 728 230 728 196.5 761 c 128,-1,34
 163 794 163 794 163 841 c 2,35,-1
 163 846 l 1,36,-1
 208 846 l 1,37,-1
 208 841 l 2,38,39
 208 812 208 812 228 792.5 c 128,-1,40
 248 773 248 773 276 773 c 128,-1,41
 304 773 304 773 324 792.5 c 128,-1,42
 344 812 344 812 344 841 c 2,43,-1
 344 846 l 1,44,-1
 389 846 l 1,29,-1
EndSplineSet
EndChar

StartChar: Jcircumflex
Encoding: 308 308 223
Width: 265
Flags: HMW
HStem: -17 80 728 45<90 128 90 140> 857 20G
VStem: -4 226<841 846 810 846> 86 57<114 118 118 649 649 649> 371 21
LayerCount: 2
Fore
SplineSet
17 -37 m 1,0,-1
 4 0 l 1,1,2
 37 0 37 0 61.5 27 c 128,-1,3
 86 54 86 54 86 114 c 2,4,-1
 86 649 l 1,5,-1
 19 651 l 1,6,-1
 19 700 l 1,7,-1
 143 700 l 1,8,-1
 143 118 l 2,9,10
 143 44 143 44 109.5 3.5 c 128,-1,11
 76 -37 76 -37 17 -37 c 1,0,-1
222 846 m 1,12,-1
 222 841 l 2,13,14
 222 794 222 794 189 761 c 128,-1,15
 156 728 156 728 109 728 c 128,-1,16
 62 728 62 728 29 761 c 128,-1,17
 -4 794 -4 794 -4 841 c 2,18,-1
 -4 846 l 1,19,-1
 41 846 l 1,20,-1
 41 841 l 2,21,22
 41 812 41 812 60.5 792.5 c 128,-1,23
 80 773 80 773 109 773 c 128,-1,24
 138 773 138 773 157.5 792.5 c 128,-1,25
 177 812 177 812 177 841 c 2,26,-1
 177 846 l 1,27,-1
 222 846 l 1,12,-1
EndSplineSet
EndChar

StartChar: Zdotaccent
Encoding: 379 379 224
Width: 550
Flags: HMW
HStem: 0 80 634 80 675 104
VStem: 31 487<0 50 50 50> 247 66
LayerCount: 2
Fore
SplineSet
518 0 m 1,0,-1
 31 0 l 1,1,-1
 31 50 l 1,2,-1
 441 649 l 1,3,-1
 44 649 l 1,4,-1
 44 700 l 1,5,-1
 512 700 l 1,6,-1
 512 650 l 1,7,-1
 102 51 l 1,8,-1
 518 51 l 1,9,-1
 518 0 l 1,0,-1
311 736 m 128,-1,11
 301 726 301 726 287.5 726 c 128,-1,12
 274 726 274 726 264 736 c 128,-1,13
 254 746 254 746 254 759.5 c 128,-1,14
 254 773 254 773 264 783 c 128,-1,15
 274 793 274 793 288 793 c 128,-1,16
 302 793 302 793 311.5 783.5 c 128,-1,17
 321 774 321 774 321 760 c 128,-1,10
 321 746 321 746 311 736 c 128,-1,11
EndSplineSet
EndChar

StartChar: hbar
Encoding: 295 295 225
Width: 542
Flags: HMW
HStem: 0 21G<140 196 140 140 454 509 454 454> 460 49 694 20G
VStem: 78 234<562 617 562 617> 140 56<0 425 0 474 474 562 617 700> 454 55<0 343 343 346>
LayerCount: 2
Fore
SplineSet
196 474 m 1,0,1
 246.25 509.892857143 246.25 509.892857143 330.973214286 509.892857143 c 0,2,3
 384.571428571 509.892857143 384.571428571 509.892857143 424 491 c 0,4,5
 509 452 509 452 509 346 c 2,6,-1
 509 0 l 1,7,-1
 454 0 l 1,8,-1
 454 343 l 2,9,10
 454 395 454 395 426 424 c 0,11,12
 392.206896552 459 392.206896552 459 324.524500907 459 c 128,-1,13
 256.842105263 459 256.842105263 459 196 425 c 1,14,-1
 196 0 l 1,15,-1
 140 0 l 1,16,-1
 140 562 l 1,17,-1
 78 562 l 1,18,-1
 78 617 l 1,19,-1
 140 617 l 1,20,-1
 140 700 l 1,21,-1
 196 700 l 1,22,-1
 196 617 l 1,23,-1
 312 617 l 1,24,-1
 312 562 l 1,25,-1
 196 562 l 1,26,-1
 196 474 l 1,0,1
EndSplineSet
EndChar

StartChar: hcircumflex
Encoding: 293 293 226
Width: 610
Flags: HMW
HStem: 0 21G<181 237 181 181 495 550 495 495> 460 49 694 20G 730 142
VStem: 53 251 181 56<0 425 0 474 474 700> 495 55<0 343 343 346>
LayerCount: 2
Fore
SplineSet
316 733 m 1,0,-1
 211 837 l 1,1,-1
 102 733 l 1,2,-1
 64 772 l 1,3,-1
 212 913 l 1,4,-1
 354 772 l 1,5,-1
 316 733 l 1,0,-1
237 474 m 1,6,7
 287.25 509.892857143 287.25 509.892857143 371.973214286 509.892857143 c 0,8,9
 425.571428571 509.892857143 425.571428571 509.892857143 465 491 c 0,10,11
 550 452 550 452 550 346 c 2,12,-1
 550 0 l 1,13,-1
 495 0 l 1,14,-1
 495 343 l 2,15,16
 495 395 495 395 467 424 c 0,17,18
 433.206896552 459 433.206896552 459 365.524500907 459 c 128,-1,19
 297.842105263 459 297.842105263 459 237 425 c 1,20,-1
 237 0 l 1,21,-1
 181 0 l 1,22,-1
 181 700 l 1,23,-1
 237 700 l 1,24,-1
 237 474 l 1,6,7
EndSplineSet
EndChar

StartChar: scedilla
Encoding: 351 351 227
Width: 431
Flags: HMW
HStem: -210 47<201.5 225.5 201.5 229.5> -98 50 454 75
VStem: 36 53<127 127> 48 55 249 77 312 19 340 56<90 190.5>
LayerCount: 2
Fore
SplineSet
110 -191 m 1,0,-1
 134 -138 l 1,1,2
 171 -163 171 -163 203.5 -163 c 0,3,4
 274 -163 274 -163 274 -121 c 0,5,6
 274 -99 274 -99 253.5 -89 c 0,7,8
 244.586956522 -84.652173913 244.586956522 -84.652173913 230.967391304 -84.652173913 c 128,-1,9
 217.347826087 -84.652173913 217.347826087 -84.652173913 197 -92 c 2,10,-1
 163 -106 l 1,11,-1
 146 -78 l 1,12,-1
 196 -14 l 1,13,14
 122 -8 122 -8 80 32 c 128,-1,15
 38 72 38 72 36 127 c 1,16,-1
 89 127 l 1,17,18
 95 82 95 82 134 59.5 c 128,-1,19
 173 37 173 37 219.5 37 c 128,-1,20
 266 37 266 37 303 57.5 c 128,-1,21
 340 78 340 78 340 119.5 c 128,-1,22
 340 161 340 161 311.5 184 c 128,-1,23
 283 207 283 207 242 220 c 128,-1,24
 201 233 201 233 159 247.5 c 128,-1,25
 117 262 117 262 85 291 c 0,26,27
 47.2653061224 325.197066327 47.2653061224 325.197066327 47.2653061224 375.445471939 c 128,-1,28
 47.2653061224 425.693877551 47.2653061224 425.693877551 87.6326530612 469.346938776 c 128,-1,29
 128 513 128 513 219 513 c 0,30,31
 251 513 251 513 279 505.5 c 128,-1,32
 307 498 307 498 319 491 c 2,33,-1
 331 484 l 1,34,-1
 312 438 l 1,35,36
 276 464 276 464 222 464 c 128,-1,37
 168 464 168 464 135.292207792 440.772727273 c 128,-1,38
 102.584415584 417.545454545 102.584415584 417.545454545 102.584415584 379.129364142 c 0,39,40
 102.584415584 341.222840651 102.584415584 341.222840651 135.792207792 319.611420326 c 128,-1,41
 169 298 169 298 211.5 285.5 c 128,-1,42
 254 273 254 273 296 257 c 128,-1,43
 338 241 338 241 367 208 c 128,-1,44
 396 175 396 175 396 121.5 c 128,-1,45
 396 68 396 68 356 29 c 128,-1,46
 316 -10 316 -10 238 -14 c 1,47,-1
 209 -53 l 1,48,49
 218 -47 218 -47 248.5 -47 c 128,-1,50
 279 -47 279 -47 302.5 -66.5 c 128,-1,51
 326 -86 326 -86 326 -127.5 c 128,-1,52
 326 -169 326 -169 289 -189.5 c 128,-1,53
 252 -210 252 -210 207 -210 c 128,-1,54
 162 -210 162 -210 110 -191 c 1,0,-1
EndSplineSet
EndChar

StartChar: gbreve
Encoding: 287 287 228
Width: 488
Flags: HMW
HStem: -210 43<333 348> -12 471<234 295> 40 470<226.5 296.5 211 298.5> 532 45<263 301 263 313> 661 20G
VStem: 78 321<176 325 325 336 336 381 -63 384.5> 169 226<645 650 614 650> 399 56<-63 61 61 61 173 336 336 381>
LayerCount: 2
Fore
SplineSet
395 650 m 1,0,-1
 395 645 l 2,1,2
 395 598 395 598 361.5 565 c 128,-1,3
 328 532 328 532 282 532 c 128,-1,4
 236 532 236 532 202.5 565 c 128,-1,5
 169 598 169 598 169 645 c 2,6,-1
 169 650 l 1,7,-1
 214 650 l 1,8,-1
 214 645 l 2,9,10
 214 616 214 616 234 596.5 c 128,-1,11
 254 577 254 577 282 577 c 128,-1,12
 310 577 310 577 330 596.5 c 128,-1,13
 350 616 350 616 350 645 c 2,14,-1
 350 650 l 1,15,-1
 395 650 l 1,0,-1
348 -210 m 1,16,-1
 333 -167 l 1,17,18
 399 -142 399 -142 399 -63 c 2,19,-1
 399 61 l 1,20,21
 357 -12 357 -12 266.5 -12 c 0,22,23
 176 -12 176 -12 127 36 c 128,-1,24
 78 84 78 84 78 176 c 2,25,-1
 78 325 l 2,26,27
 78 413 78 413 129.5 461.5 c 128,-1,28
 181 510 181 510 271 510 c 0,29,30
 361 510 361 510 403 443 c 1,31,-1
 399 501 l 1,32,-1
 455 501 l 1,33,-1
 455 -64 l 2,34,35
 455 -124 455 -124 430 -158 c 128,-1,36
 405 -192 405 -192 348 -210 c 1,16,-1
399 173 m 2,37,-1
 399 336 l 2,38,39
 399 398 399 398 359 428.5 c 128,-1,40
 319 459 319 459 265 459 c 0,41,42
 211 459 211 459 172.5 426.5 c 128,-1,43
 134 394 134 394 134 320 c 2,44,-1
 134 167 l 2,45,46
 134 104 134 104 169.5 72 c 128,-1,47
 205 40 205 40 262.5 40 c 0,48,49
 320 40 320 40 359.5 74.5 c 128,-1,50
 399 109 399 109 399 173 c 2,37,-1
EndSplineSet
EndChar

StartChar: jcircumflex
Encoding: 309 309 229
Width: 401
Flags: HMW
HStem: -209 43<119 162.5> 457 52 538 142 654 67
VStem: -13 21 67 251 194 56<-56 446 446 446>
LayerCount: 2
Fore
SplineSet
330 541 m 1,0,-1
 225 645 l 1,1,-1
 116 541 l 1,2,-1
 78 580 l 1,3,-1
 226 721 l 1,4,-1
 368 580 l 1,5,-1
 330 541 l 1,0,-1
194 -56 m 2,6,-1
 194 446 l 1,7,-1
 149 449 l 1,8,-1
 126 501 l 1,9,-1
 250 501 l 1,10,-1
 250 -75 l 1,11,12
 248 -133 248 -133 214 -171 c 128,-1,13
 180 -209 180 -209 126 -209 c 1,14,-1
 119 -166 l 1,15,16
 126 -166 126 -166 142 -158 c 128,-1,17
 158 -150 158 -150 168 -139 c 0,18,19
 194 -110.4 194 -110.4 194 -56 c 2,6,-1
EndSplineSet
EndChar

StartChar: zdotaccent
Encoding: 380 380 230
Width: 478
Flags: HMW
HStem: 0 75 442 75 484 104
VStem: 87 358 220 66
LayerCount: 2
Fore
SplineSet
445 0 m 1,0,-1
 78 0 l 1,1,-1
 78 50 l 1,2,-1
 353 450 l 1,3,-1
 87 450 l 1,4,-1
 87 501 l 1,5,-1
 424 501 l 1,6,-1
 424 451 l 1,7,-1
 147 51 l 1,8,-1
 445 51 l 1,9,-1
 445 0 l 1,0,-1
261 535 m 128,-1,11
 248 535 248 535 237.5 545.5 c 128,-1,12
 227 556 227 556 227 569 c 128,-1,13
 227 582 227 582 237 592 c 128,-1,14
 247 602 247 602 260.5 602 c 0,15,16
 274 602 274 602 284 592 c 128,-1,17
 294 582 294 582 294 568.5 c 0,18,19
 294 555 294 555 284 545 c 128,-1,10
 274 535 274 535 261 535 c 128,-1,11
EndSplineSet
EndChar

StartChar: Gdotaccent
Encoding: 288 288 231
Width: 566
Flags: HMW
HStem: -17 80 678 104 694 20G
VStem: 74 56 252 66 439 56
LayerCount: 2
Fore
SplineSet
273 729 m 128,-1,1
 260 729 260 729 249.5 739.5 c 128,-1,2
 239 750 239 750 239 763 c 128,-1,3
 239 776 239 776 249 786 c 128,-1,4
 259 796 259 796 272.5 796 c 128,-1,5
 286 796 286 796 296 786 c 128,-1,6
 306 776 306 776 306 762.5 c 128,-1,7
 306 749 306 749 296 739 c 128,-1,0
 286 729 286 729 273 729 c 128,-1,1
476 0 m 1,8,-1
 435 0 l 1,9,-1
 421 41 l 1,10,11
 369 -10 369 -10 278.5 -10 c 128,-1,12
 188 -10 188 -10 126.5 40 c 128,-1,13
 65 90 65 90 65 189 c 2,14,-1
 65 503 l 2,15,16
 65 631 65 631 152 684 c 1,17,18
 197.161290323 709.290322581 197.161290323 709.290322581 258.638917794 709.290322581 c 0,19,20
 335.529032258 709.290322581 335.529032258 709.290322581 401 676 c 1,21,-1
 385 638 l 1,22,23
 328 659 328 659 277 659 c 0,24,25
 121 659 121 659 121 512 c 2,26,-1
 121 187 l 2,27,28
 121 120 121 120 164.5 82 c 128,-1,29
 208 44 208 44 275.5 44 c 128,-1,30
 343 44 343 44 383 83 c 128,-1,31
 423 122 423 122 423 186 c 2,32,-1
 423 245 l 1,33,-1
 357 245 l 1,34,-1
 338 300 l 1,35,-1
 476 300 l 1,36,-1
 476 0 l 1,8,-1
EndSplineSet
EndChar

StartChar: Gcircumflex
Encoding: 284 284 232
Width: 537
Flags: HMW
HStem: -10 51 0 21G<435 476 435 435> 659 51 730 142
VStem: 65 56<189 503 503 512> 125 251 421 55<41 41>
LayerCount: 2
Fore
SplineSet
476 0 m 1,0,-1
 435 0 l 1,1,-1
 421 41 l 1,2,3
 369 -10 369 -10 278.5 -10 c 128,-1,4
 188 -10 188 -10 126.5 40 c 128,-1,5
 65 90 65 90 65 189 c 2,6,-1
 65 503 l 2,7,8
 65 631 65 631 152 684 c 1,9,10
 197.161290323 709.290322581 197.161290323 709.290322581 258.638917794 709.290322581 c 0,11,12
 335.529032258 709.290322581 335.529032258 709.290322581 401 676 c 1,13,-1
 385 638 l 1,14,15
 328 659 328 659 277 659 c 0,16,17
 121 659 121 659 121 512 c 2,18,-1
 121 187 l 2,19,20
 121 120 121 120 164.5 82 c 128,-1,21
 208 44 208 44 275.5 44 c 128,-1,22
 343 44 343 44 383 83 c 128,-1,23
 423 122 423 122 423 186 c 2,24,-1
 423 245 l 1,25,-1
 357 245 l 1,26,-1
 338 300 l 1,27,-1
 476 300 l 1,28,-1
 476 0 l 1,0,-1
388 733 m 1,29,-1
 283 837 l 1,30,-1
 174 733 l 1,31,-1
 136 772 l 1,32,-1
 284 913 l 1,33,-1
 426 772 l 1,34,-1
 388 733 l 1,29,-1
EndSplineSet
EndChar

StartChar: gdotaccent
Encoding: 289 289 233
Width: 488
Flags: HMW
HStem: -210 43<333 348> -12 471<234 295> 40 470<226.5 296.5 211 298.5> 486 104
VStem: 78 321<176 325 325 336 336 381 -63 384.5> 239 66 399 56<-63 61 61 61 173 336 336 381>
LayerCount: 2
Fore
SplineSet
303 547 m 128,-1,1
 293 537 293 537 279.5 537 c 128,-1,2
 266 537 266 537 256 547.5 c 128,-1,3
 246 558 246 558 246 571 c 128,-1,4
 246 584 246 584 256 594 c 128,-1,5
 266 604 266 604 280 604 c 128,-1,6
 294 604 294 604 303.5 594 c 128,-1,7
 313 584 313 584 313 570.5 c 128,-1,0
 313 557 313 557 303 547 c 128,-1,1
348 -210 m 1,8,-1
 333 -167 l 1,9,10
 399 -142 399 -142 399 -63 c 2,11,-1
 399 61 l 1,12,13
 357 -12 357 -12 266.5 -12 c 128,-1,14
 176 -12 176 -12 127 36 c 128,-1,15
 78 84 78 84 78 176 c 2,16,-1
 78 325 l 2,17,18
 78 413 78 413 129.5 461.5 c 128,-1,19
 181 510 181 510 271 510 c 128,-1,20
 361 510 361 510 403 443 c 1,21,-1
 399 501 l 1,22,-1
 455 501 l 1,23,-1
 455 -64 l 2,24,25
 455 -124 455 -124 430 -158 c 128,-1,26
 405 -192 405 -192 348 -210 c 1,8,-1
399 173 m 2,27,-1
 399 336 l 2,28,29
 399 398 399 398 359 428.5 c 128,-1,30
 319 459 319 459 265 459 c 128,-1,31
 211 459 211 459 172.5 426.5 c 128,-1,32
 134 394 134 394 134 320 c 2,33,-1
 134 167 l 2,34,35
 134 104 134 104 169.5 72 c 128,-1,36
 205 40 205 40 262.5 40 c 128,-1,37
 320 40 320 40 359.5 74.5 c 128,-1,38
 399 109 399 109 399 173 c 2,27,-1
EndSplineSet
EndChar

StartChar: gcircumflex
Encoding: 285 285 234
Width: 489
Flags: HMW
HStem: -210 43<333 348> -12 471<234 295> 40 470<226.5 296.5 211 298.5> 538 142
VStem: 78 321<176 325 325 336 336 381 -63 384.5> 155 251 399 56<-63 61 61 61 173 336 336 381>
LayerCount: 2
Fore
SplineSet
418 541 m 1,0,-1
 313 645 l 1,1,-1
 204 541 l 1,2,-1
 166 580 l 1,3,-1
 314 721 l 1,4,-1
 456 580 l 1,5,-1
 418 541 l 1,0,-1
348 -210 m 1,6,-1
 333 -167 l 1,7,8
 399 -142 399 -142 399 -63 c 2,9,-1
 399 61 l 1,10,11
 357 -12 357 -12 266.5 -12 c 0,12,13
 176 -12 176 -12 127 36 c 128,-1,14
 78 84 78 84 78 176 c 2,15,-1
 78 325 l 2,16,17
 78 413 78 413 129.5 461.5 c 128,-1,18
 181 510 181 510 271 510 c 0,19,20
 361 510 361 510 403 443 c 1,21,-1
 399 501 l 1,22,-1
 455 501 l 1,23,-1
 455 -64 l 2,24,25
 455 -124 455 -124 430 -158 c 128,-1,26
 405 -192 405 -192 348 -210 c 1,6,-1
399 173 m 2,27,-1
 399 336 l 2,28,29
 399 398 399 398 359 428.5 c 128,-1,30
 319 459 319 459 265 459 c 0,31,32
 211 459 211 459 172.5 426.5 c 128,-1,33
 134 394 134 394 134 320 c 2,34,-1
 134 167 l 2,35,36
 134 104 134 104 169.5 72 c 128,-1,37
 205 40 205 40 262.5 40 c 0,38,39
 320 40 320 40 359.5 74.5 c 128,-1,40
 399 109 399 109 399 173 c 2,27,-1
EndSplineSet
EndChar

StartChar: Ubreve
Encoding: 364 364 235
Width: 566
Flags: HMW
HStem: -17 80 694 20G 724 45<265 303 265 315> 853 20G
VStem: 74 56<186 701> 171 226<837 842 806 842> 439 56<178 186 186 701>
LayerCount: 2
Fore
SplineSet
439 178 m 2,0,-1
 439 701 l 1,1,-1
 495 701 l 1,2,-1
 495 186 l 2,3,4
 495 133 495 133 476.5 94 c 128,-1,5
 458 55 458 55 426.5 34 c 128,-1,6
 395 13 395 13 360 3 c 128,-1,7
 325 -7 325 -7 285 -7 c 128,-1,8
 245 -7 245 -7 209.5 3 c 128,-1,9
 174 13 174 13 142.5 34 c 128,-1,10
 111 55 111 55 92.5 94 c 128,-1,11
 74 133 74 133 74 186 c 2,12,-1
 74 701 l 1,13,-1
 130 701 l 1,14,-1
 130 178 l 2,15,16
 130 117 130 117 174.5 80 c 128,-1,17
 219 43 219 43 284 43 c 128,-1,18
 349 43 349 43 394 80 c 128,-1,19
 439 117 439 117 439 178 c 2,0,-1
397 842 m 1,20,-1
 397 837 l 2,21,22
 397 790 397 790 363.5 757 c 128,-1,23
 330 724 330 724 284 724 c 128,-1,24
 238 724 238 724 204.5 757 c 128,-1,25
 171 790 171 790 171 837 c 2,26,-1
 171 842 l 1,27,-1
 216 842 l 1,28,-1
 216 837 l 2,29,30
 216 808 216 808 236 788.5 c 128,-1,31
 256 769 256 769 284 769 c 128,-1,32
 312 769 312 769 332 788.5 c 128,-1,33
 352 808 352 808 352 837 c 2,34,-1
 352 842 l 1,35,-1
 397 842 l 1,20,-1
EndSplineSet
EndChar

StartChar: Scircumflex
Encoding: 348 348 236
Width: 561
Flags: HMW
HStem: -17 80 651 80 825 47
VStem: 37 57<178 178> 55 58<451 574 451 580> 114 251 409 17 452 60<134.5 285>
LayerCount: 2
Fore
SplineSet
37 178 m 1,0,-1
 94 178 l 1,1,2
 99 125 99 125 147.5 84 c 128,-1,3
 196 43 196 43 272 43 c 128,-1,4
 348 43 348 43 400 77.5 c 128,-1,5
 452 112 452 112 452 187 c 0,6,7
 452 233 452 233 422.5 265.5 c 128,-1,8
 393 298 393 298 349 315 c 128,-1,9
 305 332 305 332 253.5 351.5 c 128,-1,10
 202 371 202 371 158 390 c 128,-1,11
 114 409 114 409 84.5 447 c 128,-1,12
 55 485 55 485 55 538 c 0,13,14
 55 608 55 608 113 659 c 128,-1,15
 171 710 171 710 280 710 c 0,16,17
 363 710 363 710 426 680 c 1,18,19
 426 678 426 678 409 627 c 1,20,21
 352 656 352 656 278.5 656 c 128,-1,22
 205 656 205 656 159 624 c 128,-1,23
 113 592 113 592 113 535 c 0,24,25
 113 471.114285714 113 471.114285714 192 435 c 0,26,27
 227 419 227 419 269.5 405 c 128,-1,28
 312 391 312 391 355 374 c 128,-1,29
 398 357 398 357 433 335.5 c 128,-1,30
 468 314 468 314 490 277 c 128,-1,31
 512 240 512 240 512 192 c 0,32,33
 512 100 512 100 453.5 44.5 c 128,-1,34
 395 -11 395 -11 279.5 -11 c 128,-1,35
 164 -11 164 -11 101.5 46.5 c 128,-1,36
 39 104 39 104 37 178 c 1,0,-1
377 733 m 1,37,-1
 272 837 l 1,38,-1
 163 733 l 1,39,-1
 125 772 l 1,40,-1
 273 913 l 1,41,-1
 415 772 l 1,42,-1
 377 733 l 1,37,-1
EndSplineSet
EndChar

StartChar: ubreve
Encoding: 365 365 237
Width: 484
Flags: HMW
HStem: -12 75 0 21G<396 451 396 396> 497 20G 535 45<251 289 251 301> 664 20G
VStem: 78 56<172 501> 157 226<648 653 617 653> 395 56<165 501>
LayerCount: 2
Fore
SplineSet
383 653 m 1,0,-1
 383 648 l 2,1,2
 383 602 383 602 349.5 568.5 c 128,-1,3
 316 535 316 535 270 535 c 128,-1,4
 224 535 224 535 190.5 568.5 c 128,-1,5
 157 602 157 602 157 648 c 2,6,-1
 157 653 l 1,7,-1
 202 653 l 1,8,-1
 202 648 l 2,9,10
 202 620 202 620 222 600 c 128,-1,11
 242 580 242 580 270 580 c 128,-1,12
 298 580 298 580 318 600 c 128,-1,13
 338 620 338 620 338 648 c 2,14,-1
 338 653 l 1,15,-1
 383 653 l 1,0,-1
451 0 m 1,16,-1
 396 0 l 1,17,-1
 400 51 l 1,18,19
 376 21 376 21 339.5 5 c 128,-1,20
 303 -11 303 -11 266 -11 c 0,21,22
 78 -11 78 -11 78 172 c 2,23,-1
 78 501 l 1,24,-1
 134 501 l 1,25,-1
 134 165 l 2,26,27
 134 101 134 101 169.5 70 c 128,-1,28
 205 39 205 39 266 39 c 0,29,30
 395 39 395 39 395 165 c 2,31,-1
 395 501 l 1,32,-1
 451 501 l 1,33,-1
 451 0 l 1,16,-1
EndSplineSet
EndChar

StartChar: scircumflex
Encoding: 349 349 238
Width: 471
Flags: HMW
HStem: 454 75 538 142
VStem: 78 53<127 127> 90 55 108 251 354 19 382 56<90 190.5>
LayerCount: 2
Fore
SplineSet
371 541 m 1,0,-1
 266 645 l 1,1,-1
 157 541 l 1,2,-1
 119 580 l 1,3,-1
 267 721 l 1,4,-1
 409 580 l 1,5,-1
 371 541 l 1,0,-1
78 127 m 1,6,-1
 131 127 l 1,7,8
 137 82 137 82 176 59.5 c 128,-1,9
 215 37 215 37 261.5 37 c 128,-1,10
 308 37 308 37 345 57.5 c 128,-1,11
 382 78 382 78 382 119.5 c 128,-1,12
 382 161 382 161 353.5 184 c 128,-1,13
 325 207 325 207 284 220 c 128,-1,14
 243 233 243 233 201 247.5 c 128,-1,15
 159 262 159 262 127 291 c 0,16,17
 89.2653061224 325.197066327 89.2653061224 325.197066327 89.2653061224 375.445471939 c 128,-1,18
 89.2653061224 425.693877551 89.2653061224 425.693877551 129.632653061 469.346938776 c 128,-1,19
 170 513 170 513 261 513 c 0,20,21
 293 513 293 513 321 505.5 c 128,-1,22
 349 498 349 498 361 491 c 2,23,-1
 373 484 l 1,24,-1
 354 438 l 1,25,26
 318 464 318 464 264 464 c 128,-1,27
 210 464 210 464 177.292207792 440.772727273 c 128,-1,28
 144.584415584 417.545454545 144.584415584 417.545454545 144.584415584 379.129364142 c 0,29,30
 144.584415584 341.222840651 144.584415584 341.222840651 177.792207792 319.611420326 c 128,-1,31
 211 298 211 298 253.5 285.5 c 128,-1,32
 296 273 296 273 338 257 c 128,-1,33
 380 241 380 241 409 208 c 128,-1,34
 438 175 438 175 438 120 c 128,-1,35
 438 65 438 65 393.5 25 c 128,-1,36
 349 -15 349 -15 263.5 -15 c 128,-1,37
 178 -15 178 -15 129 26 c 128,-1,38
 80 67 80 67 78 127 c 1,6,-1
EndSplineSet
EndChar

StartChar: Rcommaaccent
Encoding: 342 342 239
Width: 564
Flags: HMW
HStem: -100 111 300 400<134 324 324 332 332 390 78 394.5>
VStem: 78 56<0 245 300 647> 134 378<0 548 451.5 548 451.5 647 300 548> 246 69<-67 -64>
LayerCount: 2
Fore
SplineSet
513 0 m 1,0,-1
 456 0 l 1,1,-1
 371 248 l 1,2,3
 353 245 353 245 331 245 c 2,4,-1
 134 245 l 1,5,-1
 134 0 l 1,6,-1
 78 0 l 1,7,-1
 78 700 l 1,8,-1
 324 700 l 2,9,10
 419 700 419 700 465.5 642 c 128,-1,11
 512 584 512 584 512 486 c 0,12,13
 512 439 512 439 508.5 406 c 128,-1,14
 505 373 505 373 484 329.5 c 128,-1,15
 463 286 463 286 424 265 c 1,16,-1
 513 0 l 1,0,-1
134 300 m 1,17,-1
 332 300 l 2,18,19
 368 300 368 300 393 314.5 c 128,-1,20
 418 329 418 329 430 347 c 128,-1,21
 442 365 442 365 448.5 395.5 c 0,22,23
 456 430.692307692 456 430.692307692 456 486 c 0,24,25
 456 567 456 567 421.5 607 c 128,-1,26
 387 647 387 647 328 647 c 2,27,-1
 134 647 l 1,28,-1
 134 300 l 1,17,-1
251 -184 m 1,29,-1
 211 -156 l 1,30,31
 255.692307692 -130.461538462 255.692307692 -130.461538462 269 -110.5 c 2,32,-1
 274 -103 l 1,33,-1
 264 -100 l 1,34,35
 246 -87 246 -87 246.5 -69 c 128,-1,36
 247 -51 247 -51 256.5 -42.45 c 128,-1,37
 266 -33.9 266 -33.9 272.8 -33.9 c 128,-1,38
 279.6 -33.9 279.6 -33.9 286.8 -34.45 c 128,-1,39
 294 -35 294 -35 304.5 -46.5 c 128,-1,40
 315.015151515 -58.0165945166 315.015151515 -58.0165945166 315.015151515 -72.7867309458 c 0,41,42
 315.015151515 -130.818181818 315.015151515 -130.818181818 251 -184 c 1,29,-1
EndSplineSet
EndChar

StartChar: kgreenlandic
Encoding: 312 312 240
Width: 481
Flags: HMW
HStem: 0 21G<78 134 78 78> 497 20G 694 20G
VStem: 83 85
LayerCount: 2
Fore
SplineSet
446 47 m 1,0,-1
 448 -1 l 1,1,2
 413 -1 413 -1 383 17.5 c 128,-1,3
 353 36 353 36 337.5 54 c 128,-1,4
 322 72 322 72 294 110 c 2,5,-1
 189 254 l 1,6,-1
 134 198 l 1,7,-1
 134 0 l 1,8,-1
 78 0 l 1,9,-1
 78 512 l 1,10,-1
 134 499 l 1,11,-1
 134 274 l 1,12,-1
 342 501 l 1,13,-1
 416 501 l 1,14,-1
 228 296 l 1,15,-1
 355 117 l 1,16,17
 406 49 406 49 446 47 c 1,0,-1
EndSplineSet
EndChar

StartChar: Aogonek
Encoding: 260 260 241
Width: 650
Flags: HMW
HStem: -213 50 0 21G<78 137 78 78 523 524 523 523 582 582 582 583> 280 20G<231 428 428 428>
VStem: 137 386<0 0> 428 68
LayerCount: 2
Fore
SplineSet
582 0 m 1,0,1
 477.68 -86.5856 477.68 -86.5856 477.68 -126.9264 c 0,2,3
 477.68 -142.08 477.68 -142.08 487.34 -154.04 c 128,-1,4
 497 -166 497 -166 518 -166 c 128,-1,5
 539 -166 539 -166 552.5 -156.5 c 128,-1,6
 566 -147 566 -147 580 -125 c 1,7,-1
 617 -163 l 1,8,9
 585 -213 585 -213 520 -213 c 0,10,11
 503 -213 503 -213 485 -208.5 c 128,-1,12
 467 -204 467 -204 447.5 -184 c 128,-1,13
 428 -164 428 -164 428 -131 c 0,14,15
 428 -63 428 -63 524 0 c 1,16,-1
 523 0 l 1,17,-1
 443 245 l 1,18,-1
 215 245 l 1,19,-1
 137 0 l 1,20,-1
 78 0 l 1,21,-1
 302 700 l 1,22,-1
 355 700 l 1,23,-1
 583 0 l 1,24,-1
 582 0 l 1,0,1
428 300 m 1,25,-1
 328 613 l 1,26,-1
 231 300 l 1,27,-1
 428 300 l 1,25,-1
EndSplineSet
EndChar

StartChar: Itilde
Encoding: 296 296 242
Width: 492
Flags: HMW
HStem: 744 36 782 39<387 412>
VStem: 78 334<774 782> 230 56<0 649 649 649>
LayerCount: 2
Fore
SplineSet
286 0 m 1,0,-1
 230 0 l 1,1,-1
 230 649 l 1,2,-1
 163 651 l 1,3,-1
 163 700 l 1,4,-1
 286 700 l 1,5,-1
 286 0 l 1,0,-1
316.768470343 786.419354839 m 0,6,7
 355.765868887 786.419354839 355.765868887 786.419354839 387 821 c 1,8,-1
 412 782 l 1,9,10
 367.071428571 729.142857143 367.071428571 729.142857143 315.867346939 729.142857143 c 0,11,12
 297.785714286 729.142857143 297.785714286 729.142857143 275.392857143 738.571428571 c 128,-1,13
 253 748 253 748 227.96969697 759.621212121 c 128,-1,14
 202.939393939 771.242424242 202.939393939 771.242424242 178.395775941 771.242424242 c 0,15,16
 136.977272727 771.242424242 136.977272727 771.242424242 103 735 c 1,17,-1
 78 774 l 1,18,19
 125.382478632 826.797619048 125.382478632 826.797619048 178.43877551 826.797619048 c 0,20,21
 196.119047619 826.797619048 196.119047619 826.797619048 218.55952381 817.898809524 c 128,-1,22
 241 809 241 809 266.741935484 797.709677419 c 128,-1,23
 292.483870968 786.419354839 292.483870968 786.419354839 316.768470343 786.419354839 c 0,6,7
EndSplineSet
EndChar

